<mxfile host="Electron" modified="2023-11-21T09:30:39.983Z" agent="Mozilla/5.0 (Macintosh; Intel Mac OS X 10_15_7) AppleWebKit/537.36 (KHTML, like Gecko) draw.io/22.1.2 Chrome/114.0.5735.289 Electron/25.9.4 Safari/537.36" etag="pdaR_5S17ZyTaFEAfuoH" version="22.1.2" type="device" pages="3">
  <diagram name="Page-1" id="uiYKDO8Re50V3UOFl9eT">
    <mxGraphModel dx="891" dy="576" grid="1" gridSize="10" guides="1" tooltips="1" connect="1" arrows="1" fold="1" page="1" pageScale="1" pageWidth="827" pageHeight="1169" math="0" shadow="0">
      <root>
        <mxCell id="0" />
        <mxCell id="1" parent="0" />
        <mxCell id="o0g2hCr98uLLnjF9Gi6M-14" value="" style="shape=image;verticalLabelPosition=bottom;labelBackgroundColor=default;verticalAlign=top;aspect=fixed;imageAspect=0;image=data:image/png,iVBORw0KGgoAAAANSUhEUgAAAIAAAACACAAAAADmVT4XAAAAB3RJTUUH1wMeCwkvQs+1ugAABN5JREFUeJztW71rFFEQn5WccBbaCVHQYCyCjY2CaC4kopax0iaJNh7Y2VpoGvEPsLLIFRqwscvZiIIcBK9KYyMWIiagQrASJIXCWuTufe28md9bE1P4pvFtbnbeb+f7za5FSXtL+/Z4/wwgA8gAMoAMIAPIADKADGD3AXQPFUVRFMWB1xGGsha1iKjxBGCcc7Zqcwz1AAzEziTtz0OoBWBpKFBDcD/Ud1VrdQCY/an5SmRcOVixeAVBDSdcbJvl768SY//2D13aSOr23QVA6ja9/AYwJQKYf4bzdh9BbLDl345WbxZ9IIiAhzwXBmCuujcREU2sxu/xPTDKqQJYiuxNRHIYtjCkIoBWbGNFrWUZKEAwVTQMF4uiWFX2bxyN//bcDZZ7l+OMLCxR75YEF/AUIFmKA1BJoB6NWdFsddkm123FqlUFwIWbJ2vOvUAACDgZAEz+9iVZBsECrhLlglEBEAt5Y0grW3gyN35EBaDFaGK1fBP+rXEhyt5x4qd5TRYdAOI8wLM1ZAHYA8pSL0Yz/qOvmfhuTar3kq4AzQTtquoHJFhg0amZ54QcRETVROSl36r6IAs4MtTOVYoC7mYkBtxIVvvWig+cMKvmiqQ9wQJrThm4JIggIsYHzgzhNx4z+9suZ3xcE01E1DyrskQNyKoYsYBbyZQYLLlEND1QQFzFRGJ09exSEULEheHABr++MNzWAmp0ERHR5M0aAGZPx7mNezXikjtOElBdkE1E09v/fJZuE1ywZ5eAC3Id0aAcMInGBjjWiuiHV7Yanr9IRETrW5VfrAWEQphmAbYWXBd6km0SnKtnlxNTNQHM3uF5bQwgj4aWS8BMQzJZSGiynCwETVDqHM+J5uNJYMMusWSdAMBYAMhvRKgFEgCYGBAezTmSgzDrmGAh/mhOJcYskACg82CwgPIb0ShkgQQAveFCqkM9u8RCtY4JBMnOeQDUE54HTBKQpiKJdSApD/SGCyy6UAvAJui+Gyyk6Oq+MEvYAigAM/CQmhwnCI83dxiAIVC1oKEIcMLIed36IjdRwApRWepjuui4QCZlio0DAKdVFUKDUA3DDfnnKKFBuFvvjKQB4j8BAFZCAMCxegDASggAOBWOjATvcgIGdwE1D3hhKPq2kw7wINSLkXdGEB9ss0YeJt0J3aMqXGDwPAxEwQ27FLpx8lLGGL6/DuCWGXkpbW7PrGBNQQBMI6BMGyxfkgvoAJCZBJHngx9aRbH/6U4BMJSQ3VJIA2BOA9JxhMhryHcUwPJwoR32g7o5cgRFIOcp2w8oE7+wLYIbgogGpgYfXRgFaFP3zeCVNlwN+PcF/Y9EtHV1Zd2cdOQkVCE8FUgvLLauWIGKAkIXwPGCYagORj95V+BsAAegJCEKNQCMaGUA33/616pAJxETJTUkPIDAp3UF+AQNCEUAASVolIh2oB/otL1LQAGeyhJcMAJg2b8EypDng0kK4wB0gg8XlDJUoZSemAPQX/SvU1yKKLEh4gCE3x+lKgB7mxMH0O/416kKSLMAA+D9Xyog4WDKAwjKCqYA5wyZ2LppiahxF1LAYduPJBxMEQBgTDsvWU4m7c+1ZO4LfHzYZI6xwtdVHHE9oTMY0t/9hhCkSS4KwH5JkrR/PSry/zXLADKADCADyAAygAwgA/jvAfwBNyrU1yGisWsAAAAASUVORK5CYII=;imageBorder=default;" parent="1" vertex="1">
          <mxGeometry x="20" y="446.46" width="128" height="128" as="geometry" />
        </mxCell>
        <mxCell id="o0g2hCr98uLLnjF9Gi6M-16" value="" style="whiteSpace=wrap;html=1;aspect=fixed;fillColor=none;" parent="1" vertex="1">
          <mxGeometry x="93" y="546" width="10" height="10" as="geometry" />
        </mxCell>
        <mxCell id="o0g2hCr98uLLnjF9Gi6M-17" value="" style="endArrow=none;html=1;rounded=0;entryX=0;entryY=0;entryDx=0;entryDy=0;exitX=1;exitY=0;exitDx=0;exitDy=0;" parent="1" source="o0g2hCr98uLLnjF9Gi6M-16" target="o0g2hCr98uLLnjF9Gi6M-19" edge="1">
          <mxGeometry width="50" height="50" relative="1" as="geometry">
            <mxPoint x="103" y="545" as="sourcePoint" />
            <mxPoint x="226" y="532" as="targetPoint" />
          </mxGeometry>
        </mxCell>
        <mxCell id="o0g2hCr98uLLnjF9Gi6M-18" value="" style="endArrow=none;html=1;rounded=0;entryX=0;entryY=1;entryDx=0;entryDy=0;exitX=1;exitY=1;exitDx=0;exitDy=0;" parent="1" source="o0g2hCr98uLLnjF9Gi6M-16" target="o0g2hCr98uLLnjF9Gi6M-19" edge="1">
          <mxGeometry width="50" height="50" relative="1" as="geometry">
            <mxPoint x="101" y="556" as="sourcePoint" />
            <mxPoint x="226" y="539" as="targetPoint" />
          </mxGeometry>
        </mxCell>
        <mxCell id="o0g2hCr98uLLnjF9Gi6M-19" value="" style="whiteSpace=wrap;html=1;aspect=fixed;fillColor=none;" parent="1" vertex="1">
          <mxGeometry x="226" y="530" width="5" height="5" as="geometry" />
        </mxCell>
        <mxCell id="EFZvTNyPA0uwFmdlpsj--1" value="Input:&lt;br&gt;124x124" style="text;html=1;strokeColor=none;fillColor=none;align=center;verticalAlign=middle;whiteSpace=wrap;rounded=0;" parent="1" vertex="1">
          <mxGeometry x="54" y="400" width="60" height="30" as="geometry" />
        </mxCell>
        <mxCell id="EFZvTNyPA0uwFmdlpsj--2" value="5x5 Convolutions" style="text;html=1;strokeColor=none;fillColor=none;align=center;verticalAlign=middle;whiteSpace=wrap;rounded=0;" parent="1" vertex="1">
          <mxGeometry x="138" y="593" width="60" height="30" as="geometry" />
        </mxCell>
        <mxCell id="o0g2hCr98uLLnjF9Gi6M-9" value="" style="shape=image;verticalLabelPosition=bottom;labelBackgroundColor=default;verticalAlign=top;aspect=fixed;imageAspect=0;image=data:image/svg+xml,PHN2ZyB4bWxucz0iaHR0cDovL3d3dy53My5vcmcvMjAwMC9zdmciIHN0eWxlPSJjdXJzb3I6IG1vdmU7IiBoZWlnaHQ9IjY5MyIgd2lkdGg9IjExNzgiIHZpZXdCb3g9IjAgMCAxMTc4IDY5MyI+PGcgdHJhbnNmb3JtPSJ0cmFuc2xhdGUoNDAwLjgxMDIyNTY3OTA0Nzk2LDEyLjIwOTUyNzE3Mzc3MTE2NCkgc2NhbGUoMC44NTM4MTc3MTQzOTEyNDM5KSI+PHJlY3Qgc3R5bGU9ImZpbGw6IHJnYigyMTQsIDIxNCwgMjE0KTsgc3Ryb2tlOiBibGFjazsgc3Ryb2tlLXdpZHRoOiAwLjg3OyBvcGFjaXR5OiAwLjcxOyIgeT0iMjc3LjUiIHg9IjE3NSIgaGVpZ2h0PSIxMjAiIHdpZHRoPSIxMjAiIGlkPSIwXzAiIGNsYXNzPSJyZWN0Ii8+PHJlY3Qgc3R5bGU9ImZpbGw6IHJnYigxNDAsIDE0MCwgMTQwKTsgc3Ryb2tlOiBibGFjazsgc3Ryb2tlLXdpZHRoOiAwLjg3OyBvcGFjaXR5OiAwLjcxOyIgeT0iMjgzLjUiIHg9IjE4MSIgaGVpZ2h0PSIxMjAiIHdpZHRoPSIxMjAiIGlkPSIwXzEiIGNsYXNzPSJyZWN0Ii8+PHJlY3Qgc3R5bGU9ImZpbGw6IHJnYigyMTQsIDIxNCwgMjE0KTsgc3Ryb2tlOiBibGFjazsgc3Ryb2tlLXdpZHRoOiAwLjg3OyBvcGFjaXR5OiAwLjcxOyIgeT0iMjg5LjUiIHg9IjE4NyIgaGVpZ2h0PSIxMjAiIHdpZHRoPSIxMjAiIGlkPSIwXzIiIGNsYXNzPSJyZWN0Ii8+PHJlY3Qgc3R5bGU9ImZpbGw6IHJnYigxNDAsIDE0MCwgMTQwKTsgc3Ryb2tlOiBibGFjazsgc3Ryb2tlLXdpZHRoOiAwLjg3OyBvcGFjaXR5OiAwLjcxOyIgeT0iMjk1LjUiIHg9IjE5MyIgaGVpZ2h0PSIxMjAiIHdpZHRoPSIxMjAiIGlkPSIwXzMiIGNsYXNzPSJyZWN0Ii8+PHJlY3Qgc3R5bGU9ImZpbGw6IHJnYigyMTQsIDIxNCwgMjE0KTsgc3Ryb2tlOiBibGFjazsgc3Ryb2tlLXdpZHRoOiAwLjg3OyBvcGFjaXR5OiAwLjcxOyIgeT0iMzIyLjUiIHg9IjMzOCIgaGVpZ2h0PSIzMCIgd2lkdGg9IjMwIiBpZD0iMV8wIiBjbGFzcz0icmVjdCIvPjxyZWN0IHN0eWxlPSJmaWxsOiByZ2IoMTQwLCAxNDAsIDE0MCk7IHN0cm9rZTogYmxhY2s7IHN0cm9rZS13aWR0aDogMC44Nzsgb3BhY2l0eTogMC43MTsiIHk9IjMyOC41IiB4PSIzNDQiIGhlaWdodD0iMzAiIHdpZHRoPSIzMCIgaWQ9IjFfMSIgY2xhc3M9InJlY3QiLz48cmVjdCBzdHlsZT0iZmlsbDogcmdiKDIxNCwgMjE0LCAyMTQpOyBzdHJva2U6IGJsYWNrOyBzdHJva2Utd2lkdGg6IDAuODc7IG9wYWNpdHk6IDAuNzE7IiB5PSIzMzQuNSIgeD0iMzUwIiBoZWlnaHQ9IjMwIiB3aWR0aD0iMzAiIGlkPSIxXzIiIGNsYXNzPSJyZWN0Ii8+PHJlY3Qgc3R5bGU9ImZpbGw6IHJnYigxNDAsIDE0MCwgMTQwKTsgc3Ryb2tlOiBibGFjazsgc3Ryb2tlLXdpZHRoOiAwLjg3OyBvcGFjaXR5OiAwLjcxOyIgeT0iMzQwLjUiIHg9IjM1NiIgaGVpZ2h0PSIzMCIgd2lkdGg9IjMwIiBpZD0iMV8zIiBjbGFzcz0icmVjdCIvPjxyZWN0IHN0eWxlPSJmaWxsOiByZ2IoMjE0LCAyMTQsIDIxNCk7IHN0cm9rZTogYmxhY2s7IHN0cm9rZS13aWR0aDogMC44Nzsgb3BhY2l0eTogMC43MTsiIHk9IjMxMi41IiB4PSI0MDEiIGhlaWdodD0iMjYiIHdpZHRoPSIyNiIgaWQ9IjJfMCIgY2xhc3M9InJlY3QiLz48cmVjdCBzdHlsZT0iZmlsbDogcmdiKDE0MCwgMTQwLCAxNDApOyBzdHJva2U6IGJsYWNrOyBzdHJva2Utd2lkdGg6IDAuODc7IG9wYWNpdHk6IDAuNzE7IiB5PSIzMTguNSIgeD0iNDA3IiBoZWlnaHQ9IjI2IiB3aWR0aD0iMjYiIGlkPSIyXzEiIGNsYXNzPSJyZWN0Ii8+PHJlY3Qgc3R5bGU9ImZpbGw6IHJnYigyMTQsIDIxNCwgMjE0KTsgc3Ryb2tlOiBibGFjazsgc3Ryb2tlLXdpZHRoOiAwLjg3OyBvcGFjaXR5OiAwLjcxOyIgeT0iMzI0LjUiIHg9IjQxMyIgaGVpZ2h0PSIyNiIgd2lkdGg9IjI2IiBpZD0iMl8yIiBjbGFzcz0icmVjdCIvPjxyZWN0IHN0eWxlPSJmaWxsOiByZ2IoMTQwLCAxNDAsIDE0MCk7IHN0cm9rZTogYmxhY2s7IHN0cm9rZS13aWR0aDogMC44Nzsgb3BhY2l0eTogMC43MTsiIHk9IjMzMC41IiB4PSI0MTkiIGhlaWdodD0iMjYiIHdpZHRoPSIyNiIgaWQ9IjJfMyIgY2xhc3M9InJlY3QiLz48cmVjdCBzdHlsZT0iZmlsbDogcmdiKDIxNCwgMjE0LCAyMTQpOyBzdHJva2U6IGJsYWNrOyBzdHJva2Utd2lkdGg6IDAuODc7IG9wYWNpdHk6IDAuNzE7IiB5PSIzMzYuNSIgeD0iNDI1IiBoZWlnaHQ9IjI2IiB3aWR0aD0iMjYiIGlkPSIyXzQiIGNsYXNzPSJyZWN0Ii8+PHJlY3Qgc3R5bGU9ImZpbGw6IHJnYigxNDAsIDE0MCwgMTQwKTsgc3Ryb2tlOiBibGFjazsgc3Ryb2tlLXdpZHRoOiAwLjg3OyBvcGFjaXR5OiAwLjcxOyIgeT0iMzQyLjUiIHg9IjQzMSIgaGVpZ2h0PSIyNiIgd2lkdGg9IjI2IiBpZD0iMl81IiBjbGFzcz0icmVjdCIvPjxyZWN0IHN0eWxlPSJmaWxsOiByZ2IoMjE0LCAyMTQsIDIxNCk7IHN0cm9rZTogYmxhY2s7IHN0cm9rZS13aWR0aDogMC44Nzsgb3BhY2l0eTogMC43MTsiIHk9IjM0OC41IiB4PSI0MzciIGhlaWdodD0iMjYiIHdpZHRoPSIyNiIgaWQ9IjJfNiIgY2xhc3M9InJlY3QiLz48cmVjdCBzdHlsZT0iZmlsbDogcmdiKDE0MCwgMTQwLCAxNDApOyBzdHJva2U6IGJsYWNrOyBzdHJva2Utd2lkdGg6IDAuODc7IG9wYWNpdHk6IDAuNzE7IiB5PSIzNTQuNSIgeD0iNDQzIiBoZWlnaHQ9IjI2IiB3aWR0aD0iMjYiIGlkPSIyXzciIGNsYXNzPSJyZWN0Ii8+PHJlY3Qgc3R5bGU9ImZpbGw6IHJnYigyMTQsIDIxNCwgMjE0KTsgc3Ryb2tlOiBibGFjazsgc3Ryb2tlLXdpZHRoOiAwLjg3OyBvcGFjaXR5OiAwLjcxOyIgeT0iMzE5IiB4PSI0NzMiIGhlaWdodD0iMTMiIHdpZHRoPSIxMyIgaWQ9IjNfMCIgY2xhc3M9InJlY3QiLz48cmVjdCBzdHlsZT0iZmlsbDogcmdiKDE0MCwgMTQwLCAxNDApOyBzdHJva2U6IGJsYWNrOyBzdHJva2Utd2lkdGg6IDAuODc7IG9wYWNpdHk6IDAuNzE7IiB5PSIzMjUiIHg9IjQ3OSIgaGVpZ2h0PSIxMyIgd2lkdGg9IjEzIiBpZD0iM18xIiBjbGFzcz0icmVjdCIvPjxyZWN0IHN0eWxlPSJmaWxsOiByZ2IoMjE0LCAyMTQsIDIxNCk7IHN0cm9rZTogYmxhY2s7IHN0cm9rZS13aWR0aDogMC44Nzsgb3BhY2l0eTogMC43MTsiIHk9IjMzMSIgeD0iNDg1IiBoZWlnaHQ9IjEzIiB3aWR0aD0iMTMiIGlkPSIzXzIiIGNsYXNzPSJyZWN0Ii8+PHJlY3Qgc3R5bGU9ImZpbGw6IHJnYigxNDAsIDE0MCwgMTQwKTsgc3Ryb2tlOiBibGFjazsgc3Ryb2tlLXdpZHRoOiAwLjg3OyBvcGFjaXR5OiAwLjcxOyIgeT0iMzM3IiB4PSI0OTEiIGhlaWdodD0iMTMiIHdpZHRoPSIxMyIgaWQ9IjNfMyIgY2xhc3M9InJlY3QiLz48cmVjdCBzdHlsZT0iZmlsbDogcmdiKDIxNCwgMjE0LCAyMTQpOyBzdHJva2U6IGJsYWNrOyBzdHJva2Utd2lkdGg6IDAuODc7IG9wYWNpdHk6IDAuNzE7IiB5PSIzNDMiIHg9IjQ5NyIgaGVpZ2h0PSIxMyIgd2lkdGg9IjEzIiBpZD0iM180IiBjbGFzcz0icmVjdCIvPjxyZWN0IHN0eWxlPSJmaWxsOiByZ2IoMTQwLCAxNDAsIDE0MCk7IHN0cm9rZTogYmxhY2s7IHN0cm9rZS13aWR0aDogMC44Nzsgb3BhY2l0eTogMC43MTsiIHk9IjM0OSIgeD0iNTAzIiBoZWlnaHQ9IjEzIiB3aWR0aD0iMTMiIGlkPSIzXzUiIGNsYXNzPSJyZWN0Ii8+PHJlY3Qgc3R5bGU9ImZpbGw6IHJnYigyMTQsIDIxNCwgMjE0KTsgc3Ryb2tlOiBibGFjazsgc3Ryb2tlLXdpZHRoOiAwLjg3OyBvcGFjaXR5OiAwLjcxOyIgeT0iMzU1IiB4PSI1MDkiIGhlaWdodD0iMTMiIHdpZHRoPSIxMyIgaWQ9IjNfNiIgY2xhc3M9InJlY3QiLz48cmVjdCBzdHlsZT0iZmlsbDogcmdiKDE0MCwgMTQwLCAxNDApOyBzdHJva2U6IGJsYWNrOyBzdHJva2Utd2lkdGg6IDAuODc7IG9wYWNpdHk6IDAuNzE7IiB5PSIzNjEiIHg9IjUxNSIgaGVpZ2h0PSIxMyIgd2lkdGg9IjEzIiBpZD0iM183IiBjbGFzcz0icmVjdCIvPjxyZWN0IHN0eWxlPSJmaWxsOiByZ2IoMjE0LCAyMTQsIDIxNCk7IHN0cm9rZTogYmxhY2s7IHN0cm9rZS13aWR0aDogMC44Nzsgb3BhY2l0eTogMC43MTsiIHk9IjI5NyIgeD0iNTA5IiBoZWlnaHQ9IjkiIHdpZHRoPSI5IiBpZD0iNF8wIiBjbGFzcz0icmVjdCIvPjxyZWN0IHN0eWxlPSJmaWxsOiByZ2IoMTQwLCAxNDAsIDE0MCk7IHN0cm9rZTogYmxhY2s7IHN0cm9rZS13aWR0aDogMC44Nzsgb3BhY2l0eTogMC43MTsiIHk9IjMwMyIgeD0iNTE1IiBoZWlnaHQ9IjkiIHdpZHRoPSI5IiBpZD0iNF8xIiBjbGFzcz0icmVjdCIvPjxyZWN0IHN0eWxlPSJmaWxsOiByZ2IoMjE0LCAyMTQsIDIxNCk7IHN0cm9rZTogYmxhY2s7IHN0cm9rZS13aWR0aDogMC44Nzsgb3BhY2l0eTogMC43MTsiIHk9IjMwOSIgeD0iNTIxIiBoZWlnaHQ9IjkiIHdpZHRoPSI5IiBpZD0iNF8yIiBjbGFzcz0icmVjdCIvPjxyZWN0IHN0eWxlPSJmaWxsOiByZ2IoMTQwLCAxNDAsIDE0MCk7IHN0cm9rZTogYmxhY2s7IHN0cm9rZS13aWR0aDogMC44Nzsgb3BhY2l0eTogMC43MTsiIHk9IjMxNSIgeD0iNTI3IiBoZWlnaHQ9IjkiIHdpZHRoPSI5IiBpZD0iNF8zIiBjbGFzcz0icmVjdCIvPjxyZWN0IHN0eWxlPSJmaWxsOiByZ2IoMjE0LCAyMTQsIDIxNCk7IHN0cm9rZTogYmxhY2s7IHN0cm9rZS13aWR0aDogMC44Nzsgb3BhY2l0eTogMC43MTsiIHk9IjMyMSIgeD0iNTMzIiBoZWlnaHQ9IjkiIHdpZHRoPSI5IiBpZD0iNF80IiBjbGFzcz0icmVjdCIvPjxyZWN0IHN0eWxlPSJmaWxsOiByZ2IoMTQwLCAxNDAsIDE0MCk7IHN0cm9rZTogYmxhY2s7IHN0cm9rZS13aWR0aDogMC44Nzsgb3BhY2l0eTogMC43MTsiIHk9IjMyNyIgeD0iNTM5IiBoZWlnaHQ9IjkiIHdpZHRoPSI5IiBpZD0iNF81IiBjbGFzcz0icmVjdCIvPjxyZWN0IHN0eWxlPSJmaWxsOiByZ2IoMjE0LCAyMTQsIDIxNCk7IHN0cm9rZTogYmxhY2s7IHN0cm9rZS13aWR0aDogMC44Nzsgb3BhY2l0eTogMC43MTsiIHk9IjMzMyIgeD0iNTQ1IiBoZWlnaHQ9IjkiIHdpZHRoPSI5IiBpZD0iNF82IiBjbGFzcz0icmVjdCIvPjxyZWN0IHN0eWxlPSJmaWxsOiByZ2IoMTQwLCAxNDAsIDE0MCk7IHN0cm9rZTogYmxhY2s7IHN0cm9rZS13aWR0aDogMC44Nzsgb3BhY2l0eTogMC43MTsiIHk9IjMzOSIgeD0iNTUxIiBoZWlnaHQ9IjkiIHdpZHRoPSI5IiBpZD0iNF83IiBjbGFzcz0icmVjdCIvPjxyZWN0IHN0eWxlPSJmaWxsOiByZ2IoMjE0LCAyMTQsIDIxNCk7IHN0cm9rZTogYmxhY2s7IHN0cm9rZS13aWR0aDogMC44Nzsgb3BhY2l0eTogMC43MTsiIHk9IjM0NSIgeD0iNTU3IiBoZWlnaHQ9IjkiIHdpZHRoPSI5IiBpZD0iNF84IiBjbGFzcz0icmVjdCIvPjxyZWN0IHN0eWxlPSJmaWxsOiByZ2IoMTQwLCAxNDAsIDE0MCk7IHN0cm9rZTogYmxhY2s7IHN0cm9rZS13aWR0aDogMC44Nzsgb3BhY2l0eTogMC43MTsiIHk9IjM1MSIgeD0iNTYzIiBoZWlnaHQ9IjkiIHdpZHRoPSI5IiBpZD0iNF85IiBjbGFzcz0icmVjdCIvPjxyZWN0IHN0eWxlPSJmaWxsOiByZ2IoMjE0LCAyMTQsIDIxNCk7IHN0cm9rZTogYmxhY2s7IHN0cm9rZS13aWR0aDogMC44Nzsgb3BhY2l0eTogMC43MTsiIHk9IjM1NyIgeD0iNTY5IiBoZWlnaHQ9IjkiIHdpZHRoPSI5IiBpZD0iNF8xMCIgY2xhc3M9InJlY3QiLz48cmVjdCBzdHlsZT0iZmlsbDogcmdiKDE0MCwgMTQwLCAxNDApOyBzdHJva2U6IGJsYWNrOyBzdHJva2Utd2lkdGg6IDAuODc7IG9wYWNpdHk6IDAuNzE7IiB5PSIzNjMiIHg9IjU3NSIgaGVpZ2h0PSI5IiB3aWR0aD0iOSIgaWQ9IjRfMTEiIGNsYXNzPSJyZWN0Ii8+PHJlY3Qgc3R5bGU9ImZpbGw6IHJnYigyMTQsIDIxNCwgMjE0KTsgc3Ryb2tlOiBibGFjazsgc3Ryb2tlLXdpZHRoOiAwLjg3OyBvcGFjaXR5OiAwLjcxOyIgeT0iMzY5IiB4PSI1ODEiIGhlaWdodD0iOSIgd2lkdGg9IjkiIGlkPSI0XzEyIiBjbGFzcz0icmVjdCIvPjxyZWN0IHN0eWxlPSJmaWxsOiByZ2IoMTQwLCAxNDAsIDE0MCk7IHN0cm9rZTogYmxhY2s7IHN0cm9rZS13aWR0aDogMC44Nzsgb3BhY2l0eTogMC43MTsiIHk9IjM3NSIgeD0iNTg3IiBoZWlnaHQ9IjkiIHdpZHRoPSI5IiBpZD0iNF8xMyIgY2xhc3M9InJlY3QiLz48cmVjdCBzdHlsZT0iZmlsbDogcmdiKDIxNCwgMjE0LCAyMTQpOyBzdHJva2U6IGJsYWNrOyBzdHJva2Utd2lkdGg6IDAuODc7IG9wYWNpdHk6IDAuNzE7IiB5PSIzODEiIHg9IjU5MyIgaGVpZ2h0PSI5IiB3aWR0aD0iOSIgaWQ9IjRfMTQiIGNsYXNzPSJyZWN0Ii8+PHJlY3Qgc3R5bGU9ImZpbGw6IHJnYigxNDAsIDE0MCwgMTQwKTsgc3Ryb2tlOiBibGFjazsgc3Ryb2tlLXdpZHRoOiAwLjg3OyBvcGFjaXR5OiAwLjcxOyIgeT0iMzg3IiB4PSI1OTkiIGhlaWdodD0iOSIgd2lkdGg9IjkiIGlkPSI0XzE1IiBjbGFzcz0icmVjdCIvPjxyZWN0IHN0eWxlPSJmaWxsOiByZ2IoMjE0LCAyMTQsIDIxNCk7IHN0cm9rZTogYmxhY2s7IHN0cm9rZS13aWR0aDogMC44Nzsgb3BhY2l0eTogMC43MTsiIHk9IjMwMCIgeD0iNTY4IiBoZWlnaHQ9IjMiIHdpZHRoPSIzIiBpZD0iNV8wIiBjbGFzcz0icmVjdCIvPjxyZWN0IHN0eWxlPSJmaWxsOiByZ2IoMTQwLCAxNDAsIDE0MCk7IHN0cm9rZTogYmxhY2s7IHN0cm9rZS13aWR0aDogMC44Nzsgb3BhY2l0eTogMC43MTsiIHk9IjMwNiIgeD0iNTc0IiBoZWlnaHQ9IjMiIHdpZHRoPSIzIiBpZD0iNV8xIiBjbGFzcz0icmVjdCIvPjxyZWN0IHN0eWxlPSJmaWxsOiByZ2IoMjE0LCAyMTQsIDIxNCk7IHN0cm9rZTogYmxhY2s7IHN0cm9rZS13aWR0aDogMC44Nzsgb3BhY2l0eTogMC43MTsiIHk9IjMxMiIgeD0iNTgwIiBoZWlnaHQ9IjMiIHdpZHRoPSIzIiBpZD0iNV8yIiBjbGFzcz0icmVjdCIvPjxyZWN0IHN0eWxlPSJmaWxsOiByZ2IoMTQwLCAxNDAsIDE0MCk7IHN0cm9rZTogYmxhY2s7IHN0cm9rZS13aWR0aDogMC44Nzsgb3BhY2l0eTogMC43MTsiIHk9IjMxOCIgeD0iNTg2IiBoZWlnaHQ9IjMiIHdpZHRoPSIzIiBpZD0iNV8zIiBjbGFzcz0icmVjdCIvPjxyZWN0IHN0eWxlPSJmaWxsOiByZ2IoMjE0LCAyMTQsIDIxNCk7IHN0cm9rZTogYmxhY2s7IHN0cm9rZS13aWR0aDogMC44Nzsgb3BhY2l0eTogMC43MTsiIHk9IjMyNCIgeD0iNTkyIiBoZWlnaHQ9IjMiIHdpZHRoPSIzIiBpZD0iNV80IiBjbGFzcz0icmVjdCIvPjxyZWN0IHN0eWxlPSJmaWxsOiByZ2IoMTQwLCAxNDAsIDE0MCk7IHN0cm9rZTogYmxhY2s7IHN0cm9rZS13aWR0aDogMC44Nzsgb3BhY2l0eTogMC43MTsiIHk9IjMzMCIgeD0iNTk4IiBoZWlnaHQ9IjMiIHdpZHRoPSIzIiBpZD0iNV81IiBjbGFzcz0icmVjdCIvPjxyZWN0IHN0eWxlPSJmaWxsOiByZ2IoMjE0LCAyMTQsIDIxNCk7IHN0cm9rZTogYmxhY2s7IHN0cm9rZS13aWR0aDogMC44Nzsgb3BhY2l0eTogMC43MTsiIHk9IjMzNiIgeD0iNjA0IiBoZWlnaHQ9IjMiIHdpZHRoPSIzIiBpZD0iNV82IiBjbGFzcz0icmVjdCIvPjxyZWN0IHN0eWxlPSJmaWxsOiByZ2IoMTQwLCAxNDAsIDE0MCk7IHN0cm9rZTogYmxhY2s7IHN0cm9rZS13aWR0aDogMC44Nzsgb3BhY2l0eTogMC43MTsiIHk9IjM0MiIgeD0iNjEwIiBoZWlnaHQ9IjMiIHdpZHRoPSIzIiBpZD0iNV83IiBjbGFzcz0icmVjdCIvPjxyZWN0IHN0eWxlPSJmaWxsOiByZ2IoMjE0LCAyMTQsIDIxNCk7IHN0cm9rZTogYmxhY2s7IHN0cm9rZS13aWR0aDogMC44Nzsgb3BhY2l0eTogMC43MTsiIHk9IjM0OCIgeD0iNjE2IiBoZWlnaHQ9IjMiIHdpZHRoPSIzIiBpZD0iNV84IiBjbGFzcz0icmVjdCIvPjxyZWN0IHN0eWxlPSJmaWxsOiByZ2IoMTQwLCAxNDAsIDE0MCk7IHN0cm9rZTogYmxhY2s7IHN0cm9rZS13aWR0aDogMC44Nzsgb3BhY2l0eTogMC43MTsiIHk9IjM1NCIgeD0iNjIyIiBoZWlnaHQ9IjMiIHdpZHRoPSIzIiBpZD0iNV85IiBjbGFzcz0icmVjdCIvPjxyZWN0IHN0eWxlPSJmaWxsOiByZ2IoMjE0LCAyMTQsIDIxNCk7IHN0cm9rZTogYmxhY2s7IHN0cm9rZS13aWR0aDogMC44Nzsgb3BhY2l0eTogMC43MTsiIHk9IjM2MCIgeD0iNjI4IiBoZWlnaHQ9IjMiIHdpZHRoPSIzIiBpZD0iNV8xMCIgY2xhc3M9InJlY3QiLz48cmVjdCBzdHlsZT0iZmlsbDogcmdiKDE0MCwgMTQwLCAxNDApOyBzdHJva2U6IGJsYWNrOyBzdHJva2Utd2lkdGg6IDAuODc7IG9wYWNpdHk6IDAuNzE7IiB5PSIzNjYiIHg9IjYzNCIgaGVpZ2h0PSIzIiB3aWR0aD0iMyIgaWQ9IjVfMTEiIGNsYXNzPSJyZWN0Ii8+PHJlY3Qgc3R5bGU9ImZpbGw6IHJnYigyMTQsIDIxNCwgMjE0KTsgc3Ryb2tlOiBibGFjazsgc3Ryb2tlLXdpZHRoOiAwLjg3OyBvcGFjaXR5OiAwLjcxOyIgeT0iMzcyIiB4PSI2NDAiIGhlaWdodD0iMyIgd2lkdGg9IjMiIGlkPSI1XzEyIiBjbGFzcz0icmVjdCIvPjxyZWN0IHN0eWxlPSJmaWxsOiByZ2IoMTQwLCAxNDAsIDE0MCk7IHN0cm9rZTogYmxhY2s7IHN0cm9rZS13aWR0aDogMC44Nzsgb3BhY2l0eTogMC43MTsiIHk9IjM3OCIgeD0iNjQ2IiBoZWlnaHQ9IjMiIHdpZHRoPSIzIiBpZD0iNV8xMyIgY2xhc3M9InJlY3QiLz48cmVjdCBzdHlsZT0iZmlsbDogcmdiKDIxNCwgMjE0LCAyMTQpOyBzdHJva2U6IGJsYWNrOyBzdHJva2Utd2lkdGg6IDAuODc7IG9wYWNpdHk6IDAuNzE7IiB5PSIzODQiIHg9IjY1MiIgaGVpZ2h0PSIzIiB3aWR0aD0iMyIgaWQ9IjVfMTQiIGNsYXNzPSJyZWN0Ii8+PHJlY3Qgc3R5bGU9ImZpbGw6IHJnYigxNDAsIDE0MCwgMTQwKTsgc3Ryb2tlOiBibGFjazsgc3Ryb2tlLXdpZHRoOiAwLjg3OyBvcGFjaXR5OiAwLjcxOyIgeT0iMzkwIiB4PSI2NTgiIGhlaWdodD0iMyIgd2lkdGg9IjMiIGlkPSI1XzE1IiBjbGFzcz0icmVjdCIvPjxyZWN0IHN0eWxlPSJmaWxsLW9wYWNpdHk6IDA7IHN0cm9rZTogYmxhY2s7IHN0cm9rZS13aWR0aDogMC44Nzsgc3Ryb2tlLW9wYWNpdHk6IDAuNzE7IiB5PSIzMTUuMDc0ODE2Mjg2Mjg2MTQiIHg9IjIzMS4wNTgzNTk1NjczNzUyIiBoZWlnaHQ9IjQiIHdpZHRoPSI0IiBpZD0iY29udl8wIiBjbGFzcz0iY29udiIvPjxyZWN0IHN0eWxlPSJmaWxsLW9wYWNpdHk6IDA7IHN0cm9rZTogYmxhY2s7IHN0cm9rZS13aWR0aDogMC44Nzsgc3Ryb2tlLW9wYWNpdHk6IDAuNzE7IiB5PSIzNDguMzYxNjE2Nzc2NzgiIHg9IjM2My41Njg1Njk0NjE2NjY4IiBoZWlnaHQ9IjUiIHdpZHRoPSI1IiBpZD0iY29udl8xIiBjbGFzcz0iY29udiIvPjxyZWN0IHN0eWxlPSJmaWxsLW9wYWNpdHk6IDA7IHN0cm9rZTogYmxhY2s7IHN0cm9rZS13aWR0aDogMC44Nzsgc3Ryb2tlLW9wYWNpdHk6IDAuNzE7IiB5PSIzNjEuMzMzMTMxODYxNTA3MjQiIHg9IjQ1Ny42MTg5NzczMjAyMTI2IiBoZWlnaHQ9IjIiIHdpZHRoPSIyIiBpZD0iY29udl8yIiBjbGFzcz0iY29udiIvPjxyZWN0IHN0eWxlPSJmaWxsLW9wYWNpdHk6IDA7IHN0cm9rZTogYmxhY2s7IHN0cm9rZS13aWR0aDogMC44Nzsgc3Ryb2tlLW9wYWNpdHk6IDAuNzE7IiB5PSIzNjIuNTQ2Njc3MjY1OTA4MzMiIHg9IjUyMS45NDI2Mjg4MDE2NjYyIiBoZWlnaHQ9IjUiIHdpZHRoPSI1IiBpZD0iY29udl8zIiBjbGFzcz0iY29udiIvPjxyZWN0IHN0eWxlPSJmaWxsLW9wYWNpdHk6IDA7IHN0cm9rZTogYmxhY2s7IHN0cm9rZS13aWR0aDogMC44Nzsgc3Ryb2tlLW9wYWNpdHk6IDAuNzE7IiB5PSIzOTAuNDExNTczNzkwMzI2OSIgeD0iNjAzLjc0MTQyNjM5NDU4ODYiIGhlaWdodD0iMyIgd2lkdGg9IjMiIGlkPSJjb252XzQiIGNsYXNzPSJjb252Ii8+PGxpbmUgc3R5bGU9InN0cm9rZTogYmxhY2s7IHN0cm9rZS13aWR0aDogMC40MzU7IHN0cm9rZS1vcGFjaXR5OiAwLjcxOyIgeTI9IjM0NS41NjI0NTI0ODc4MzI2IiB4Mj0iMzY1Ljg0MjY3OTE5ODQ1OTEiIHkxPSIzMTkuMDc0ODE2Mjg2Mjg2MTQiIHgxPSIyMzUuMDU4MzU5NTY3Mzc1MiIgaWQ9ImNvbnZfMCIgY2xhc3M9ImxpbmsiLz48bGluZSBzdHlsZT0ic3Ryb2tlOiBibGFjazsgc3Ryb2tlLXdpZHRoOiAwLjQzNTsgc3Ryb2tlLW9wYWNpdHk6IDAuNzE7IiB5Mj0iMzQ1LjU2MjQ1MjQ4NzgzMjYiIHgyPSIzNjUuODQyNjc5MTk4NDU5MSIgeTE9IjMxNS4wNzQ4MTYyODYyODYxNCIgeDE9IjIzNS4wNTgzNTk1NjczNzUyIiBpZD0iY29udl8wIiBjbGFzcz0ibGluayIvPjxsaW5lIHN0eWxlPSJzdHJva2U6IGJsYWNrOyBzdHJva2Utd2lkdGg6IDAuNDM1OyBzdHJva2Utb3BhY2l0eTogMC43MTsiIHkyPSIzNjIuNjc2MDgxNDQ3ODUxMiIgeDI9IjQ1MC44NzEzMTIyNDAxMzM1IiB5MT0iMzUzLjM2MTYxNjc3Njc4IiB4MT0iMzY4LjU2ODU2OTQ2MTY2NjgiIGlkPSJjb252XzEiIGNsYXNzPSJsaW5rIi8+PGxpbmUgc3R5bGU9InN0cm9rZTogYmxhY2s7IHN0cm9rZS13aWR0aDogMC40MzU7IHN0cm9rZS1vcGFjaXR5OiAwLjcxOyIgeTI9IjM2Mi42NzYwODE0NDc4NTEyIiB4Mj0iNDUwLjg3MTMxMjI0MDEzMzUiIHkxPSIzNDguMzYxNjE2Nzc2NzgiIHgxPSIzNjguNTY4NTY5NDYxNjY2OCIgaWQ9ImNvbnZfMSIgY2xhc3M9ImxpbmsiLz48bGluZSBzdHlsZT0ic3Ryb2tlOiBibGFjazsgc3Ryb2tlLXdpZHRoOiAwLjQzNTsgc3Ryb2tlLW9wYWNpdHk6IDAuNzE7IiB5Mj0iMzY0LjcwMTI3OTc1ODMxNjQ1IiB4Mj0iNTIyLjkxODYxMjcxNTExNTIiIHkxPSIzNjMuMzMzMTMxODYxNTA3MjQiIHgxPSI0NTkuNjE4OTc3MzIwMjEyNiIgaWQ9ImNvbnZfMiIgY2xhc3M9ImxpbmsiLz48bGluZSBzdHlsZT0ic3Ryb2tlOiBibGFjazsgc3Ryb2tlLXdpZHRoOiAwLjQzNTsgc3Ryb2tlLW9wYWNpdHk6IDAuNzE7IiB5Mj0iMzY0LjcwMTI3OTc1ODMxNjQ1IiB4Mj0iNTIyLjkxODYxMjcxNTExNTIiIHkxPSIzNjEuMzMzMTMxODYxNTA3MjQiIHgxPSI0NTkuNjE4OTc3MzIwMjEyNiIgaWQ9ImNvbnZfMiIgY2xhc3M9ImxpbmsiLz48bGluZSBzdHlsZT0ic3Ryb2tlOiBibGFjazsgc3Ryb2tlLXdpZHRoOiAwLjQzNTsgc3Ryb2tlLW9wYWNpdHk6IDAuNzE7IiB5Mj0iMzg4Ljc0MDAxMTkyNDE0Njg3IiB4Mj0iNjA2LjgxMDQ1NzQwMTg3NDQiIHkxPSIzNjcuNTQ2Njc3MjY1OTA4MzMiIHgxPSI1MjYuOTQyNjI4ODAxNjY2MiIgaWQ9ImNvbnZfMyIgY2xhc3M9ImxpbmsiLz48bGluZSBzdHlsZT0ic3Ryb2tlOiBibGFjazsgc3Ryb2tlLXdpZHRoOiAwLjQzNTsgc3Ryb2tlLW9wYWNpdHk6IDAuNzE7IiB5Mj0iMzg4Ljc0MDAxMTkyNDE0Njg3IiB4Mj0iNjA2LjgxMDQ1NzQwMTg3NDQiIHkxPSIzNjIuNTQ2Njc3MjY1OTA4MzMiIHgxPSI1MjYuOTQyNjI4ODAxNjY2MiIgaWQ9ImNvbnZfMyIgY2xhc3M9ImxpbmsiLz48bGluZSBzdHlsZT0ic3Ryb2tlOiBibGFjazsgc3Ryb2tlLXdpZHRoOiAwLjQzNTsgc3Ryb2tlLW9wYWNpdHk6IDAuNzE7IiB5Mj0iMzkxLjcwNTc4Njg5NTE2MzQ0IiB4Mj0iNjYwLjM3MDcxMzE5NzI5NDIiIHkxPSIzOTMuNDExNTczNzkwMzI2OSIgeDE9IjYwNi43NDE0MjYzOTQ1ODg2IiBpZD0iY29udl80IiBjbGFzcz0ibGluayIvPjxsaW5lIHN0eWxlPSJzdHJva2U6IGJsYWNrOyBzdHJva2Utd2lkdGg6IDAuNDM1OyBzdHJva2Utb3BhY2l0eTogMC43MTsiIHkyPSIzOTEuNzA1Nzg2ODk1MTYzNDQiIHgyPSI2NjAuMzcwNzEzMTk3Mjk0MiIgeTE9IjM5MC40MTE1NzM3OTAzMjY5IiB4MT0iNjA2Ljc0MTQyNjM5NDU4ODYiIGlkPSJjb252XzQiIGNsYXNzPSJsaW5rIi8+PHBvbHlnb24gc3R5bGU9ImZpbGw6IHJnYigxNDAsIDE0MCwgMTQwKTsgc3Ryb2tlOiBibGFjazsgc3Ryb2tlLXdpZHRoOiAwLjg3OyBvcGFjaXR5OiAwLjcxOyIgcG9pbnRzPSI2MjksMzExLjE0NDY2MDk0MDY3MjYgNjM5LDMxMS4xNDQ2NjA5NDA2NzI2IDcwOS43MTA2NzgxMTg2NTQ4LDM4MS44NTUzMzkwNTkzMjc0IDY5OS43MTA2NzgxMTg2NTQ4LDM4MS44NTUzMzkwNTkzMjc0IiBpZD0iZmNfMCIgY2xhc3M9InBvbHkiLz48cG9seWdvbiBzdHlsZT0iZmlsbDogcmdiKDE0MCwgMTQwLCAxNDApOyBzdHJva2U6IGJsYWNrOyBzdHJva2Utd2lkdGg6IDAuODc7IG9wYWNpdHk6IDAuNzE7IiBwb2ludHM9IjY4OC43MTA2NzgxMTg2NTQ4LDMyOC44MjIzMzA0NzAzMzYzIDY5OC43MTA2NzgxMTg2NTQ4LDMyOC44MjIzMzA0NzAzMzYzIDczNC4wNjYwMTcxNzc5ODIxLDM2NC4xNzc2Njk1Mjk2NjM2NiA3MjQuMDY2MDE3MTc3OTgyMSwzNjQuMTc3NjY5NTI5NjYzNjYiIGlkPSJmY18xIiBjbGFzcz0icG9seSIvPjxwb2x5Z29uIHN0eWxlPSJmaWxsOiByZ2IoMTQwLCAxNDAsIDE0MCk7IHN0cm9rZTogYmxhY2s7IHN0cm9rZS13aWR0aDogMC44Nzsgb3BhY2l0eTogMC43MTsiIHBvaW50cz0iNzM2LjA2NjAxNzE3Nzk4MjEsMzQ0LjAyNTEyNjI2NTg0NzA2IDc0Ni4wNjYwMTcxNzc5ODIxLDM0NC4wMjUxMjYyNjU4NDcwNiA3NTEuMDE1NzY0NjQ2Mjg4LDM0OC45NzQ4NzM3MzQxNTI5IDc0MS4wMTU3NjQ2NDYyODgsMzQ4Ljk3NDg3MzczNDE1MjkiIGlkPSJmY18yIiBjbGFzcz0icG9seSIvPjxsaW5lIHN0eWxlPSJzdHJva2U6IGJsYWNrOyBzdHJva2Utd2lkdGg6IDAuNDM1OyBzdHJva2Utb3BhY2l0eTogMC43MTsgb3BhY2l0eTogMTsiIHkyPSIzODEuODU1MzM5MDU5MzI3NCIgeDI9IjY5OS43MTA2NzgxMTg2NTQ4IiB5MT0iMzkzIiB4MT0iNjYxIiBpZD0iZmNfMCIgY2xhc3M9ImxpbmUiLz48bGluZSBzdHlsZT0ic3Ryb2tlOiBibGFjazsgc3Ryb2tlLXdpZHRoOiAwLjQzNTsgc3Ryb2tlLW9wYWNpdHk6IDAuNzE7IG9wYWNpdHk6IDE7IiB5Mj0iMzExLjE0NDY2MDk0MDY3MjYiIHgyPSI2MjkiIHkxPSIzMDAiIHgxPSI1NzEiIGlkPSJmY18wIiBjbGFzcz0ibGluZSIvPjxsaW5lIHN0eWxlPSJzdHJva2U6IGJsYWNrOyBzdHJva2Utd2lkdGg6IDAuNDM1OyBzdHJva2Utb3BhY2l0eTogMC43MTsgb3BhY2l0eTogMTsiIHkyPSIzNjQuMTc3NjY5NTI5NjYzNyIgeDI9IjcyNC4wNjYwMTcxNzc5ODIxIiB5MT0iMzgxLjg1NTMzOTA1OTMyNzQiIHgxPSI3MDkuNzEwNjc4MTE4NjU0OCIgaWQ9ImZjXzEiIGNsYXNzPSJsaW5lIi8+PGxpbmUgc3R5bGU9InN0cm9rZTogYmxhY2s7IHN0cm9rZS13aWR0aDogMC40MzU7IHN0cm9rZS1vcGFjaXR5OiAwLjcxOyBvcGFjaXR5OiAxOyIgeTI9IjMyOC44MjIzMzA0NzAzMzYzIiB4Mj0iNjg4LjcxMDY3ODExODY1NDgiIHkxPSIzMTEuMTQ0NjYwOTQwNjcyNiIgeDE9IjYzOSIgaWQ9ImZjXzEiIGNsYXNzPSJsaW5lIi8+PGxpbmUgc3R5bGU9InN0cm9rZTogYmxhY2s7IHN0cm9rZS13aWR0aDogMC40MzU7IHN0cm9rZS1vcGFjaXR5OiAwLjcxOyBvcGFjaXR5OiAxOyIgeTI9IjM0OC45NzQ4NzM3MzQxNTI5IiB4Mj0iNzQxLjAxNTc2NDY0NjI4OCIgeTE9IjM2NC4xNzc2Njk1Mjk2NjM3IiB4MT0iNzM0LjA2NjAxNzE3Nzk4MjEiIGlkPSJmY18yIiBjbGFzcz0ibGluZSIvPjxsaW5lIHN0eWxlPSJzdHJva2U6IGJsYWNrOyBzdHJva2Utd2lkdGg6IDAuNDM1OyBzdHJva2Utb3BhY2l0eTogMC43MTsgb3BhY2l0eTogMTsiIHkyPSIzNDQuMDI1MTI2MjY1ODQ3MDYiIHgyPSI3MzYuMDY2MDE3MTc3OTgyMSIgeTE9IjMyOC44MjIzMzA0NzAzMzYzIiB4MT0iNjk4LjcxMDY3ODExODY1NDgiIGlkPSJmY18yIiBjbGFzcz0ibGluZSIvPjx0ZXh0IHN0eWxlPSJmb250LXNpemU6IDE2cHg7IG9wYWNpdHk6IDE7IiB5PSI0MTUuNSIgeD0iMzIyLjUiIGZvbnQtZmFtaWx5PSJzYW5zLXNlcmlmIiBkeT0iLjM1ZW0iIGNsYXNzPSJ0ZXh0Ii8+PHRleHQgc3R5bGU9ImZvbnQtc2l6ZTogMTZweDsgb3BhY2l0eTogMTsiIHk9IjQxNS41IiB4PSIzOTUuNSIgZm9udC1mYW1pbHk9InNhbnMtc2VyaWYiIGR5PSIuMzVlbSIgY2xhc3M9InRleHQiLz48dGV4dCBzdHlsZT0iZm9udC1zaXplOiAxNnB4OyBvcGFjaXR5OiAxOyIgeT0iNDE1LjUiIHg9IjQ2OS43NSIgZm9udC1mYW1pbHk9InNhbnMtc2VyaWYiIGR5PSIuMzVlbSIgY2xhc3M9InRleHQiLz48dGV4dCBzdHlsZT0iZm9udC1zaXplOiAxNnB4OyBvcGFjaXR5OiAxOyIgeT0iNDE1LjUiIHg9IjUyOC4yNSIgZm9udC1mYW1pbHk9InNhbnMtc2VyaWYiIGR5PSIuMzVlbSIgY2xhc3M9InRleHQiLz48dGV4dCBzdHlsZT0iZm9udC1zaXplOiAxNnB4OyBvcGFjaXR5OiAxOyIgeT0iNDE1LjUiIHg9IjU5Ni4yNSIgZm9udC1mYW1pbHk9InNhbnMtc2VyaWYiIGR5PSIuMzVlbSIgY2xhc3M9InRleHQiLz48dGV4dCBzdHlsZT0iZm9udC1zaXplOiAxNnB4OyBvcGFjaXR5OiAxOyIgeT0iNDE1LjUiIHg9IjY0Ny42Nzc2Njk1Mjk2NjM3IiBmb250LWZhbWlseT0ic2Fucy1zZXJpZiIgZHk9Ii4zNWVtIiBjbGFzcz0idGV4dCIvPjx0ZXh0IHN0eWxlPSJmb250LXNpemU6IDE2cHg7IiB5PSIyNjIuNSIgeD0iMTc1IiBmb250LWZhbWlseT0ic2Fucy1zZXJpZiIgZHk9Ii0wLjNlbSIgY2xhc3M9ImluZm8iLz48dGV4dCBzdHlsZT0iZm9udC1zaXplOiAxNnB4OyIgeT0iMzA3LjUiIHg9IjMzOCIgZm9udC1mYW1pbHk9InNhbnMtc2VyaWYiIGR5PSItMC4zZW0iIGNsYXNzPSJpbmZvIi8+PHRleHQgc3R5bGU9ImZvbnQtc2l6ZTogMTZweDsiIHk9IjI5Ny41IiB4PSI0MDEiIGZvbnQtZmFtaWx5PSJzYW5zLXNlcmlmIiBkeT0iLTAuM2VtIiBjbGFzcz0iaW5mbyIvPjx0ZXh0IHN0eWxlPSJmb250LXNpemU6IDE2cHg7IiB5PSIzMDQiIHg9IjQ3MyIgZm9udC1mYW1pbHk9InNhbnMtc2VyaWYiIGR5PSItMC4zZW0iIGNsYXNzPSJpbmZvIi8+PHRleHQgc3R5bGU9ImZvbnQtc2l6ZTogMTZweDsiIHk9IjI4MiIgeD0iNTA5IiBmb250LWZhbWlseT0ic2Fucy1zZXJpZiIgZHk9Ii0wLjNlbSIgY2xhc3M9ImluZm8iLz48dGV4dCBzdHlsZT0iZm9udC1zaXplOiAxNnB4OyIgeT0iMjg1IiB4PSI1NjgiIGZvbnQtZmFtaWx5PSJzYW5zLXNlcmlmIiBkeT0iLTAuM2VtIiBjbGFzcz0iaW5mbyIvPjx0ZXh0IHN0eWxlPSJmb250LXNpemU6IDE2cHg7IiB5PSIyOTYuMTQ0NjYwOTQwNjcyNiIgeD0iNjI5IiBmb250LWZhbWlseT0ic2Fucy1zZXJpZiIgZHk9Ii0wLjNlbSIgY2xhc3M9ImluZm8iLz48dGV4dCBzdHlsZT0iZm9udC1zaXplOiAxNnB4OyIgeT0iMzEzLjgyMjMzMDQ3MDMzNjMiIHg9IjY4OC43MTA2NzgxMTg2NTQ4IiBmb250LWZhbWlseT0ic2Fucy1zZXJpZiIgZHk9Ii0wLjNlbSIgY2xhc3M9ImluZm8iLz48dGV4dCBzdHlsZT0iZm9udC1zaXplOiAxNnB4OyIgeT0iMzI5LjAyNTEyNjI2NTg0NzA2IiB4PSI3MzYuMDY2MDE3MTc3OTgyMSIgZm9udC1mYW1pbHk9InNhbnMtc2VyaWYiIGR5PSItMC4zZW0iIGNsYXNzPSJpbmZvIi8+PC9nPjwvc3ZnPg==;shadow=0;clipPath=inset(31.25% 11% 43.18% 45%);" parent="1" vertex="1">
          <mxGeometry x="167" y="400" width="633" height="215.79545454545456" as="geometry" />
        </mxCell>
        <mxCell id="o0g2hCr98uLLnjF9Gi6M-3" value="C1&lt;br&gt;4@120x120" style="text;html=1;strokeColor=none;fillColor=none;align=center;verticalAlign=middle;whiteSpace=wrap;rounded=0;fontSize=11;" parent="1" vertex="1">
          <mxGeometry x="224.50624574153986" y="402.90416263310743" width="57.50624574153985" height="29.041626331074532" as="geometry" />
        </mxCell>
        <mxCell id="o0g2hCr98uLLnjF9Gi6M-4" value="P2&lt;br&gt;4@30x30" style="text;html=1;strokeColor=none;fillColor=none;align=center;verticalAlign=middle;whiteSpace=wrap;rounded=0;fontSize=11;" parent="1" vertex="1">
          <mxGeometry x="344.3095934590052" y="431.945788964182" width="57.50624574153985" height="29.041626331074532" as="geometry" />
        </mxCell>
        <mxCell id="o0g2hCr98uLLnjF9Gi6M-5" value="P4&lt;br&gt;8@13x13" style="text;html=1;strokeColor=none;fillColor=none;align=center;verticalAlign=middle;whiteSpace=wrap;rounded=0;fontSize=11;" parent="1" vertex="1">
          <mxGeometry x="474.99654099477624" y="431.945788964182" width="57.50624574153985" height="29.041626331074532" as="geometry" />
        </mxCell>
        <mxCell id="o0g2hCr98uLLnjF9Gi6M-6" value="C3&lt;br&gt;8@26x26" style="text;html=1;strokeColor=none;fillColor=none;align=center;verticalAlign=middle;whiteSpace=wrap;rounded=0;fontSize=11;" parent="1" vertex="1">
          <mxGeometry x="411.8971701112877" y="431.945788964182" width="57.50624574153985" height="29.041626331074532" as="geometry" />
        </mxCell>
        <mxCell id="o0g2hCr98uLLnjF9Gi6M-7" value="C5&lt;br&gt;16@9x9" style="text;html=1;strokeColor=none;fillColor=none;align=center;verticalAlign=middle;whiteSpace=wrap;rounded=0;fontSize=11;" parent="1" vertex="1">
          <mxGeometry x="527.4852873041108" y="431.945788964182" width="57.50624574153985" height="29.041626331074532" as="geometry" />
        </mxCell>
        <mxCell id="o0g2hCr98uLLnjF9Gi6M-8" value="P6&lt;br&gt;16@3x3" style="text;html=1;strokeColor=none;fillColor=none;align=center;verticalAlign=middle;whiteSpace=wrap;rounded=0;fontSize=11;" parent="1" vertex="1">
          <mxGeometry x="584.987783329548" y="431.945788964182" width="57.50624574153985" height="29.041626331074532" as="geometry" />
        </mxCell>
        <mxCell id="o0g2hCr98uLLnjF9Gi6M-11" value="F7&lt;br&gt;100" style="text;html=1;strokeColor=none;fillColor=none;align=center;verticalAlign=middle;whiteSpace=wrap;rounded=0;fontSize=11;" parent="1" vertex="1">
          <mxGeometry x="642.4940290710879" y="446.455788964182" width="57.50624574153985" height="29.041626331074532" as="geometry" />
        </mxCell>
        <mxCell id="o0g2hCr98uLLnjF9Gi6M-12" value="F8&lt;br&gt;50" style="text;html=1;strokeColor=none;fillColor=none;align=center;verticalAlign=middle;whiteSpace=wrap;rounded=0;fontSize=11;" parent="1" vertex="1">
          <mxGeometry x="699.9962116738587" y="460.0027105517909" width="57.50624574153985" height="29.041626331074532" as="geometry" />
        </mxCell>
        <mxCell id="o0g2hCr98uLLnjF9Gi6M-13" value="Output&lt;br&gt;7" style="text;html=1;strokeColor=none;fillColor=none;align=center;verticalAlign=middle;whiteSpace=wrap;rounded=0;fontSize=11;" parent="1" vertex="1">
          <mxGeometry x="749.9980831251419" y="467.76379477250725" width="57.50624574153985" height="29.041626331074532" as="geometry" />
        </mxCell>
        <mxCell id="EFZvTNyPA0uwFmdlpsj--4" value="5x5&lt;br&gt;Convolutions" style="text;html=1;strokeColor=none;fillColor=none;align=center;verticalAlign=middle;whiteSpace=wrap;rounded=0;" parent="1" vertex="1">
          <mxGeometry x="401.82000000000005" y="593" width="60" height="30" as="geometry" />
        </mxCell>
        <mxCell id="EFZvTNyPA0uwFmdlpsj--3" value="4x4&lt;br&gt;Ave-Pool" style="text;html=1;strokeColor=none;fillColor=none;align=center;verticalAlign=middle;whiteSpace=wrap;rounded=0;" parent="1" vertex="1">
          <mxGeometry x="320" y="593" width="60" height="30" as="geometry" />
        </mxCell>
        <mxCell id="EFZvTNyPA0uwFmdlpsj--18" value="2x2&lt;br&gt;Ave-Pool" style="text;html=1;strokeColor=none;fillColor=none;align=center;verticalAlign=middle;whiteSpace=wrap;rounded=0;" parent="1" vertex="1">
          <mxGeometry x="490" y="593" width="60" height="30" as="geometry" />
        </mxCell>
        <mxCell id="EFZvTNyPA0uwFmdlpsj--19" value="5x5&lt;br&gt;Convolutions" style="text;html=1;strokeColor=none;fillColor=none;align=center;verticalAlign=middle;whiteSpace=wrap;rounded=0;" parent="1" vertex="1">
          <mxGeometry x="564.75" y="593" width="60" height="30" as="geometry" />
        </mxCell>
        <mxCell id="EFZvTNyPA0uwFmdlpsj--20" value="Full&lt;br&gt;Connections" style="text;html=1;strokeColor=none;fillColor=none;align=center;verticalAlign=middle;whiteSpace=wrap;rounded=0;" parent="1" vertex="1">
          <mxGeometry x="705.25" y="593" width="100" height="30" as="geometry" />
        </mxCell>
        <mxCell id="EFZvTNyPA0uwFmdlpsj--21" value="" style="endArrow=none;html=1;rounded=0;" parent="1" edge="1">
          <mxGeometry width="50" height="50" relative="1" as="geometry">
            <mxPoint x="167" y="590" as="sourcePoint" />
            <mxPoint x="167" y="555" as="targetPoint" />
          </mxGeometry>
        </mxCell>
        <mxCell id="EFZvTNyPA0uwFmdlpsj--22" value="" style="endArrow=none;html=1;rounded=0;entryX=0.288;entryY=0.51;entryDx=0;entryDy=0;entryPerimeter=0;" parent="1" target="o0g2hCr98uLLnjF9Gi6M-9" edge="1">
          <mxGeometry width="50" height="50" relative="1" as="geometry">
            <mxPoint x="350" y="590" as="sourcePoint" />
            <mxPoint x="349.58" y="546" as="targetPoint" />
          </mxGeometry>
        </mxCell>
        <mxCell id="EFZvTNyPA0uwFmdlpsj--23" value="" style="endArrow=none;html=1;rounded=0;" parent="1" edge="1">
          <mxGeometry width="50" height="50" relative="1" as="geometry">
            <mxPoint x="430" y="590" as="sourcePoint" />
            <mxPoint x="430" y="530" as="targetPoint" />
          </mxGeometry>
        </mxCell>
        <mxCell id="EFZvTNyPA0uwFmdlpsj--24" value="" style="endArrow=none;html=1;rounded=0;" parent="1" edge="1">
          <mxGeometry width="50" height="50" relative="1" as="geometry">
            <mxPoint x="520" y="590" as="sourcePoint" />
            <mxPoint x="520" y="541" as="targetPoint" />
          </mxGeometry>
        </mxCell>
        <mxCell id="EFZvTNyPA0uwFmdlpsj--27" value="" style="endArrow=none;html=1;rounded=0;" parent="1" edge="1">
          <mxGeometry width="50" height="50" relative="1" as="geometry">
            <mxPoint x="595" y="590" as="sourcePoint" />
            <mxPoint x="595" y="549" as="targetPoint" />
          </mxGeometry>
        </mxCell>
        <mxCell id="EFZvTNyPA0uwFmdlpsj--28" value="3x3&lt;br&gt;Ave-Pool" style="text;html=1;strokeColor=none;fillColor=none;align=center;verticalAlign=middle;whiteSpace=wrap;rounded=0;" parent="1" vertex="1">
          <mxGeometry x="641.25" y="593" width="60" height="30" as="geometry" />
        </mxCell>
        <mxCell id="EFZvTNyPA0uwFmdlpsj--29" value="" style="endArrow=none;html=1;rounded=0;" parent="1" edge="1">
          <mxGeometry width="50" height="50" relative="1" as="geometry">
            <mxPoint x="670" y="590" as="sourcePoint" />
            <mxPoint x="670" y="564" as="targetPoint" />
          </mxGeometry>
        </mxCell>
        <mxCell id="EFZvTNyPA0uwFmdlpsj--33" value="" style="endArrow=none;html=1;rounded=0;" parent="1" edge="1">
          <mxGeometry width="50" height="50" relative="1" as="geometry">
            <mxPoint x="729" y="590" as="sourcePoint" />
            <mxPoint x="729" y="555" as="targetPoint" />
          </mxGeometry>
        </mxCell>
        <mxCell id="EFZvTNyPA0uwFmdlpsj--34" value="" style="endArrow=none;html=1;rounded=0;" parent="1" edge="1">
          <mxGeometry width="50" height="50" relative="1" as="geometry">
            <mxPoint x="755" y="590" as="sourcePoint" />
            <mxPoint x="755" y="545" as="targetPoint" />
          </mxGeometry>
        </mxCell>
        <mxCell id="EFZvTNyPA0uwFmdlpsj--35" value="" style="endArrow=none;html=1;rounded=0;" parent="1" edge="1">
          <mxGeometry width="50" height="50" relative="1" as="geometry">
            <mxPoint x="780" y="590" as="sourcePoint" />
            <mxPoint x="780" y="521" as="targetPoint" />
          </mxGeometry>
        </mxCell>
      </root>
    </mxGraphModel>
  </diagram>
  <diagram id="WxXP8-EHZ_8-fbbXWgdW" name="Page-2">
    <mxGraphModel dx="891" dy="576" grid="1" gridSize="10" guides="1" tooltips="1" connect="1" arrows="1" fold="1" page="1" pageScale="1" pageWidth="827" pageHeight="1169" math="0" shadow="0">
      <root>
        <mxCell id="0" />
        <mxCell id="1" parent="0" />
        <mxCell id="dBPoV5ESijAhLZuhFHeR-3" value="" style="shape=image;verticalLabelPosition=bottom;labelBackgroundColor=default;verticalAlign=top;aspect=fixed;imageAspect=0;image=data:image/png,iVBORw0KGgoAAAANSUhEUgAAA94AAAC4AQAAAAA9UwlcAAAAB3RJTUUH5wsUCDcgykShBwAADI9JREFUeJztm03y3KYSwFFpoSVH4CgcDbmy8DF8lCiVhZc5QnB54aWVeovoVRQRAf3Fh2Zkx2XXqzcs7BkJ+gdN0zTN/JV6lVd5lVd5lVf5fy3W/0C4W38gPGw/jj2E/cfBx3C84D8CHn4ofP4fgw9irrT/zvBJzNW/cBQMd18w+dzjs/0dR2GW3tMB5UwXKrCdZoJow/PlcupJ7iDD39j4hGfnrs8PY3iXKjlR1XUGdnYUkS48p5/DkjuIWN0hz1kwIZVUKVBV0xWtY80Zmodni3WMVYRhTNzAJQ2a8HOGb3k0Ht7a+MyrqqSOLiT4icnmYbECNTewaWg2QNmzUkEFI3+Mo2y7lOsuD+EulOox3MClxw7hByg162nij9E8UHeWupTrelWXEaq6BWZG0C03yE9D4CpCTVpqbJQmDl0yF/AJqp6vBpQ883A9DifyBgm33FGD2shqOLg5dMnKCqLoA6SvMHVicri3Y+rSKOGOO1rI1qg50aV6PrGYANI3mLpQDNfjcBq46KiTcAOaAzUdMAqpUSo2P5pO/WiUvHLXPQ3nxEg4fva1bISP/BSna1FVcQg/QE+B7NYy3DRwVNNay7YBJZIwrOBrOLSJcIuShU+8hGuWPRayEY5D2blCE36TGxDwgK8InpXA8EPKngrZCLdUldo1u2oXnloPD+FC9lTIRrjjkWC7ZvPpwheCr3IGeJ0fUrYuZFtoLkZyVnDrbXh6NDZwFnhI2YaVkKsuSjqkVKG/pV/Dp0dwKRvbXcCXvCvp0HqZe3B4SLreRyHbxemWcA968+AqHJr8fAUPD+Boe1TjmETdVM1hZYbDcGOFPcto4YuE70MJzxY85iHiTna+iS9XhvvUeGvgqRrEcq4HnwV8wc6WcJsnN9v1oTJ8R93QYt9hhhgeW65TFmN7cCXgwOQIYMN5TC0ngur0KlbZJvJih+LdCOCnrladBeoO/CC4SZ/HICOADXoYKBrbFMDX3NEt9wOteYS+g67jS5O708Lx1B/jcQsRagMf2AqVWZMYnb6njhoamFTcmNtGtdjctg35BXyxBK3go4DHM5dJ8CX3CmUDXDMc/juyLT2Ge4Drh/BYbILPWSeHy7IFfMttPFQA+Nhs6B349BTuElzBHIUuHMeZ4dDR5/DxKfwUWMJnhpsK7hJc3YCvUGkD5fKh4G8BH7KfQSVk6BXcSjj3X2W5BF9tftmFb6LlmNZXXqI2wPpOZg7wvYQ7glehzMjrfGP4ToOiiRDwKa2v3C7NzQ6VKjioRsCrUGZi+M5qRz/Zh2fHsTOcnAE8OG7CNcOPEj4wfCrh0asgXPjgEq4JvgN8bOCmheeNAkycVn4J9x24S7OMcEPb+3ETjlLyWTz8pw+PTqNVewPf8Sksh6kDp12N4Da1OxEfu/AUkjD8KMNWS3CxIV7DZ3gTLAvMrX7l+GB1BE9rSsAdh60AD+nbLfhSwzWexX/CTEwB1/nMgMS9hDvweDfhnuE0/3MydjCRFB+w2k00SEPGvHXgS/xGBxj2QpWTkXAUmLafuB2NtEGFheE2CjHkunsj9ww3N+EYaiB854AgvKngGqZLwA3DV4brB3AtjidTDR8YLrYkG5tMFKnttoL/mVq5L4APAj618KMDh9hpF3aK8D0aaQfeuFeG6xoOEqbcDwFfEB6Nz1XwT7Hl8G/hG8O3oZjzGUO08/OOMrPiQoQfPXjrXuWc1/AVJm7Kpw4Bx6NYNK8dMSOs0A58h/FVZ2QI6AtrnyAF4hnua/iQbTokuEd4+udjC8dtr4Vv8aa0B18ArjvwfG4dMnwBeD6cfSncxfMUBYUTWNSsyKr68D+SYIaH1PaXK7irswPx3e+/pwNXCdcMj+bdwKMz+Qt6QPA5tv0V4P4WPKTgNOyF2k3OMq6ZM3fhqXwQc54U9h7gCwPWh/DUvQJuGR5ywvEC/gu+GcD5vAcns6AaOUl2DV8LeOomJRgl3JXwN98E7gV8ViDBQ0wsDlqhgB9DAdegdlXM+RfAx6zxDbo/whzOChmHHHkJNwkevh5+SoGl4iJ8AiVACzj1277aAT6XcN+HTx24yikSD3ANSoCRW8qw9AzuhL9NcNfCG2sfO/CoYpc0npppcKSLAhG4+KGZyJcleAp8empvUpASbhi+BNiiPAY7ZO0wECPgG8NtTk56qm9uwi3DPwTYPTxmch0rV1zqVPAlxfwhe/2vhn9E+Mq+3GODJMJewVMykuH2X8A3vlJbC7jDZn9U8DTv69fAFcMPiD3GBs4H6BbusqPZSvh2C44j/4RZxQ0zDhV8uICDi91vwYc+/DPe3Gz5dNTAxy48+5bxAt6sc/UUbjKtgusWHv3QAMuyC7d1JDM9hdvcFuHZ2fJKi3ByMrD/3IXrPvy3JBHhawu31Owv4V7nEXzTMfBucg03l3B/Cd+UWGmpJU7IPIFx4hmzSF00cB5BzMPJK9gFkrcE3yRcskXc/hBuargYwVbC5xKOhyIJP+xNOJ6Wtw58TyJi7loV8AHU7hUv0oniOjDJDtz14XhqLuGLxXEI+AJBi40Wpv8UcK/4nrWFT1sL367hqzKfA6emRZI5pPuHlEkT8EWxCegG/jmG4BfwVu0r1KngELcubJIe4LMq7K+Cp67ehvs+/CzvQl6A0qgJTisPZUc4uY278LmGC6+XFyCUDfTcwHeEs9v4iYnXcDSyS/jGcPxNjISP3wKur+A7w49ncHEX/KYDd1fwKWMewvE2Q8KHEu6w6lzAc4UmLYLw8Qvgqg+fcuwIcJEa5LTIYzhq4Rpu8Gc3Pbi40i/gxxX8EHDyI9dwiyGcr+G6uNJHuKOW7QWPhLs7cEpEZ7i6gPs7cCPULjauSzhKKODoaQV8LeHzQ/hwEw7JP84JusC+TMJRpU5eZ17Az/+3Z3C4sQL4wnA0rUPAUbCjVTT24HNuyZoq4YY/Kkoacq4Ae4W7OMLxyJvhi6LNuAN3CY47Vd5Da/jWgQ8MDxK+TZyQt5mqL+Gxs7xNCl1vDF9ZAsFHNIYKvmMGqYAvXfhQwVnzK8MXlkBznnFzC+dlsd2Be4ZvYsHSFo2bGozcI/xzF67ocmgFuOnBYSQxG4ELdmM/uZASPMBhzmlX+yThWzwmHwyP2je5rb0LFztEHs1vDIcBbS38nOjNzUrvGQ432V5TFvUGPG36NmWU4tkvBtaHLuEq8GXg+/zRplM5pwFoafrpCs4GFHNa1aY/Bbg2WVQNd/z9ff7o0r2IBwmHopvsZaRzRgWfGI43p7zpDxlud76XggMLnmPi/+8pzD7hC+jugBStoVTqNRxuTqtNH+BmY+jI8M3OqV2Gx7qn2ufU0OSfCiqIF9J2OVzDXYp2q1sggE8rPxwYDtdAECtGu1xHgGuCJ5kOb2Va+Mzw6rZ3COTChx48/x50wPxNNK1Fwr3+kN65eJz4LwsTcCXgs+ILp+fwVX+KHcbMVVg0GBzAD5N/e+DSq9D8BnIst6SlgasGjoYGfh9MK7U2dKvDPw9d8+2bDU0yin6kcwXH+gNboyd42vyO2OCdT61tH27hY/2716GEn9+ckXDxtyQtHCTqbGspZKX7rB68Cl5PYU0k8DNHHKI+R/4VfKMfIwZ5bx2T5jW8CmRS/irDRQBGm76wz0v4ms/ob/Ps0/FRwk0lVsDnR3Cq6EjteJ4n4Wnf+y1NmTiqi+HirrxcwG0Bx1otHKNAXcPTBEi4GC5WIDVW8CLuFYv7Ci5CHUomrAVcMxwrVGyC62fwUMJFnErJ4xKO3Vsou9z8yFvARQKaX17BlYDjZ0/wIeeAaSA4LS18Abh6AsddTeRUQa0Ox+j4+DgrIcuhDq7hDuUJtybgqG5xLw5wi2O0AEhww7Jsd8r7cOHWBNwXcLK4hdZd/DBjbZzpnSq3fz0k4aTJjV8K+AKPwE9Zhmsco8b6Ll9OBJ6s1rOXcCNsCF5yb/mq0+cHhuETYiasb+EH7XJt1M5VwrdiGoEo4PSXNQuOjuBjqIXHyAsDDgUzsKi6IHwSnkrAhZMBrVnyU5bgUfanxnOnbPGMgjoDp7kcISYKRR8de0RLoRWNDm08yf61M7KROu/aXSU/XrLMhR0HE1miaXqeZukz/rBzrl8raTO2p3VWI8S55YIU8M7fEsdJfwtn8/4fnRqycNvtnZFrn9ZMC+/2+7MfIRBq11GF6U25GmWfRQ75BtzwW9v47VtlKPrszmBK8B7Dx2fD/cJyOgc5OY/h37qczsHJvnxXuC7twnRt9DsV3W6D369M/eX7fcq3tudXeZVXeZVXeZVXeZVXeZVXeZVXeVT+AQHFTv1IaYRWAAAAAElFTkSuQmCC;" parent="1" vertex="1">
          <mxGeometry x="20" y="300" width="645.65" height="120" as="geometry" />
        </mxCell>
        <mxCell id="dBPoV5ESijAhLZuhFHeR-4" value="" style="shape=image;verticalLabelPosition=bottom;labelBackgroundColor=default;verticalAlign=top;aspect=fixed;imageAspect=0;image=data:image/png,iVBORw0KGgoAAAANSUhEUgAAA94AAAC4CAAAAAAwQ2stAAAAB3RJTUUH5wsUCDcgykShBwAAIABJREFUeJzsve3SHKmy7/cHCoqWRhqNt+3wuRVH+NO5/+twOML7zCxppKKgAX/gLXmp6pbWWjviRJiIGT3dXUVRwA+SJDNh/x1DMloCAD70X0fbfy4fw3j/RYop8wicPH8lP+h9ceWJCCAiOgAArz/I4cL06HQVPL0yfSOWBfHAVv5+AmHKNiU25AYPeGuYfqSPFgDrr9hrEV1fxPQbTS5YH1l78sfhYc5jeh/kSoxGs+kXYB+L091UC+QBmCcABrktrzRTaQIAbzgDJDY5lSsAsO0VF8UwpYhTOkvpGOSQb6m7r/NdiGose0pH/07jA50/hFoUMbYyAqjNOHQg1v1Ico35XiE4Wz6YQuJqi7BlhcxfATiGz1PToeHp878CpKfXpJf5/ytTqZ+Nzx34358Eadzt+XP3Ms0y3VB28Xt5M+kWP/7/6b8gral/J+lAGQEmuv9nSqXov14dP5lYnUTKkLVp9V/18L4k5O+f41sIv7URd+a7jev/Vr7//QPwIIVwAOy3y4t5JGWKl5f9q0u1So/rn/o8FomHfsz+n51uif9CvBvfGa+or2v6X/G4+mpx/KGKvQHYbMX9nY5J6N4R0Q0OO32f/ynnb1bqgEohspNkl7Iji4z8/YuPvv6p5PivkI3W/LPS+oTvfxfdtfQ3r/xPJsFfz94/usX3+0tvf1UxLMJFgJWfL+gelt7XqXu0BxCIrE/qru9whG7wAPhHXxiXGtot58hutbSfkU7+e/8+0nVFdN2vLlgfXXvqVGN+/ALAiwHoXOkxxpuCL/9DZE5MPYxFQDMqhUhRC+cA7KdbtBvNh7Kekxm/uM1gSLUbZDKfqW6f70xMU50wAIiYi1h6SeJ79Y4od40/uvp+Hjxf0z94qZ9av/J66Q3dV+FMGF16N7oX6pua6HL+iu5FEpfDHsOTMSZkTsDqxTu6Y983sfiUWt+Tv9Oj6HMZY4z80N6Zl05DOjRYymnokwGTLmRnZHTcxx7Rfw50sCp0X3Z7Ux9J0/28aNc9Y0F3BMN5rrNjYIy+JKE7vdF+JxunLMaM62vOJTxfDuIj3dgASAWsllWjBmp4Ys6LLasy9xDVP7VLEYsfHUztbd6Va+iD39U+Xz4XgNa6zTcCYXj7C7pvhfOjSjLR9MPADd2tV89FZVQgSPUQhvFlmLs7TD0djBZ0N2X5YmRsna5lIsrr0+v3k0UHORQtPW6YDIb5e0i9DBnaoJ/ofhSp9wnAdLKCAepqtlX1C6l3rcgI9N0K3eWF/aL1hyGsG6xlmr+v5ISaRT85kkFsvPOM7mKmLGmiu+lLFvP3LHrT3Gte6wVEV2i7rM7F/O1gGkTOy3JN6z0rut2NDuAylSlcAAjd21/Rnfr68La1GspgGE1fxrfofvUCN9s4Hd3kyb79vaLbl7+WWZcvKd1sVZQdDIoxRp8cLjN9W3lR528XLAjdKQc6kVO6G7X3dBdxaEjekvsa3Xmgcqs8r+mu8/eFBNkSzZe+WTzH66S8lQYWdLcpiY6sjFEZbZVD/mvf933XS+0kfdlla5t5/nYAyUyK9ksY/u3SBRvuaqJPb5cqIZWSzt/dphilG9uqhevoRISdAAD21U6WHD/cy15huU4f1t1kFvVEKQbMdAP+WicyjtkXdAP7qYYnh9X9OdN4vXAcVhOufMuwbURjtfXzd0d31fbUh0dgXjtKYLXR701p+vYmLEIbYD/3xQp0SNNCK0kk0bxS3kcg97rYfWvtJ3qZdiFKl7ub6ze+u8rrp+XtmaWPWry69hrbKPDSmZMupAxe+3KIEk3n4RbdSBuRm63v1k2E42Rmv5XJl3xf0l3S40mGjzp/91veXbnXk8+FwGQnWXooj6TZRwDhhZYzDKv/EwutWsd3LiD52fc/Xae+7S/pBnaXy9a/3q1QsEgB/V5OzY304xiRx9iCzEA3oLqeuGQyP2Xk29tULTbzwVNt+yTmnfsrJfe1GuUF3wHIk2t7xFLkky7E2kU6vgPQmnkUurfS5tNibMU3ybOJJi/5vviZCO28wOMa37XKbtYcrYj9YuUl3cAmTG2TMNXoXPgL2dLJRUeyGNfKd3SDRYD/HN8n1Um05098+/rTk9Ef7tdxXbqhO09SPPSiwq+kYuLVd6ZOwx+ROyWRYnt4uptv6O74jkCwqeSEbgCA8NAmRpy7k3cTOLuk+7jffI/ASHfM3XJc0ia+yyAo+wWry7nNzxId373ifriULoIpTZd8p3732riAb6VG97PwTWrsui9m9T0A1q3i3+lnTFOeyH5PSX25r5aODuOOZx5+w6zeoon2iJ/m+6QjW+wvolCEiv4zX9YmgNuHLdK6fye+8wf+ot6vhNz9bAacpDPxzjqDvVKZYVTSzT+3Pyvf0aC0T6O7DQPQh/Bw7BcUPADe2RQe6M53qEkrJ12IrZdKOqLmt16WkfLdV/8l32HQjF7wjRu6pWwr3kZ347urlou+WNT3kYExUIVrveTCnDrdRzrDwoxquHONd62HUlW2adEDsQqZytF/vuc7v1mo1U6r285101bCsRSsk0be6qojilezV1fod/j2i+dT8+zambjMjy0T2RnHBn3Tmm+16vf5v4AbuiVCZCqCifvp+zK9MA6LbdxtrHkBqJXuhod2kVvtvFx09u7rYiu1uvDnpC/tEfzl3F15oXQD+7lQYi35Jup7zshFtPOLO61I4/sNM6rNAFNz7dWQKw+Flu4UHKa4VfiuWz4hx4ZIfF+UM9S+9VITm28opQLc0E8kXC5TfLEG71vhuhqXfF+ajjA8V+MLLWXmO9G9M/LwE/FJO+u7xDF7ORCECAREnHVrn3ebGi4Iv/2qTXAEblffaZXRD9AO8OIdF4PKxM/RXSSif4lNLH89U/R0A/vKjmAhfpBexTstHQdaD6dbixPqhe+FGdV07bbIotINFllGT9drDsDU6qR8bwuwbk0Uwzx3jDsnqzQqwFMeZVhlwt8MfgZ61A6+ldZ8d3qCBd/pSaUw+wknCd05qyi/RTBiwfP+fMriEvCQxZq8mJfdP+XD5aj7ale7ZPtKey6Lz51H7sP+rZp/0+J0STeki0Bc7ef/TLpbetS+NbzMfl52dbeQSNYGZa1RIhv/GNNkRuUW36aKcLST7CRDFvOkU76zEH53iG7B90rR+nN8V7rt9fpjMIcRvR1auOXbA2bm+06wGx9OOz8diiL8Uy/XB22s3M+e7vQLi5++xR0nDt1f/0a6ql1vAYCHVjFpQiJvKsMVR3d8v8WehgFQjN+c8OW2f7WDQ90Oo4vQCIi3LFYv06rnNceEq751a1cb3ajJWg91hO/X2S7KMA65vLN2A3q6JyMmKEAwZYmVapqzOef81bA/JY7Q9U9CN4IfeYspAYCrcsxANzjnTEy35gx8AHDEYd5iw793yROm019F331pkED+3PM/lG6AsU8M2NnjX+Zj4KEYYwzN4baXIxhwJ4FeS1Dv+nLone+lN8h3nDNuhtbrn1hJ3SKUARBvOQLW7tSnO7ovDFq7Iq2eZJ6DaHslyFxMPW+mSaDaGIAuPMCoexreRlkIPA4FC7LV8UuO2xwizcJlUiF0A2HQMJBypF1kjpluAOBhPX9HHzwA59SDA/WSmz1TAE3cOQFga5Nbprv8HN6wdGS7Qx4/afAFhk/fInbELN+9rc6W681kjySqjXa4w5smvntiU53kV4yz88S7iRFjO+lEuvNx000uZdB4+Stjy5qSJwCW+f4XyQudPPtqy2tOEXoIwXFdEa/UuHdpXi5tN6VaJ2UBPA6VLcT+OboH+7OUcp/t+SbwlAmTL+lOfM/WjJlui3CA8H27ZwrCWlV9d5NbqdG4nzCDdB74NFaW3/vQKolvsLR+mzrPvCCrSQGThjZVD+V7pLvM3wGjypXqOrkc+B7oXptlj4lFSCccMt0TGiXTC77v5u67cTA/p8+1X3a89mOrj+o+RKxVmgtXuXZ/R3fuNC/daX4y+bk+fmF4U5HVvZs4xSya08VL8E4Kyr3soN+FqjfrlyIPANEU+1MOSkQAPHgQ9blH9SNMJtcIAA4NhiAje7VnSnvQep+03rkfrOf7vJuFh+dCWlS+i04V2fIPDkkbMWRY1Q/dt7TX0veZ+1765nJTPbqeb9eKBAAIP8E34PPcPfDtqhX8Eo5pz7Ble003i/NzUqJ8X9Ad5+dNe6kXi7/FC9SX6uguH5YRf345rbaMfkV6oaLKa7ovoRi8FbL9OP3WxVFZUJ4XmDZtq5m0JA8QvpuXjvxrpnuzVgIGmsHJm/3FxebDC74fYNQv7IR7XxnBhGp8N7rBIgJchAOOoMugSsxT2qfVMhIs3umBk23IFd+RdfI5pTv59P8E395UybzjrtG94jsCcBflv5u7WSxywqhDb3xf0r38uremE1Lg+d67L77TZXnOmht30btl3m+1vJeT/mIr459cnPQWWKv05p52XXQQvj1OyZNXS6a8jiY8sObh3rVz4jt978ayBQAKHHmjz61i2YHcNPSgG76njE68scdEs2YRWbveSdF1W0lBELpTRXBHVFfP1Cm6GA3ei74b9ns0t3xzCcJ3pfsEILz/Ob6hGyHrfSIwGkQHi4tJ8uJeQ5HmbwBTBy9NUjtPP6is6GYAL+gE54Fkrfveu89JMyIz5k5cs0rzub17uUL3WDPLjcp/Du+qfc2eRPNgtR4kjxuzp8q3b4uUPJwRWYHwPYqshG8AtA8FBiQS9U8pHOp+0o6L7aSdLiLujIcv1TJ7ehumh0oUAO8rljpeSCchtnKlyze4gNyyW3F+K5I4vRW3LhQ8BbbIkT1rFcScYVZ//kpKVajSf/Gs7zYaAcfWZ/tKsS+V8deNO43QNGtKN2s/c5CwgL4Mhz3f78rZme7KnQFq7mcs8vr1Xm2bu/uutAbtNd430y/ZW5EOK2H3Qsq4ojtLfqn1RF1NsPgAhpUAD+xhAUCOlcEDBO130rXhMabOqt9aVpTU9joi+L6ClxoCAdKFS3uy8NIqfrFG7qSG3m1SQsiqsBNlwGtl3HO1qHw1vXXim/q/FroBgMXakLVBf2nd2IaGWuYmhdGxuzyqRWikEP7Ck29Sy3pBNxjAFadRP2MR1Sjf9t2hLtNNxyeRA0+b/YxQhkzmLI5EFbq9GKJKCLJX0d7gJd53+kVK1pLv6PpFy4tU40UX2TPd5nMpeyB5KNVQF+R9uzdn4NYOTLokub1Dd7Z/aYGcIosNkbb3PhgCAdJdd/7gJtuDl4nynenOeThP6IYs84qkYxCLS7pnobyO1ulu+lKl05Aa/gW+SzMoSwI+hcx3P3ZPEBMIRwuRPnXTkXgnJlvJOtPtBappAAPAFW8c17brB/C36QYD20jnE7/VavEAMxG6+G4BM9/RITWj7Kc0R0rDiKg7v/wiLtBF2skYt+SbRAt0i/28calF6N5K4YUbdEPlNVrnYrVbdnaBW1MKkYZg0oEBjL+2tcijBUvb1AAAQzY/FGKGaDAESnynAu3DcHcCwf58JOPKN0dHN6TMRct1KeDhoAa+Q7pmkht6vpssJl2Y3FVYPAerRGVfW6b2N9Rii5iNewB4o1Gas44vPExTdGwd+m26gbdiLuZnkZBelW69s7ZhYQDourYg9g/v0w2wTaAdQyBrQDBY5XaY7CPgYRd8zyMbs0nNSceaPH9JAGw6paTTwBkfL2tn7+o5otm8loZwpEu5vgYiMYfLOrWQY8M0upP3CIDmrFJ9joLNJpeKf07feJv5DoB7blRy8UAlwDvIrdLN+8GxlRYhOi0L3eWN+tEu8z128YjWyzq+i92O1sOQAAD/6AowpmoNW7GIAFflLauG+ICHA2xwIQ1KRHwqlUhEUNcswjsrtjoblEaq1NBWtHgv6HqEAeOKbv7aneVmOyyA0BES4Wa8W2JTcVuq5TQRAMR6ClvWc63DZ1AAOCTTOzElzH8dAGBLHUbg/Cm6P8hHbgapaLYArHelh0SYzDf1C1yObMdId7onWyEv8G5NZqboLi3tw7OaspKEKOm2Tfs6IFrlJIEj8U3prnxrDZmKXJ5pjEnDaqG78T3XtSMxmqJ3UrV34t0QVa4PQHRQe8Jjr2NRma2O1AyJ7zu8KcfVKo8rnb4W7f0RgDPaq15dW1bz8kVodLelrDtQRC4G8Ca5W2O+5Md9p1FvCt4VF5aL2NonSwKmFrYqP9/kO8KA6Up3eoPPReQ1JsLBu9zqKWBPCVy13O0DrvA+a30bwPqE98x3xCylyg10MExT9weOMe5BcDEZTUUgGRqehcSXaQf0Jd2ArdZY0VS+uxpY2wa4WdGTq2eJd2myW7ueZnjVerCxfXyGweiJVsJOV7+plyEciEwkupvoE50Un9iOB5qYdB4w2ff/0d7t78R3qPDWecp1cUw6I+XehiRdHdKokvHeGR5kIgwW8JTvW7yJUr0erhYy34IMcdHEeMN3BFNgACt4mwhCN2mCAw8yIFsyrlVRvPHt4LNuvLxE0Qx8rHX0zAG+fOGbbF2+xXcEjJMPrZNIWnQZtd0S32jNFc9bvq/xPuloamC94CvhMwIwnftyPniu5inAIdn+Ya/PaylUuAH7jDYWvl/GrtuZhr6mm5jwmcY3NYJdP2Dh919qJ+P9OqreXNaSKZUzDR3HxhYo60HeDFnLPJ97jjfRJVxbxxeA4hL4vZMiDI48KJMA4+ffQBbFWYHRAIBHt8rsy1X4blu8IbOguATHzvB4DCNGOArf5xpvEhi+yrfEr42rXTOhyQ0v+I5MpYm7DHHWSEK3UGWKsoMi+nsNPt3C7Te+XamaHcXC+I9091ZKa+Ce5S+aAgB3Agil2i44jwBOrvSnqi8muvyUsele2lTre7gV35d4u7AzFM+maMyF9WgEkrMAbdSN9gqBHbigG3RzNMJ4G3HCAM6/GOl2pjXu6G4vkvk26AJfXUE60dtEsf8OANa/PpxpKmx+Wr+KpHxf4N3RXax1cuB+6+3vKXOwbL+RVxG/L9YI8RzsScqceZjm9Zn4XkaoysmHeXRLdO4KHBqPh0St5G+ppMdRpJHlbuB47gN61XDg+PLQErXJzld8K2guQCTFZvvANFdEAPXwpnbdSMd2O/Htcs1wCQjoB3TJp5XWxhKZgW6iOQ9YnEBoWrxl747QwEOC7gbFYbXYjvkAYGHqOiau+E54j6IhAEiGL8iLNXf81Y1H0beRCEjRLpoy4ifoHuxuDm/j0zsP5+8lmQXdi2k3/XM2vouNyI1K8QXe1ouND3cYdbHmLnllvDPdVQtO+F7jvaIb2RrKevf8gEY3R/aiZJ+XpYmDXRgRUVvTTn/NeB/TkbqZzl1x6EI3ueYr5XsqFVZ49xXsxX/7BKBaosH4Z+Z7aWiQ6FYAqlVb7vZnfOx9uHUPbyhJ5K1Gvl2mG/KSbpKKcqSkwwA2Er4lRlVNXkD1dKMax5Q0842y+pn5Lj1usoeXDF8etVPFr/GwpPWjD938Sle2WwucFSAkB8D+uKJ7wfeZ8U5ZrubKqJnWeIV3CzsYTTTBhkjkzmuvumu8/y+knb6e72guTU8KCgnvvXwAAARP+V7iXenekIzzvuQfvQV+JF0VpVsni4Krsab7RN/y71wtZuZ7xntRcxlPreXHQnfrGgZfEX6YC75HvC0JXVIL8B//e1aVlUJ8S3yv8SZ0F+m8+Aed2MfDFDyVVi759iirIg5IAf0F7JbuxHcZkCwWfNM3Ai7pnvfoSnW59IHyfYE35buju+or47fQ8z2cDdL43iCJDiYVmv0f9GFDGvk+oytx9i0Wp28DSHEV7vEm1X7GwyCko7jyN8uSALd4/5/pmYLRvGOM1/vCcca7LiI7vld4Z3Upb3TXoh2F70Y3wyehGC67W995p5Zw1q74XuBNU/csLfVvE92Z77/tmu+Kd+6zTwdJ1V2SgX8Z6Ab8N+9wXOE90Z2KKRZFxh3fiGcqFcE72eDrP5qK+bK6wyEU1WocsGHku+6/cUbo7ldRl3hXvmPpz3GOcjTynd417IzQveB7yqfwLVimW5LCqS/0Was7a5EPb/OWrIUHEOlwW6wMHxp4gXdX7Wf0sMFkO0vghu9rvDdks2Ya4jjGq9kSQPFrJXJxXVLgCQQJu5oO+/fYgIFuPGDx4Yd0Yab7rjDtz/pXaXUJWGhDzlccTlpcl43oTyF/0wu6oc3nrwDkylpn6kUOD9qOlO62roL49A0ObF+VMP4c3RBeXJ2oxXZiEeTa3foPWdbDd2bIj/Y0bYDHoayyXHa3ZCFVZHn38coMt0vSAVAWDDkO2KL96zFeVKMy0g0e2KdvD9jrNucBpXoK3ULend5wUWQcKjgggisrEBHiE2WslDleidYXIwUpTvdp99IowBQ7yzuPpkvaqLln4XvpWjjnVk2ydJ2D3PYEvIwnGOb9Z/K5jG5faLkK38hleoNukia6k78F7Ft8V7vVSrcAKt2Yolhp8/mvdU6x/q9c2t+6oDu1n/j0DTjA5hGjaprfpPs2Eb6JLp3Qfev4ykmkOm2Ah1U2m6fafn+40P2zx7jLUE6Ki+uC+BrmI4DYyfOB7mu+y75orgYWsz5DAuLTr/hYSfzgOwADrixY5CH+At1z0gb6n+N7S30vkP+/TDU0c5HMa/+VbnsSXcBVXNE13ZXv/Onn6G6J+rlIeGW1eSPEjS2rhqRDRhrEhc6r5kklqs2aqkx3k80L3b4uECe6K99/cWn3ODqtxILUv4JuwnehW3Etf5NEl73fhBGhT9MGUFZZ6YHRcqoUVXfHxL+TeBCeaZgmdjS7UgeAg8baanW16zGsGw9pOO/5rlYPzWr+n6MbwAPBArrjGyB072u6bwOaA4+IN+bveJ1Rfh0+7A2t5+/ctLpU6rmzjm5Auo3olC7jipI36NIDtpnE4xP+OboJ3+pVhOXcYyrdImkktGQccownOacWtzb9b6a7+Gsy8E+fR7p7CVrW1WYfqWoII/+TIiR5VuKb0P1ZyI7OF8ei1FT4FvTUUCfxz9ANpLrSBiwBeMY+MiKHFxGk9+Rjg9RUJdy3cpZUvVkCVLZcKyYYv0z3BhwKGObvRvdebXnKSF2myBcGJyxqCXPfHPEmo6pM6fheK9bIDrctfPd0J2cKU+RLRvh+M6wD6eY/7XiRCtB/Sis5DVsGvgsBR5uqVunpFpBQy/CXXYrd3wu6K99cf0hc91sTqzhvizh0/7qUjCa4ZDPdP8e3gILxtV6fyUs1//5LdAMCjuW5MPXRWh6rPHgS31vgiljuukpNemu+ajykLpaAk9gfiYZOX/euwZfMKwqTFAexDCzpbtY2XkMOSfU23+LTK75TaZdudLz90frXku6d2q+Q02QGCiW4luVnVifNt4O2VK3ovyYxAFACqhqAzhNxCrBTBnhKN5iWWr5BNwDgPHOo5iXdeUbj+vGiy9db/p10H8Zmunf9eQzi9hMprWKUFrVeN1LeS7rHd5qsBERSd3AG6E2IauBnAXhs27ZtW20VxhjrTnxapggIQe2AOfm/xP4QlG4UdeFKkB2Xeowx9Xg8HlppdKuUS5sYV02EXyi6GMQn3ayo56vLMqB7Rsm8SSNt/l7SPVCs7qzouSzTO7sRin/GEPaXjhZpScIrMn/3vTnJzDKbB3V0a8UZb7FzcmUVUXGMdBLrIObz6dCqr7U0f98H8UmzeGhbtP+uuRsuKi7ZLv4Zuuv8Hazf8zbho0qe6nog66Na9HQzAHg84bJMrU0EtInJw96qlQsYdJ3L+xPrpGDVVX0M4cRDRzdLf5UkSzzoqZ9edv0HENo6oM6HuhMJpvm7HCa5XgGm+bt+Gn9OLzcGCSlRQ7b50qWMM0nKt3zTwl3b0pWc0j+liYVfBTS54vuVkj+XQno0vuUYzS9dUs3/0vs3uksqdZVPe1V//GmKXSoAssLzjoSMG7ww2b3575bsGFxkHdZ2f318OUk3+94lceym0P0LGo6WGNKYaH3bJnSiBrFtZeq6VexDndCUq1ke0uUWy3wrIICv7a32OpQWqPK9QqYjWxZ00wLuD0HxCsA13zcd/1G8j+G2RrdW9Xg1l+6PcL4c5XskP3Kme000eYr4dONqBKxCfGW+FwPhW3QDygDA+Yax+jpaec2n/Nsa+Vw8bs03ye9WGGAA4XsZzY9JQpCAUFd0Z74NwNrEkO7K4T4cGs6i/+2lkg5YrsNXVXKZXtPtAe1xQ/f74pKUwCGgo6dmAALA/qDRnTq+Iw1lNNKd6/y3v6VTJwNiOlpIA7g0lYb+mK2tytuw/QQcylEtLDa6qZYp/bM/BKOuu7znO5RXqi/TpxaY5AFnPAA8CN2Psli1si7po+mMrQR4fJz9AFMCFADiN3xbtuNKMs/3O4k3Qyn6j1e//EQs0JxVZOiiVNUQHrbyPXWG9O2iw3VxuC/4FmTmrBsW8zmUoG6iAgDXilNTUlpT2xNk15tW/Lit3t4iRyW9kc19Xciw/Rx2Mlhf7u6U9XubtcthTwC70FeRjX5qOfQ4hFemmfloDWB/1Egkz6FJIwBYZxnRXOe0NevQ3/6WQQKIjhfd0uQbkBMvrUcYzSFuWB6El3Rn6XJHRzdY5rs2pwFCDpe6CLBeys8D8LAxnbC2oBuq8B3PfIxqjcTkcRodqd6l3CQ8ID/iW/wJDRaAcOINvBW7k675O3JdtyhKHyrfLUBPNY/gSchNW0wk/wDAdkdERxfo+LLsyAKIzbqpuXSvi1pHZqF1fxh1X1HbczSXSx+NaRucEUzTMUp4CJFtE1fJ943Xvc0/fjd4OAjKd6VlINHDuxa6yJ77NKA4awFABCHZFTA11z4g6MVg8TiUfRxA6uKF7roc3nq+j+8RAE6A6Q+qe4GNdqnf/t4NQE+svypsGaM6G2mzn8LnAw3JENLnwSLDzjTrHR8L386jMB5cCtQC8XmIgdyy5gHYlAFdd//BSPDLwvdZ525bHHkF4MwfJeAyzVV4QB27WdDNXoivr/C+p/tF1i9DAAAgAElEQVQNDXc7BLTb2U815B9E7FdW2bwjYxXy1DxGwE2SXK7eZ4j1QOfiLNkvQ9K52U/pHsergnZJaN034VxPLKKFNojpiDFn4rkXbQMbzTGFh37U2DJDNOjox8b7Nb5dUi7zHG4gWB8NhpdRKNb3W22dvt5O5HgnApp25nDVGx6HCsVre6K78Y0nAPuPKuNw9cMDj/oChe78yN/+/gAgGBmvtoY46KnhvQeENrX/hyu609zNt334uvBdSxpcrpVdf1VRkP5AEeABUJpEd9Z/8K7ulZUuWX1nkTIUmdV7QP/5KOIUzVV4gK+npBd8T9224pZi59/SvV7W9aHA68sNdjtWIXDTzWXKYntGADZvuGxDmSMAHMAjV4n1No+oSbESAOiunxbhMPOt7CsN1fkhZ/fGqkVpT6L3MAB+h6sNywaLAEDi84NY91O+oz9zGC+cpcHv+XZy5jviCRvbava7hQl8NIulfLdfaL39DUTgMPa5/WF0szYNh1CXfAMMKrrchXZRTLcDUPkGHOI/TO29nxDOHUfju6Mb6ssz+uOpTaJiToVuxjnjle6izdSnTP5m1KplymPt95m4qd0l5HnEWEBb6LQ2BxsnOB4AXQM96f0DH2QnZWer79qOBueezqLpc70JR3/Pd+cnLFoor5DCg7+Yu92s6DDeVQPMErDQYaI7dcFh40gBsNJBRRlZUtrQMkcAJmZ7DJoOJ40F8JkBRs9qxK3xfRAB/OL0KvNxdOm7WoeqQ5bThAUCoFLwIOexolsCj6Rsem4j30dACoMInG0W79zQG98AYA2E1CU8QfhR7ftsBL7FNFKYFGnpxo+GPoCcn/S3yfGX8PxTfS9jvhCAtwPfbTnDP1vYUL1LqmNGmgaTNeN/WgCNbg0gnMnkYhOi5NyI4BvwuOa70a1/h1Q93RD+939IF14EFXtLx3Dmqez0wAltLQB5pVXeZH7igm4AiNHQd/EtNJY22iDGWaElPBhba+xv+R7w1nUUDZDupU3ojikknXeI7owBjW5IN9MNLKwemEbyFePDJl0KOgWYhXsgDgSHH1zj6z3fqdLDdBbemL5/egwtd6Nn4h3f4RmSjDAuaSUkgy6q5JHvSndfJm2oI8I/dpQJHml0ZI/qr1FjYzvARhwGaZC1bNgHpOn337pSVl+Cr/ZbTAXcklYsrV71A4C3mirjWpdjjCurbNgZsHdqh2YydtgUVTRXQ+r6IcLvwBNe1a9bBMggE9+Mz3x3dJdQk5028/d/SKd1+BmV1CpVup/pkwbAXH+weJeSqfsF3ejojhw5shVgtNmNdX/88tlBqZg+HZOEDm9Kd+L7NicDpGUW5XtJN5CCi7+Valew4mNTPGcbvwOnLxofX6NyABwu7Ebj60dsMDoJyJ2qG09AxrOje5y8NwAIHJ8+tAVyHhDvbHgo33x7BkA9xZJuzWuhinzeXvqAR4wHNNGgaEOPCDtxoJpvmVRgAwC/5Sr5uwZpOQGYYME3nh1kFkmNLZz23OPXw8RcwOeWXt1qIOQQH4Yo2wNpBPHkgLJBYx+i65QqOv5KzTYMlhHMMsBlOVkBTBbbFFX4PudptqcbAMB6u3PhtZFh/zm9S0vuMI6KxecTgFU4wbiMwV6ZKCk4ZaH3bUU3BrrTqwTYwBkMt4rDrJeG/E2fLw9kK31H8olM0xp84WRlgOj2XYHybWxY0b3cmLtIVQfG5DZuKzmDQtozDGpw7mAkvuIBHH/E6ZFbdNlGudJ9MeAE3pw/Y+AXuuJ/tD8XfI+tk+iGID/kmyzO8qVHjFEbaBurmNVLESdiXoWlinl6A0B+/DvnZYqU90SADS7F4OFqLUVe7NDFr4ep9cxTN0nnIMx8V7rBokxdSlnsYB8n1y0Ax3eLgOPDShTqfdLlnq/ZC983R6J0dLP+wQLS7T/Kp5cHQPUp0d06Spq7YRXOPZzYL/lmCif0HMq+JRoICgDAgzwDBzysNIdanj+q7GvHRwDELIysMS3bZy3BZTIggXUL3wYAVnT/RNIoZ4Juw0AMHGV3rE+u/BMAMIb9ohkz3ZF8WqX62oFf8u3perbyHVD4HpNMK3GK/RN5VXhUq4IYs1gXzbp0sa7S0q5dBAD3vQQMB2rluBhchOKAVJ+Xxgkv6E7JZ1uR9CkYKAjA+BpHu17JIrIH2X7h23F8/wYAKXT48tk++wpWusH3U51xdPQc30QBgJJg82py/wFsuqy+f4rvQneJcJuGLw9hFU6RpY0SaLnaJvL9BG6dFKxLIuSzeykekhtu9GBGLQxNhDZv8e0dOVCkdjjLpv1Rfm3xmejmjAEQ2dQu28edP2U+OScdHQAmxgFCtC1IYLlydpIBRrNTXTsPfS8/vLNYIHz3ajiP/dKYnhOX2NqdktKnm9SzaSuhOy1BtAH6MxBriqgFsW1XvvMPz5nagBd0X6Tw1ZhJE7XXNUr+zePLl/paOTGFA9pcm+V5xwPS0VeXlFnd0Q3w/dzPS0mLJLVzvtIVcemkdiUKxRXfixvPw9iQ/Ahy2z8BWMALq3Kc2chEHwpQeKiyuOrMPZpJyvczpgXi1nfhvPPFBOCPafB1kP4tvotFU29zbt9dG5MQtWllUTWkocQpcT8hi9+kKZN5yTJeEAGwnX37tJiaktHMlhrm2hzHKrJuLnyDdXyPKrDlk1KJyEuMLgNpGDjoQJ1F7wi5Ooe06E0A0fPdypbpdih0a3xY8Rb8upu474auDHMQAaDXQUTAnOMpNZnvd5wArulWRjN0UiTfz7s7SlI7v1B/chktwLOE6VZGemzRXf7HaUzezSxJu7R29KLaV8YD6CYT4bE15YkEsOcfs0X0n99iUf+MtscCLrnXwrDl4W2v+a4jcy51sZm52dzufopNNOYKgtAt0qZQyKfavDFlxNGo1eWM0v/GIr2kO1VYRGTfPl2bwot0ysFVCvWk9rxDHT2AgEdjqNBtjruTsNKapfKtV33IFbrLXnbd4JQL4YDFInV5BpimCK18Z7rTlq0A8EnIlUExjRNN03B6eZo1i2zabVC6Q9yodxc0Pv92N7+WZJXR407y9dUpsV3f0A0A2Ot0KMIo1wWnFrfGVUmlS9qQowJtAOQD60q+mW+GtP7Za2TZ/QTgnG89ecF3CqkHe/T6UIOY1oD3nt+mNJLMBUpvZtZDQu8wkf+uQckUhBQk7JzgDPFqbLmajOg62uXbd62WrXq4pY/s8MIOiPHrhbLU4FWUE1FfMABASMkfP9oBkqVeonkxVZlWuiXd8cgauupjfJ+fq/+PMUbbfPbiM6W2gwipJfBJ/PEbY4wN6gpzmBQGZfWAdsj18HaR/uvNzRpsm11Mn19dH4g05VQdLMpX9mqT+kZRxV7RrWqAoYWdxnBgOk3TW+QvHjDFKdiYw3Z0CwFsKk3anNCdIw7UExtzyfskik5D9pv1BnhgNQoBiGA59RkKIFN0ue2fQ9G2LxgDV0oi0607Bx7By57HMUdjXDyDgbkubGfMoTV1iY7T5+CMd86ZGO/oTqb0c3wAWs7hM+d7SkC3i9SGJG+BCJ9SjUv72hO78b2iG+5I5SQ+xrfZSaWUUio1pvGLQbPSDTDGP4k/yg+0PgrdKwnrbPP61IQxR6tImfx5uZm86UkCfn5NRpDD177n+049zlJnpIUKOYQ1Z+yWbuyK7Cr1w9L1IGVXjVH4bmYNubrILCcBgKd/drKxqcSOOkFdPDjZOTiac3msXvNN9BKdIVUqEDfGmFczGq1TJpN3joLg430lZEfEMc+eI9+RIbnn589Jpa0BRWuPJA0AwbvTuVZLC0PcmylVl3LSlGKjMsaY1lpKjeoNVujxFnyYvYD4RrgoDQDOuR/XZ12hZ1rflb+rlYcGEHrAM93PCACUboqOKefX7n9gTNZe0z0k8+dz/QPjE932q1ufEdPzHS83qEuGdbeGc855CVFPH7ekV2gi8vvu94s2PM+wBLDyzTnnEiUQbDfLyVokQc0WoATzTQRcJxogPQK71lpr/fELwPRqvOm0jqyVozNruaQ7Lx1pJky6wKQDONO/gfq6tkseq4bqtQW59wQOy7IHRgQAbaDsY2U+L6RxHpAIAK+W1/01EYC5CHtxUaWZ7vRBQz/A6joza5JsV+Sc9qqGKK8+lbk2h35gNRi0Q1OacYi+2BObUzJS7FxDcwk34Bzobp5fBkcSISUbFSsBprZbfBVZxgmzlDUWdsz2P1HpHtrGC9rF4rHWmYQcXaDmXOP0O3D0K7leB5qjRfoQLJ+vuJm7zfrtyuKXCQ8BBN4U57VHiqzC2NToyhOLZcLVg5M3iRQihWHci9Bnv/wFpmeohj0FVnRhzUWnlG5pElOCunQ7INIFISTYBwWAlxIc5e0cJKAmFUbPd0HFKt7aLPkKGyirFkoruckytbDXMYpsLw470AmMlG2gO/l8dPrVxWmAAKQtlTjQ3aqxRjbVv6n7qb4Zh7y3Y5eT0aB8pzrLtplGsmFyLnarBxWkeo+dw29bOisqwvm4SQC8vAZtEgfAHJ/eK2YE0lYqFusBL1z5YwfiMQ8oAScApmCBfD5GO/9GOoi6zWwVQ08vGRSUrTVVriiQqaltjL9csBbl1ti/qwmJgzTfNCCkHl9mlz9OuJd0MyUBDlbphrJf/lr0jGnHUNl+UNpaQecDXF3he9gBkQ6SodCdKy2bm1Vb1n6L0QFAc4auPYXxwV02paU4IcWeNtVfEBDPHQbd1OMQofyCU0K3BjLdHd/RwC7Y5GroADd0vzqnYzAOeT91fFO6sdihyvuWR79MIgrxfE6WdAHRVHPJ+uq88e2Wg9Vl2cPdz6WrO2cAxfH7fInwgPRQtpxQR+pT8r05xPV8+/5NVTs2tsdLaTZ6Thzm2g9n7X1e6d7gIL9YiHbAc5/ow3scCt35005mKGW/pCUjnYQXNar6bzdAZBCmPngCbf7uUwn93egGfxyQTu7V56O7UQKAO8fRm+2Tu2x6mcUzwfUBHgB7Z+4H4NxHvh1iTFHU9VrHB0BDNZ+Pxnc07jBR/8dcmuWzA8r2FI1Kfl/eTjQqervbO2oyxQ8WgLFa0pFivUQ5xgqIrYtltZl0gQmfDspKdBdfk1y4RLceQbwWqHi4gf9bGyu8hZnF860QKx14sZCtWW/0RTPf+VN6U343ZjqB1ACd58Qxm/Ys0pJuYIMTn7/G7PA4p4V3J2sjM5cM+w4QyRxA4bszprrZHW5lERWDwS8qq81XMnvp+4TuzDdaJ5hNhKSr3bZFm+6u4KHs/y+Di2kYTgydr5MXlG+XO+4jKnvlHtnT3QpvnHm1/5WfAWS6Axo0Erg6h+fpAODbp0E0AvA23ZFRe39Z6BZqx2ivnm84YADbtTTZlIJ8AoB0QfqZbuxnVm3p8vgubwAw+y8cr1BewsNA2/j3b/TH78CGqL6ngk2zENu697TFco208n4iGwOGWaSulJKaxPkO3SUd+Ng7EG93i/oWEp2mLvZPmb2Ghbsd6L5MJLNNkGy6Vr/Lqa4VO139Ld+sFjhvue6A+d41ZEn7CXwE3LwMkx6GiItXKYjCd5mZcok+nLjge6Q78eoBZ45k2a3nvkySrd8+AwAfk7OghLjUTj394QWeZnHB2w6MkZli82gla3QzzccItECjG5fO7ilJ5wUksn9aa8XdwUCgOtRNsTaAUy8i28jEy1qLoVIkIqCMkZ7y/R0R2GA5B1hcKI+3z11JSlhUmvaIx5/apF2JbrriyFMlBs+Jn0jx+f3zEKrrXjG0LeAvSPLmTn8fMPt2h6X+tHXZEL5LLaxmyvrdsN048w3k3kGyWUveY1oY30kDcV/7ZZHnsXkBE58fgc5kWGPN90x3uiUi033qbpodq9adxbcgOZRkASzR/WUpbRibPJkWbf0T7smxekvUrxLdtVVJdRO62/ngfWKdwdZANyChy4DFP4KuHSMAn0o+90t2QzeQ7e9Lg1tF+P6eirNl1fmizCqXgLbOKDdqhD/+zLGZaMfioGqe2i0OSPcT/ifvuWm+SPmg0rq8Wi5AGRHs70TKyvfWN0ZV0/xaGQvflJ+R7tLhzhcraJixn7BP34A7vn3VoHpsHvgBsQ/hya/4ngPg5DIctRoJ3xPdHiHvAidDi3JsVaJ7JW4Y+/0ZEFbemv5ie+gutWavdBcVZ+XbuXginc6cpNTpiMeH2J0JEXSB2HdyWemVaDXGknjk1uNSyIvvm2F9e3YDeuX7+8vt95ScJHxHM40D+oda8J2Kz+o5WrlblJAhd3yXYoWvP+Wxg/uFHtUZLrJ1pJLeq5dRkPonR6IL46FJfQ9chu6u1iPHNA+wj9+Ba759FdGsis8NKQr7EJ5cA/aNA0NLOgypc6KFaink6EvdpJA3Ql/QHYGwaEb3WBkT3KbmITLSDZn5jvGM33LxIwsQp8Z0xKMCkPhmV2agpE1IfMKIEsALoxInDxQxD+pjfmlIaHx//6wA/L2q6jkxKcpWR+U7GlP0DqWs3gOE7xORyVp8URsoD/sm6ZvuAue3YoWvnzfYxXi8uvv8burtt2LxehuVCHpv7rC8EWnKjZkVi5TLR+icSu3WpXoxji0C1SK1L12xnSTp4yZFD3273pNPRzpBPY4xW5A36tNrx1i9d4B9NWVaZ61p1qedWWZKhW6SeBH4XtMNvZDcVQucvbiVpFwQ733wzYSsp7uEVo8x+wEjAogIPhpPlgH5L7VJzRkA/oputtEX44Cxodgj0GEptCvIc8bnJkUeAMQ/k9/zXNVzYsUkJqlPUzrN4UpZeUpSAFB/pCBKJe5fqVyy69011ZV6bOAhfF2JGHpauaYsaaXyZGNcFNsvHamPrOx+XS819cGYupKUFJxc6lD2he6r1/rzfpmdB24LFpUFZODHxSFUWThajGFqqoSmdm13BhwP7sDFIJ1syoKOkQ5xzwZw+7IoxgOwWNjo5HRHN/CSbjxmiByZ0F24EdTJFOK79lZAjYDgk745Rve0xtRGiCxA/PVFlNn0JPfCBFydbpCS5B/ms7TzHov5iM7Wpt208iOcxHkDdmEvNqcS6yyCpfkbAKx35YS3NjzKT98A9ThIbOScxf6ZNhBdtm1r6bzRnY8dD3HWNnDx4FN8WgRL7XiLtiYLs9HduOABgH2471NhXujfSJbdrgH1B+75rnqLc1+NIRPf1R286vsL3xz2P//XFVUpX69eKg8BhOiHz67eJqcaFsKjnxRj4E4y8CXdP7IlTPQei6Wqy7ELu8T7fr+kG8ZdDcChmzWku1mG537q82ndkix3GnzCA9LG6GK0hrxEZMle/eyKaUqQ5Fu6d0x0A9iyj7oCrpQ4r+kGDP5fqd86I4Wem1ntGKO3z9SDFG1n+ekbSKSvmsU+RM3s1TILvsmEldnZV3pyKfm0HRq/UhcB3tBLk87U0kOM/yAeZnzUq4GQjhiE797bn/JNtt7eOPeKqxQ4YQPdTbNgMWmf7I+96yYBSGtrD3Zf+Grh2w8BIboAq7Lty6tOIgHEavY8pT/rX+efWqA7EuUM4fi+3AChL/RlKoEBgK95GLaLAX4o4SquQ0ksqauTg41jjyTJCN0VQnggwMXnt6Spr3xHUj109an8tLec7ygXPXAdHknq3lSXpnGlPyUvABjoP9Z89yMijVMayRaocfBxoLvwPaSJ7jFNPYM0T1VxC+BHNzukQUSOdgGl+GdEDuJfkrK0xeyenx1bFw7WQI5KJxJG+CJ1e3CV7zGWR+gsLovOe58sYcZUXFhkdyY6UzbXDQNOGr+R0P0iVcVRqrNYpPII8Bitgn+pmS+JXxlZ/tmUePH86w/+3BrfZ7COTNwz52kBu66e46/jUt0qvI7dxsMd3wA8XAmv9qgrlS6goPDQptLdkfV3NjzTdU2tbDwflnjxo54LXaQF/Rk3Tkh65sVl/0H6zvvN5l8wf32ZcrFmqasRe8KkKmTTP6cS49guP32bQr5zsXiPA4CDT8L3wPes/N/TkWOU75OX7tutaYu3W5zopruXEQxnsldzMtZD7jjnAYA2PNTFRQ0jfN1DepufMPw7/ZDL38hZ8E0NcFKSRI0LJL4BgOl9kwF0nZb2cV9aFrRKVwBcZDHpbvOzoxXw0Jd9kCZ+9S4Gpur2GLdGE77PYA3pLBd0X6Tja8wW4Y+PrwWge749XKSCtPkIjEKw8Hy33/5arHQyuppozNRzP39PI0E+i6I9PoVLLHQvzGaW+mBvjQsYRakl3zKprA07+6i9CLa5vFHKRVWZUNu7i/SOwJ/otilk2XMbmvZGo9X4PgHhcgfoQ9zg8EA0Ti7V5vVChqT6554csKRggv78VbrKd+vdE9/UrIWmu55EhqJLvrPPF+/ccCVV47r2C9P79hEItW/ZPAtf73zlZ0xBcjLf9bXiy+m/JMYAyDRbdO9irIUlYw+3ij+33ClD84tuPsskcQbAreYG4CBS4js+V3d8ewds3Tr5+8VCw7fTKFuyXz+znm5gw34mma4c6Uj5dp+LyVpzZpoe1b320xzLF1jy3W4NlMYQ/jRch1KI+r3YP0znaACIdxqLN5IpAQmfNE741dV597zoQE8ALaRkt5dqvqdtu4ViI9Wi31D41kAvIykYKaSXNtcA/W3gu2imV0fjXW/31V9i8Yj22+BwbAEIv9Nz/lyhW5T/5wIynWOYFDPhSJywrsfJH7BTD65819E2LlTSJHXVIauCnbyLsUcw5CsGWMVLe9vWpy/php51p6lsdyUD5lODeFigCQBwGGWUK23kw/m5ab3BZ1Zvym+q7I5DpAAhAOAOwnejO89WPya++7CTT3MkN78Xbz3EhoiWrJ1D+GpIlO/KN0+bmZ03CABv1XEruZ14YZTbSlX5GNb986W8G65aqHxStqzYWz6ZGhcy4Pymx7ZUMEqkrsHGMzh4eKIvKseO5QmhF3yTydE88lWGqW4TJBVRPFXLI1S6a/BnbaBjOzW+QPD0sfXrKQpHfqvjr6X0VfnOqF2faxtr7uV1pGg7n1Xha+0RknlDAHCmSBlWlbD+lG4zNVdad6uLLpaiwd+oDVkc+WZYxrUHrNJZEM94XO81yBCnpnUsGM0q3bm8ylI/vqBwhGrjMtKND5nvkAvxEOhdrn2m+15NM0V+IXyHcKYoABPfOVFvELjD8GhmpWVLyRPyVlZ3pUhPAMF3mc09y7+l6P/bAD7NatdFq1Fpj9l1Thoo22abscSCCgrZ5WDCO17wTWv0UcogZSRHyoQo06bgtsEjnmX6zs8tOnLrtWmxx1id4jY0voMPCHMwWBYVN8u6lI7O3W2TYdrMd4D7Qd6IS6F2WVd2uQNZ68PiPGVL15s+/c+1Z0Sj6xMv6Db487XF4zR/ExurXgz7XOsxhU1Xy06bVyqs55vniH2P8lFkhYGA/ZAeYwHwoPB9fzRlKEDoLnwH4AjPWBq5uVyzrPoK7s54s9Ata2wMGevBw+GMCniH73QWGpdsXy7O0r6YSWczFk/n2e3tpEViJXpaSSs46rsNewz047fnE+GMz3t/x3PPRfLfbhcYUzP3UbyKQ9GIdwSWfHemAPSrSFb4HtI9Q3aVCix3RalpHVko63UllxEBtvAdEJ4BF7GUP92tqie6x9g8QE8341KodH4DPcbawq89fkfJwRfHMgDwHq4MFJdz9585aMLaj/461UMduqhXZLYuxyLYW0+iWG7kQ5gOTiJhamRSFABE7KoekpuD9/ye+80B4MMPIABfw5PM0K2V5KevATHMKxi6+BbDZsnxMbLK9xkB6I5vAIhkwOgaS7J9w8oRT+FHCjUH0/judljiiewN2ujuUVrBacUmuh/TYe+SfrRP504Tl1upNBX23GLXFACYiudKvu9GvOouOOBdNM/5GUcZ2uu9vp7S2tbSNQmAxyIjiNIYyUOwdGZloaz/mOVh1R2ytsHHRvc6Mb04I7QVwGM0EJgja7WpkUEKVZSvjW+bGve1Z5unBooeIq/DNaG7t4UxR3RZb7Pm269HL0HDyZPvW8ToWPhW1/I5WN4f5jXCW2npTHf+9KDmOMZAV/d1oQWIScYj8V3oXj91O8cA6nPBqD2UY8ADkdUTMwAkvvtZ+/7wEjsEFnUeUP8oM0DiGwZyp84oUdl0xvT7dEfAZgVI+5HF8SMTru2N3Ra7sHehuQHbzxdrgUr3gHdVWlX99RBOHZnus4RVGocRglbI488GbORVlYWySqOt41ra8ESAeZJ4vn0yUGa/5lsGYcW4/hwja7WexACoZo1KRG9n36EbHC3cBckeXLa5e3LbKGNCcPMg7Pxy9u3H0EYRiQfPItueAFd/yFGZbMv6F0DZSJ1CbCW6yZK7FkPDoNEtAdprih3Y1/BEsMuRRWZpd/Ym6RJxdrR4WDU48LBI4U4hwuZw6jT1fLtsy9EiuQhIwHzubWKgzG7MQRwdX9B9pvDZYwRJ1luqsihjPEjo7Ov5q/AdzEoAAQC2tJOjqd447q63CitZ1Nmvlf5+8KB1XhqAvrmyyHSv/aLSZnM8MXbTkMBk/NqZhQdyAqzVaYYkE6KlC2oGcE1tzSvQhw3GInTLlMCJqRwCkmVddMU8W8DKFIBJCkklc2ILEw/rvEOO5xss/vxfxjewz7HtxlGgm79JnFDPEt0cfcVZ+LO4tVK6+zTQTSOr1QBWM92F78MC3rQ1aB/Hdk8V9i7fG0tHBr3yJ/mwOoClJqMp384HC+Czh0lhoKOTAC/7LGUZgDzpHK/ixLZ0fsiB+Xv0h8D2LMo0EJaXWg+F6RcGAPbm7e7PKiFpIFXV+1oGPh3UQejetpuNeRLb47GiG1A93X0Z+EMD1fZ1DK2Bfo2zSpUFjq/TURoMpy12bgnKla15o5t0MRsgs8dbeqvDgXMmVZGmuBaF7mKTlBApA8oZD2sa3YjC/NWLCC6457hJPM/xAs+iiiJ0Q0BK9ZtMi6O2GE105/BCE92xVXFHd2eYk8XEFd0l5tMDVMaQ5F/BimbwlbIh20/U6AAAACAASURBVNptDG9sHoIt7ONIMjBox7hkuoGPLAd5B4AafbKgtgPAg6n7rPvkvxmePdFepAhJevQgHJKtAxuTsmGRQUljVV4JA6NqrW2/DXcQDdoGBnZ1wm/WvYABeDyA4GqUBZBC28+Eaj5RXEXeTk3Og8phexbR8TKKhG7gK/5jiteaQrVZQANaLeJyUrqBCDgJo42GzIU/mXQ8HA6APOu71YIKKRR4oiyNxGUNSejOuZv/+7/ReK4h3tJdZMhnmZwp3QoAPlYT/nJJoTueWIldVlmdZxI2/DrO32u6y8WPQ1QxabRikk66d3zsWc3+wy/bpVTLbqONbggFmypc/W5VNACYTE9yO2v7DWGvHjbF+eT1lpfc3prlgROMTrvd/E21Tey5caaFHmb4GC9tgS+rdqtHm+ShrvLdA7Sk283h+lLLUiFPunKarSZK98/ouSV/5/Lm54er6/rkwoJu4Cv/gzoebM+iWFPQX7Ro59CTsbSjGzCITya43vYyNO0nk44/DCxR/zbfQymk4GX+9u280Z7uCABS0Jg0LkQwZQPI5LugG4weJVzp5lqBRnaroUdwQzdglTPaLoPVcCL7aFPovkg8r8JTkLaapAPEM/F9c3dJ7u5gQlLo8oefdn7cUfxJTdufqXQDj08mnfP13CARcH6CqpIKD1SdfxHBZ0hSbO/ugQyGeoTejm6GJzQ+9VcgRnvlw3Bjc17XJ8p2VzU9psRAN5C/8XDDcDLRDXDpiga99vQh/vHEbTrEsyh56XUXr1HoHi/8rLbO7Hd7IEew1l8eHLKsBm0e1XwM3hjYlp3JGjj9Wxud9pNJB22UZTE3WaNbMGy89dLK90x34EwCvrSh5zFCG2UDzLl41fIeHL/lguGG7vLOZzSF7nXi0bw+TSm92e3PXB3w3j7G6E1OSR+lY5NBxUL+Dq/ortvxZdvh2d8Q3WGSk65k6GOVV383mIeBTN7VGprQDUb5fo/u12uOkthuBqGz0jvQDajsk9f4jvEZpv3DZaI7MmQ86BSNJBfXveVt/adqGoU8CY6O7uvTgQV5uNb6He11TsvFmqK/pPlSaewY6SYbdN7Eju4IIYRQ+0dNps8S7kPxEu8dACCllACXnPZSn4OIHNZYFyOhO+cXbD6aEIKno0Sds/OQXOnOCgDdnkvobochpnc+nybebrdqmAjY15LzdTLVRNeccz4SupoQ0kZaNZi8cTM/a+AMC7SgF525W3SH8ThjcE8X+93wavX00BoaLLUV9NZpGbpTNd6i2ye9wxs+DnxecNh8sut4skEDtMrS8eJEN0w9RZIveq/T+v3bHhldShZKs5AnHQ9v0U0frrVkgK0S4Z2y0C1X40XsHX7ZzUQ3oOr8jdO0W4pl4P741O1j7icAxoNAiHW8zyWVj34MTFvZ3lhQrU5ug3BILqjXGvRhoQJGZ51Gd/lCn2R00gpgqtbsno/TDMcBnLd0p7iP9qcCAnYphKbBLPVGrfuoa+bgQbVIV2cOmOgsobtVBJm/E92RnXvI83ev0Ct6DW3SSW4R2Hnv3FcVEKMmYix/SV5O4WTvUooYRpo7Pez6Blsi8HY30HQ3MncdsfLd0X2nOIjz+65HvDtDW5IdItLuV95ikW1rs2ol5pkmeaFFoI+adFlwP9Fd+XbOmKPu55kcG1myR9pHS18HsD2ekI570dxvJRgHpHiU4Fkla+E9cBBXuUh+VYLQLYAAKMtz0H3UR+YrGKNjTGNeJ0myGGDFzHeAJ2eMj+Akg2Ku7oXuN9IeYAPkUaG49iZbRqPsUuf5R25E8Hn25gCglci1Undu7ZFO6CN8h05WLTvwxao/WfkMG1r53wvN8WS1j+kgsZTC8sTM9Ke7jYVD8uAg4kmYfqJfryt0JWu/O3W/ZUhf0nsvlHoiL0ZOkhouZL4z3a4NmHkb+vKsmalHaT3RjRxIO8VCKrZjj3y0O/tA6QYPYGw/IGnvlWBcMi4L3V1g36FA7bMGnbshEPC4tqihdFftRL1XVfNKVvj++m0p9RBza/6m2vdFUjZAR+gHIh1XO76zu+OrxC6d5QNgRAmCwuvJgeXE9eN7ea8z6uBcZAqDdeB+AirY3SQNq+aXouSbY56sWs5yNlI5rqYLEUJ2WF9XQE2DUyz9RfjeaKTPtcp1C0J9Pj572zYSyHH9eH9jIfpLSQIml0pusjdLkgDw/6T3Yar2W1fecdEpqHFWUwxcegt6Y2mApYfkQgghRLJKJzt5aCej1icxLtmuHope1aUmmgtRrUxl35kFhtODOhNztp5p0p2KGE+z1G3tX6tzPUDm8/fo7ky6h0VgjiulOBTjQJSd1NRl3985j2FjXyqBdVfXMUXE56zEcHApAcYamGgBcJDT4LEDQqtMHidnEPW5V/0aG8owXp0yCgB0vlDmL6j1UaZb5dzf9jYgSAeaWwjgyRplLZnHaT+HJFm2N69m5zoWOff8F/MtJB65Mke6U7V8qtokxRhjzrkOgbE0EmxuIzGbwwIY6dYPmSU0yR7AqHPhg1TGuGQ7+6j6q2rWDtantV8OzgthsTOMU9XqmNbyhFtrHrX3MzsAmB0XnankWn9cLNDraGQA00bRntIaBThrZtmwJrrk+4ZulsrXj8u5JMV3/NOWh14h6iWqJM2Y99+/f3/a/iXR8c3B2HLP2p4lHMiI9ZruM4ZCd+I7V1Tpl9Q66qIRZ4oCQKAObZaOmKGe1l2Z74lgl86AHegebo/F8Oq7e/7EiTk0hYtPAqUKJroBTKuJYVqtptIpQ46NLK5KzfLP64FroJvJuv6q5iN1nOCj+JbpHrzsW9aN7vrbg69O8bzk+3Z5M9Dd9Uc51jaSsMHFh09bFSMmvnu6gW92wfd31NvUzVqteCM3pu/n7vi0YLW2GSxwGsQUqCsC8fPWFseNb5IYAPPtaTGObzvIkCpWonlEiXbHIEtiJVPyTqStNOlkMrlMRIuQg7X3AsHikSNhMZrDA0AI3Sxt3Vt0g5XTIcYf8hmRTUDM8cP7QkWW4yF///iWHcIidVFeptIBXSTM6zRqb0Juupz93im8Sz3cKg0ORNbT3TIoC56xPgMHoXta7A903wvE7Y3yrudL11GN66mdUT1eTRKMsV11cZzOvXtQR3dkAL59UrlWq7b6O+KLUI8AAAtw+IjBYz49J9dyV6UGj6ZZYJHBwBTDWqMj0w/aOMlYfTjWk0XAf9MNwdIqd1Ec84Vp17Gz0JFudFBroeQjfu862X6mWdaq9lLn0/myiFwKvJQwJ4MTNfRYS/70b9Kdh5MZzgcARnfePBB4fXppWQYAHzZOTXbiOsJNcINuKa3851D3vyTnv+B79OMBXtFtgJ1pNsQrPz+QzZLZqSUg000eV5vxMCZiRfcLbuue4P11mpz81aWxH9fmGegOAKzq+S4tFixgTLJpIXyXrKMLL088tH8BjW9SHA4AfNXqQWnUQCGBxd1/awdTGi0/9TY2wgPn1yGPHCa6fiwDS1Qk2vlqUCxz+2h/NxS0hAGG7o+aYUUYj8Qq5aSeQhd8p8IEjosWd95Pgc7TjUNqpdlW1zG06CBQ1icz8NwVyD7jQDcQIGZ9enDwrj+1t+f7J+heBf+f+abZ9u3HA6JJGytTPkmjmDawlrGciC6HB20gEOAQz8xWorvqqmwozWjNQVUdhO6rcSaY3ufq5fx9oWEZa8uXuNSF7r19bxVOGACdk02wBjCHTsax3z6p9KTvtXwBZ3265qsj6xPdAMTgxi+uHXs//tHoBg8sit1kGQKQTGuBujryAIQ/Z2mfZZ+B9KF4/igbk+1D+aG/6TyZ1PkQwdH+rv3dCXbq87AuKvXe+D5jNb9PVwxPzW5OhG/uR5M8571Z+IrdUkMzKHJWR3fWrUa4gW9Z6KZT9oLvkOIX9N9mvqdytsIvz0iI54UIWh9f/+9bgKxhCyECK7q/Hfl4tyvD9s7QgYctnQ0ST5oZowfvhiZe8vbk9+guJyvJwveLjcXVQelxiOJbsiB0F21E5htAH7LbwBjggCl8l3KxGvm+0c3WOxJHDcDxfdhiv9zKfPxO6AZ4YGDSx3w8gNAfAKBGuPAA4Fo7rOLs1JPoI1P2UWWIeTiS8VTBbA6zbNXQ6ug2s6K2WMPG6k0EHjaaydo+l/B9MucF5dt5T46amjYZ5swAgJpkL+nO+7cs1pcrfGe6e83vxHem++w1L3E+OqvSra8XR+7W7YhGC4kQxeGF7FYDSJ1AYxwbC93twhE+Drqq5gBMWNBdBxNlQ1oVOsbz2WbdnnB1nkmpRYPGhzoTiVu+W9stHaxOQ2ur61A93WBrvo2xIbtOGaTZsvhr1Lo+ySDNVo4j4YFYQlRYsgNxa6ogGfrBtL2DFHpXAESxhuPwAHjkpYctzneudIMlvrOUO9dbG5+vJaYLkxdS3L1ijeGPFd+E2sa3OdRO+Hbe+4Pc0YOwWIECALYaauqK7sZ3ObwkPAHoQnc9GDClju9kKeJwCNnxHfJBLU9IeqRxCZW2n3otjm7PGxs8QnfWax8f0e1Wh5THloGkfH87TJruhMIU5OcpviffemI2AgDBC39BN3jl+3vMJjNJ/VWGQ5/2Zo6sxSzNEJRRaasFLlK+o8ak4awVvVAAP+MRidf8ZF5I6K5850Emn2diDeByaNiIP7N58AbIbq+C5MmAKfwUFI68bmURpT1EEq3H9WxLK1ci4QEpdg4AQpSKtxIewMeaFW98e/jI0Gn1WWTKpilfrSREntcfv073IqWypW29ie9kDi/b3wYPDgQ8UflOdLt6xzXd3aettgbVgI5OIbHclA7oy1dSutsK2LSR1xsPIPiI45Cx1XG6/2mkgJNujO0BsP28rNzpkMSSYjtdtRb/L/zHahIorUrHxgAAJ8D0WFtAPGE5/1jF85hjqn8w6GLkctUPJsoGwMcTrEaoi5zl95UAOCuHBO5FUSOcNgrBCQ8J2/iOycixozTeRBd2/oTJUZDG+1Lq98m5d+g2+6ILPzoxKgeXlKjXPSZnegCRUTdGA4BTvVShO6VJX4XusilFlbeyhKh2zvuZ+GYz3w7CnXrIjkXGBHucq6PVAYBzbFH45W8AofvWDqEvNgCwRz6MaeA7O7u0Cc1EFgOXH4WIXqThNe3Dl7No7+mmabs6zW2VOBBkJ9vzVkPK4jsHUvTQXFSPAG+9Azy+ffqjNbtDspTgzEk+2k1qg90AXz+vqt8tKj69rPCxGaalHiSmaO/t7xpmF4DDR85SPcx2csAznpsQxN0AkUVApeiFVBQcBxMegMfD+uhjnrV3tLnWCQn+yDFLS7xy6VLnFD4fLefzuqXFwM4pxhI9nGEE2HlzHLd082nItx5Uw+CN6ZYMOaXX1TsDLK0tn4UjxojCuNZN4vgx0I3ervd12sqxPAK6FlUbmbtQLW2O9q/yaqKXwdM4MNvDt0Idw0m3OfW1+JN0A2C68wQkILn0n0e1gpcPJVBP24mA8Nn6No52XDfl2J4vfDy7xOuWbwaJAqjsx+8AYIHsvZbq3J8RcDHIP3NolD9z6z6ik0CcJSSdRrkl3//xn1PFBwBlKwJdBFd9fchP7YHcJiPHB85UlnhiB8DakcXSxWdEZwSZRD5I4T3he5Aoq9sIAPxRW+Eob/wArx4J5VW3p3TaCdf4TsmXnZN2VkwEgMCTiB47bWzw6Oi+rIY+5fPh80MDGtZmzy+eP5pdaKjYphyf5JXU6evudq8r0RPdgLqWz6ek0IZfXSKoA0Eb6SXsoSrGVkQmucy7V0vNBLvhG9Kt+F7SfXdgwljzGnYZkiTPb4lumQJYLe7Xf03uC/d0Y3OvNl+7xHP+aUeF9/gVp8pYArWmUwOCSWVsShgPOAOhgCcg+i1MWvyv/1v/9GRxM87fBqjV4IqzV4p6pqZwdMU1mciP5TzDRz1fM5m814rj2PF4fOoEvKRdU1alQvlLP5z0/eOhc1Getq4NIrImR1LnkO0p3Sf5+c90L+2DzxRwtqipcsOFDBPlO1h8+0febOl6yAsvoJjDgPfb6AZI5O8lrxMpVoJQrlR3LybVUq86c3/pQj6/qMu8kcYUoAnd4EEbDejqtB+BUGpZ6NWJXgdwb1205pskVoZaHq29DB01vZqy4GPokZHuTV6Y04HFYZP0Bd3YhHjzuKWUOKF7sXYRHvb/K+7MliS3lTT9AwiQDKlLR7qci3mgef+XaJuxsSNlqYogQMDnAptjISOySt3jZlJlRjJIEMCHxeELHTWB32GZidfB4g6ZnLtH6SZWoOcL9a1Vbs8d2vnauHw5tq267MxNyy5pe5IbqR2OHS0K+L23MAcWB7nAPjY4KL9Mu4NYywogffJQVSnsvB/ojnyvxx//huZ8q1D4BhAjlhTAAbswvoMttUKdT0CQqYNMjK29iRtsiSYMUAyIrYDS4AdAMGrzuT+w84KZfPnIRc7CL5/wPTvaKra5EptSjG5Ahu3gy0CxpkQ6htNdVj0AxDZ9BpNXfMe7kYAW+1NczOBzKw1ZzSeBnbU9o/vmIJRvz15d89B4N50ak5s5wBqWTuqwoZbBLoVvZ2Bd7EJa8XhijG6JbWmU2ydm3ScdVrcfJrpnAS8X+9j6cXs9AAkK6fId0I9ciHTDwatXbIcGbFgS38AkAoAoPNYhlx35RLPGju64Yap8Z5HgfFsACA4LgG17giLfAAC6pjvzHeYdMn4t1B+znNoB2Jub1YwLzXnBRNbfPgDY2s1qbDOg5TspKMaDE1N0c3p9rotoBn4Z1oMfCMVwGxCbWQa6U4oB/SrJ9GhAMrUYE2KtedWThHTplD5BWIMTBCDGDalh1gvd4s7M4XxjM53PUWN8Fc43iffS47j5U5rkPdZwzbLN0yQOWEQnSwiweIEN3ZCSv8vd3N3vcAAACrNMq8C2jYb2AF/27PpR1Mo1ZmdniCrXg7AUvoGau6PIhO5mbNTuoowD3y6G5T8fsRAnAASE+KpPOC3PR122X9PN5u9euku5ZcKZentSq6VPzXNfgDax2YVhwuNEMOWhPLYZUPn2arlQWAVm0aEe6yq6qr7i+7kOdEe+H6U7XWfE7WQa8kYteD63lu8Aa4K8gkgGgoyx51KVNwEnruMyRsN6vMV3TliQLAP4MuS1qkMgH3qNUugma803T8b5HEoMFkcUWGCRpqzW8jUN3VHO7t/Z01iJlc69T0BNDy+XZVo7C9PaPB/ZKFWyiLx9kAG5iujmjEeKAz7e9Z5uQF/RDTzwRwxfWOY2E4AUnAsAAttGaFVryAYD4ARoRnd0Qpp0Vduyi+dJWU6A75hLE+/fgT5t4biwS+VyxaatjW1WJdIdPfI6h8JvX+u+6/llnY0Bret22j6WNVfzBZkaxNCfmPb32Wq2FCCwjq8WYNEAX+2EGHGkq+KyjFUQgNQQxfQ5uOQVdoDRvWmMDu/Rre867FqRJTq+p+qVt2oEXgHZklJcmJfk9qIj+B10WJ8c7CPfUWw0NGB8Zzd85EOz8mDWoYdyNXR7AErHVacQ4rPGB2z1XbI7yWZ5P+f7RkUzizrSdf/bhdKveV0BaCUhm07P6Y7RzWNF2WAB+AAcjO62D9Pksbl/FoXKI/eJoW8YY2J7ffw1vlLPdzpEofK3ZkBjfCe6AUCgMbgL32yOwKV/fX65nrz4nRfklhGD/kkmvcxX+k8cPd/GLpO+40rkc8Y3j0yb6y+kjVMTRSK9ei0G53uF995LGf0ypFJKCrkszGWuf0qm4Sb+4AJ4X+JEN+vzTsHavv7jpFreS0nbCpcIyGL7q0Y0XLOSaNqF2jtQs33yQMijtvgR06LxoER2m/feUUyuBxUTyM8cQLwrbKkrgwx2abzsOrrzhbGMFraewKEzgnyvbh7NmFpngKQwAOY6sHZ9zu8x0s26LqN727xigYjCNxzaeY9XdPdyoxoXerFeaKf/838ca9PLjAWeez+mOX6AG/Lha9PmOSWYjQcpXrd7IOnFlkIzC0J1Lkk/pi9rGY3sFqn4sFT6nY72VyVhMnuj7splJ37mHd/HpegyDN5+8ZL5HsR5n+kz6Vta3FQyCdC4avD9NawgDtUyvKM7hiGsmWp/QHq+e7ov+P4vEH7TnPO85TvTrdUQW0oB8DuoOwJgRpCq+wCI5+qvtE1Rtjrjfi5O24zuYj/C6AYWLKIoaMM3WED/o3QDgIYXcIvZGr4NAMldRgEArqWAmVYwabrPuKVX2MD5jpJ+jGXVj0Q3xFMzupOmPQCPaqzfuee090syJABOOgJ2hjqU8+EudDMOe3zF3E8EbiuZ8hvwkaeUj7qCEA7gQHIeN82OO/+j2d2mT7z+0yAj3f9dwvsJUwMJGezS7om0glx+H27gdzfGnOiClAbJe6DHfCpmkmLQt3R/u03jN8rVGscsAqXlVpSjpiOuyQDg4aBmDqdX8oLuzehAAPYNjO9GMVx+6k6qNdgEeGU5RcPLKoAONmlHYYwkjW403pYoAU1c4juZDYd8t+Y8pvyUb616izXKL6jFi4i1WqDxVgdibSigesEBuK1kp6ktmyCgKEBzRq+mIDtFuunYS4hgmTL3jW8a+jM/nw50e5/VWen+O+luh/rv/Z9ziwnZhdfVCquY0Q0YM7Qc/8AHxfmOgX9ellMDuqE7GPVGhpNw4sXIyqnSUtSD5NUQnns8xdL/5AZIaBiI1BFmdtku0T2uL5O1QTkMnN2eggtDzajwcFCXG2aVzmsKDsXgy0FQXlAkvq/orr1Fww8GqRpJt8diO4yiBYCvoslNFZRf7OLDR9NLSj5eP1muuOgElR01AMGS5TzzEMP6BRkHD4sAa/Pakzq6mXjf8u1LO7Y+q5Ov/pDc2yfeCa+bge5GdmZjqRVWwXJzpp7odzhjyNyVRoDP32+GvtYYDvdvH5Lv7Gy4Xfg7sKhFWopN1Lwmm6GZfUlnqhHoohEH778oajNCewMRrlLxukET00u40WAc3+d7iO1+jdSUtdKt4CCVL68oA6O7LIHrFzPfA94CgBKvtlT10MEyiwbE3asuhEbPiFxE39T0IrFFUyzIrKw1uZwp+kMYNGsOSCc4Plqe6PyE6biucKysI3gcsHCrXRq+f57uFJrIXE73N5YEyQChvmmiu+oxBskn0lpFry9V67hcY4f0b638CgAhqeHSOU4OQnolE7rvXhpIpi/H+bqKy+trKbaatQiCtnEZ4hVEqwqm0GmRqf5wyTcAwEBhWIRisVhS/dd1dBwHyslCeanRJtV/P8w0ECh0u6tPG574S7LxLnaOil3mAG5TIlG6/OT1mO9c+zmAPvF4J6F+R7UJZqRSEk9VOkBDN6BKbKDHsiwSG7SWywaFNQWjzHEW3GmMCUB3ZpFtqLUGoJ4PADrHC7/Ax+GoU1OkGwhkwRrn5+n+fiA+Ze9G5nprN/ks/aFLIZJP+TxZ7BcJDVIXkR3drLZNwF2A+vwVFoXT4oMXYyLRsa0XujtB8R5AOLHdJp7iofg0xPYrD4UlsPUqasAT8RVHoZtBnf1iQDTNn5g3FWS+GV7JFgDkr89NDftKbxFjc0ap1d4r4owx5Hz/aZQ2iH0N5YyyURYAVtEmj4kVQJ9OOVG8blBmkAGVxhWpHREaq26JsFidUtjOhvU4kj4kIGP8v8emFdb8QA0DbAangQ2bALjOAwTb+UfU8W1Cd1w6nY9jLR3hgAVOsT+lXf65JblNdBtA742yOrCKq/N3sy9wXmb36PRmcYRIdAfrpzu1vYaAeP7SdIP4rl97/exE2hWF8x/J8qKysDdXTMMNT7PM29xfI90AsMJcxuBxqPFxNNT265d2jTp7i2b+vqU7vtM6llxt5AzybF3Knn5a1Ad8f5Tim8i7stp+tlsUM/DOJVu7s/j8qj9UWMWzPw5xgH3VpI0QUPAudKuZGRVTo3efdxYN2gsdU9jSdNFGgLikO/ENkPBZLVH5JliEvanv+4y0sfuejxI85MDpYc0Xh8j3IK9dj4chwZL9O9LtCItr+A6EV3w777C24Q8IaOimNnlcat6yA2/pBpTHab/mMN3TzpBL4jTKWH2A9NHT3YwAQc2M6vGvWTM39jDRxBsypBefGoHKqC2a0J1xyvGckkmmVyyVU6Lb5/P8hm6ASHZ8RzO8ZxxMDWTNebjgX/minm+DRxtXG3O+zf0RRHqq49GFFMBXYasYfRxSy7zNd7wu4h3y72oW3+8sAdm67n1MV1zroY996mPrFaX7R7oXDU534Rt4Ltk5aS0eKSCHJhtnqtIrTaTTQJDno3TYM8AafP3i8JTHMvSyd+juDZyC/XYAsHB0LF5xvgOh6ctfnymUf+XbeQfYhfGd6XaB0c3U2sXrG3Grs41D3Ln/WayF7NAZuB2Cq0GV1kPEsxdOdzMmYU73Y2bfxRfOBPE0hM2WF7/mW8/tiDe+mbJL4hsA4PnZntU58RZZNCqz0PKdbCDVY8MOgq3vteBf6ez9j8J3Jkp53dMNOG1/BUhUvg3MzeQtk6fKgV4ZqOqdxfacLIruUuReyQN4RTd0zoLZdJYA4JjrVcSFBz07NNVgMYnYo3zciNVXrXHvCcue+dY1vMng2lO6j1PwkMUA/wyeALN91QZP2J7vnu5g+peY0W0sAOsdAaDIN7vvA+xAdVdY6mgKwHtHouE70W18nFUy3ZRDVsSgHrc7sHP/4Bk6uxK37+zq8LyCbCA4bvhKovA9pdsuMd5/e8wYvrW58wCxGcJvH5tBkE7PTBEBSK/ntt6l6OSgNoTMN4CcPDCkpXnXERq+ja7fEhqFlhxvZwM43Znv+GQAcFBy3J6k5DCVbwOzp0HS90OVAyD1DsBg71qxefUZ3aWH+nfMN7Kay4HryuaxeT/rMHrl/qo07yIX5kfectBE/yrrDhHz9ZWPLvkG4CGzAV/wcJ7gxQFAiSNNfEPajCw931O6dxS6ndk8O9SUS/TCBoCYn90ry1/6W1mXLCI+PRqiuA8PE/VNE7pf2mLtXK/QQ7JEyQAAIABJREFU8d11Tm7it5L4MEC1KSUca6yWWObJ3G0XBYAE5zsY7L7YulB6rCAIMeWbQioDOXXfzQ6rA46V8W3ixGR8ky9L1JgtrdN6+lZaWuicyhNBGihsLd3AH8D/jT8JAlz2HWmkpH4iUWzO8/Erffu15Ts+UArApPmP2Pa7JqTa/pjrIeO1TkxMPXtJpiPu4esLPyEv1KCcb7fiYoEV5SZ6lp50kbFkbOciisY1JBc6YDOF7ly18+P9OCL71MRndgRwGtixAbt+AOtsTZ7CjLd8B3QnycZElWyiG3Rg8yq7+i7BLmXQyOpwxrd1Zs+uK60144fxrrrG1jgwfQ6waST42G/MnO9cO0HBI9Odd+JbGRViA/ySEsfv2/xEDEgH/U4zvoN1CDktOhsP8wq355vizKtxkVKOiVxWhRD5BgCcZs+zXowbFX05coqCTenC919+S+v42kNyREMgSPLebGjoBv7AR+GPz4JVlrWMJUVHZO2Rv9HynZtvq80tclB9VY8Wtiu622I3utE+RVipdzab3I2dlW/X24q+L2/RzUXUQ0BZ+BaAAKebqRuGQlU8H3FDFAyggR0r4BxgkwNp/aZxJ54GwML5jkabjQbFxBMCa0M0GDzWA1ve/cEuwdbYl2m96lWJ+P1vGKLG5SgKOW++AfV0+4pu87zgG1jmfNezZYQcaL4kctNO4PcDAB1bDNQQO1mISVZT3y5WkgCizyIavkMKMTyuHoU+AOuxKc43BRf15fcuOTsFAOsDiHzHT62r3h2Ay7F+cygwu2yZpN3bLa7DG02PtxAl5o03g7P5H+Z/M7pHiXSnd0mvHEd6uIHvcotFqxKpWcRzRbYN37Zfb+mO4hUy3yTQ4Zjp9hzvsacN9wPgqETspPNV6oxW9Asns0EEsOYlyyEDW4N33nXFaJN/+0sXQ++5I7IbnEYyjl8kavDoPLubFBwxmw3EhDcx+gTToJRFRgAA50XiO/5VPu0SSpRxF7pMtOYAHDaz2WXcicbGfna+NT+iWQFGN5jYEMe6PwGeplEDXoAA5S3Tf0iuk8oNHptiy2a7Tmf34Ji5ZSobji1doKqpY6U79b9p+id/IB6U2AXhWFMgbXciFDIYISm0puPBB2CVlP0YsjlvyBMeQCDhR6PDTUe1XnzdbgAK2yqeC7q9Rnl24ntsXvE8LOMbaGfW+SKmt+254ZvRrTLe6sXGB74GJE18uy4d1T8kDqBTbysEFpF38bQeMpRlf0d3rqRbuiPfAr/sFJxOOlcjUR35mCeq2ZC6qcexisdDY7UN33/W+8oAOA+CONjZrtM2Gz5EKzsc+zPHpAfS4YxRS+8U57BGA4pqg8YX71t5zU/bONQSg+hYgTYJq4aBEwSNJY11uUvkgpScZId2wLY9S0Tndlafy4ZDxlWMl6LMii3dT0xOhCLdEAAsFqRRE+FEQOWaeJgFEBxSwJGohD2AbQyWBQjgJBEIJPwwbW7/EbObbjb0fwI2RLqbvQasOYqOzwHf2kiOAgBhRcs3v2J9i+4bvhndJX7QS7qT8XAc/iLfHnj0MabelByY5/hleJm/A8hig4h0lxOe9ZBBTPaR6Td6STfw3AOA5751wUpMuwqxS6XY4oTHie0Z0ll5SkKbrt1zWjNBAMFspUJO6BQO+gTgEHBIw/rPibJ7JlGmFRucDQuOpeW7mlY2dH/9kh14i+QmkHytOBGzHb8Mxxb4puEK3+sj4ZCtygrdWI8N28bSnLxYWiRT65WHWAbgId6h29ryHosQ8WfqlaEU+O+RsNz7Dy1jtqj58vGhAThNv0xCciMFjrWh3z1s2J65sMw4wxiq7qOH3UYXWLECjG9ARD1sPDGec5jux6s58g3APqWol/DgJnlxfk+3Q6E7Seb7pC7G1DtxYgAgfP0CzIYqizPmCVScbiyW1gN4lZq5OEPP6M7y3LfmKMe0LRA1NCZf8cihrYK05bIccnCvI1rUrm55YAjyZOONQ8ABiGoocAIA5W1bmUWXP7FYv5Bt+F5snh7buTt8xbM10KkDbBoKy4jYB7ye+YLo5w4d+V6RPdH+BGLzV7qBFdtj7m0UTj/VzGw7lFetHZgY5+7ZHX3ZmiwiJ9L+TrZ580h3rqY8fya+YYGNjnmXSI/UmNAtFqOUIES+2WLXYcUzu+rxcKHGkKkRi0AGWlO33rIrUMOAJLpTgKjb/W6TBKGsqbaS8zo+M5dJIeH9ObpJJOsHCXBtcihWFG/EBQhfv2isW28acxzf4krsl4buyPd3PK5TqjgNlMOy5ZLuaC/L+TbQPEFfOqIqh7kn4zv3nuRBgqa2BcHDacZ3DWt6pGovfNt0n9K3svz+Jxbrc8j4wnf669YQFWT4KppFOl8+Zb7jH97zCVuR+N6KP677/U8FwIOd3ADYHlN7VIT9Qwt8/DaG+3nuWnchM2T2bGzpbgeHsH8YciDB6cYv37EwviPdJnd5qvq2/NMhATH2iedk3dvJRgGwi63bYoKW2/JrbrWavssaA2da/YHb4o6bWyPg+fibB8H9InJDXUZAPnaT6O7OxbSIH09DYj3Q+CRMZJy7WzVd5jvAEgGwxztRP+TyTHs7zvdhyR8wT4iO7qQB1ufV/C3gloHuYmkwvJNmWQ7j0iyTmN4Fc77LX+eOfVvHd+w5roZ0ETWDsdUCR4z4yd/z9z+xmJoSorx9vD2r+awfxqM0bADGKVUf51STPfWlWrFDW6hal7rw3dD9Hxe7bfdhjFZLw3d6+NPQdpf7p9LdODnYD+Md4Bag0g38gmOpSZBCd9dKQChIzmWNfF+dQmhoOMIpzQKVIjcEHPLLs6rAdOTbmrgS3BpCUkmaYXgRtCGFOQyA/JIf7rLuvlv+GBy7Men8b6Q73mi282htS8LoueiyOQdrSKZKEKASY4oIFl/fo5tZrFW+D7fvx+7SzPuokZIB0HJAO2A9lATglqpuJARAu9IjRUt3XQbVgjnNVL3d22V+C9/w58I+7+9VP9rgVcN3LF5zad0iOQRg871n0u9Ra6dpwreoI1Y+WV5qQtYL1cf6GXNG9dyx+KUxGvr9TyXgq7XSXunuTYroDIBz4HwXsDZDG6i4CnQ1WGfWNt/K38Y7AAvk9i/e6X/BoY/u1KN/IuB06tLh6uBXbobgrvSUcl0BwOw41JdMi123J1dwJ75jHBOxmazfkqkIANoxXDv6gvUEyHsjvzyBvJbWiHi14d/o2M1HPt2/yq4w47szHWv4rqDWmmG6OgTnQKKY7xPB+o9rui9t3zLfB4I5CLoxxx0Ot1fyfawKKwNQVJSElm7Gd233FufWqrL/2A9xjXLqjlCzGqUHRr5jiWtOj1Gq5cG1SWB65fj3qPffUgDYBUhDk1ioCVpLKDGNi0xTxl/KE+0SQLvf/5RLIJGtcKpOjTq+iaxcLGBoLXyzqtsMTyjXpuHm62aWbyW7zDrd0Q38UtNaxWeU+1VNk4spaOPzpm8rgLV88bKGti2uDzQWAL/msF9ZEt+ppaOh+oE1ANBntE1txw/t6MsKWOPx69JvGezS8m3o2M2e6b6WVBm8M/eWoYzvg4wN0a4kd0GvyjhHAMyf2xcqZqMEiw/jrnZ5ZLarAfTofmC7BXa4LQCtPGr+JWa6IUNdpYie7infjTRWldWWkTtp9T5/KHQHbuws6g79uiWIn2/PQqXwLUiui+eOSHdR3Kwx7xdXrIACbE93/WO80N3aTTC60z+LfWL/5akBEXOiFbhFyzdRPkAyWD+AtSdqM7RBlp7Oytl28ZJvJc8dVsjtP/qSlqwYHd2p7ASUyTCWrugyy/eqI+q96GjlY0ocya4n62YMXywg1lQvh5iFo9OOFmD5FU7nVzfZL51aviPd7iXdSZqpajD8Do3+SKZdaTLWwFaMXwTBeZh1YYcCgBD6Am9yWZv3WmqhmhNB7PjNuHP7I/5ufTmbXuyaC3aQWB/ox+otefam7BXDjNkEGG4H2rgz8Z3PHy7orjt0BHMxYaChe1onNQZx/evTNnRDUBoFGN9x3bP1fJ/pkDS11dzTr0pLN7DAPKOZYLTwy8uSjm8im9IUeRxYyuEck80QD2H3PT/kWXP3LgDbwhhnYlLDYY6rMqMbbL2Xe+jRORKRRcwvU8+32nVcaQSdivlu3MjFAiJuC9wyj9WzNlltLIAtucQHmfiO72bp2M1u3t1htSv00a8jlIEo3pATJlnXF6RBBFvCZFkAK5mhbxV7K7u84HsYm9q10ood21ZMPWUwlLfwJXyPWY/1wlfFsju2fJO43L8GAmCfwaqF+/zhku58i2gDe5NazuIBGPPb/YinwPTmDd2R79Qh8hCbij+0gf8c3/H29ccFgQa6sSa+8yuR3evG5gizLJfqj1zPBPPEEqtCPVm/4uddZMyHuZ+z8vMnK5aO72MlszG+yUIoqY/4ok4jfPzW8H2eyTAm0/05q0uRt/34Ppp/yTZn1cL4dlpSqQRywe5mN3Uveo95V8SbqNHkCe1UtjVrKBHhqh6bAEQJ5VxvY2wOzvCKb2uNSYOLnXXAlUwZQX1YAANsKW5skuWmLzA3XGrzNJG40EtFugHA28VwTbz9yBd0dCd52usAhdFG/QEAf+a1yFQ8p1t2dAOC1jSi9IPTK76dBsxyO7I0Q+sSLPV0t3wT4CrdoODghhjBqrSVDLQdT4UYUa4JHFX5LnSHMX1blrtA82VdGa85jEDlmyxOSPaaO5aG7/M0PqacfovuGXZx/sYy8N3RPeE7fhxgvTW7YS8zpja8kQcADzXT7zjKyROSIqvXO9SzpOS97bDtyziOsjCYAT7tkSeBPA9/lvC9/mqbnAexuD83W5vhCnIMP5vF13B7xPOwjS7IqQRJSuakhb2Z/Zu/ZuzW7T0We51/GOjdE7mUk9iUXDeKFBh6mMDvvABJ4hrvwkg5a0UX+I/fbvacXYXIxQ50R76rNE+kIHF0vVqxkVgGWo/FKr9YZOuvhFbmO9H901Jm8UMAW52OGhOs4HTL9z9ANwAEuwDL93ZZP9A98h2/DEPOmBoVM0BQu/11t4YwKfLFjG+dy3yXHYAEKnLzgWUrn+raD10XlyzfjnURO5q065YGjWLLFz8wN41Q4hza5IP9gu98/mCR1xJs2Wib5pzP/LOzlmHMWtv7AvhmctPigRo9b5avbLr4P2LeTWIfAGBGjAsABAuBke/zcsUhI5qiXVUVpXNfBU5TkNTOWqpZZ1W+VVGaZb4BwAOF7muy/M3kXaSsMOzqHo88XDdBrirfOWBsphvvrszN5IjEaYp8N59O6G4NAspu3ZBrAj3KAEEbEGrwilu+41OmfGdLyTu6A8BPqGZ8i7Kc0Hz+cXrvtNEHIMSWDZyDhB0NcHu+XeB0j2tSJibHJvJp9175Ntv87QDAAlZvMehR4TCaIedLbkztuyXKpC96tHybr0VTxNGb0z0vbysHcJa4VR4grxYkQ5Ce72u6sx/PxflwtbcI0bbq9EoHgycrdkt35ZsXoS6NvYOPdLMjxKYSTqTgpa8l8e0UarPnuTtpMY818s18hd40sO6kDbKU+F4uoqlfSSLGkzM2DHwDMlSs7vguS8QZ33j4NzL7NF5H54H+3D0XRLerS6f3J58LDgDYjHbKw7/rTp48E8vv13zvJfKYSsXBmbczbh4ZLv1n8dCpnqadqTl77aXhu9oDZ1njurS2fX7CXazNT8kBnMXvRMNno0YJMj3fd3TfSqGbDm4X7fDvP+4aUpAMnRVbsTVwkxpo+D5xvEt34TvEL7bS8E1vTtUdLQ5Ix1p9CLXI9zf8+jm+AYAM6LCdQd7Atxc3fNfR0ls7Vpb6HN3AEyy7QnNNU4ZcB3U9E38Sm1BQB/31zpor37k54b668IBNKpbll2VZliXlqyMyx82hC8hOb5pXdilK+LXRIxtvZnSnH2z379frAn1OGrpzcNlEDhnn//23LSuuM4fmfrfyo7gJ3emtnfm4vZfQwx4mhGCMMc4A8VggH7w43yzFTxxk3qUbcAagC6f5NMUdCIc1JQ/1C2k3wMGlLkvDCOJAwXz79u2dM+ssRES0GzID3TH3GAAJEdFzQEh52NsLhRDidb7FuxN/GqOZbwh2PPvWdYSJP8VR+lgPZtqVjVq8Ota/ll8Bc+Ee1955csI9iPlGiW7lgWc+nXWA8FdOeAA8jJw6p6QXZJriS+uzPH/nyk8Rs4BEd/x7bsTYmmyF+OOSqvNsKkjDg0QK1UIGcF+33+KfnClJkz8Tiyc+xnrA+kQ3GQLgVZDuG367nb/X6+3UYQjRXiIZd0LV+fvEQV8/NQyZDf5+q36sCGYDFHNJuBbW3gPdLDRebGrxDZ+Zvz0CzgN2NKaPwudvFsyS2K49Tsjvp1Odyl9j17+I11YbmfFNPABCMWdVXh3rx2Md+P7RtSPM9+y05aB8Lszj1A5QYzqKLCcOCWyXKwJO983D4z+NqV2kOxaj8am1OxDzhUyfN9btvCMaZKdj3w1/GgRf+N4B7B+ZwFAiQH0u1lZUBobwV/qyIYC89CpIZ+75vhJPle5cJAdVu8BBX6fZR65EwWl4s7Unou1C3QAggQ0nnp/g2wVHfwVbbtzSHQvvPsP3iYDdhBcBelL8g2b6DS3dBe/PBkNN8m7OvEYlk/gGAGL+JBUR5RXwHT3fP0H3UejmqoGH1w7XjuEekMB2aQLyHt3578ckqh4A7E/mUxvpvrzd6PITjrUzmI9xdoGQBpZJEykvwAZ6P+P7ZjvWSHmVYNPKKc7dIKe9CtLgR/j2tqcbTovq3hnp/twmAs5DHXgyvs+j9a40Gw4Zd6yV70t3k/zqwdFfwVBmaUI3QO7b9/+z/rHxg6ZRol3qCQf7neDCvRIgxYbPpUD+TdRv1eDPP8K3enOb1rVv5PtYwfge2sp9h9Cc75+hO+8Fu78ory/DhlsPQMNd9s0aQj+fu9x2Y6potsWofAe7A/TRb6KY9HwbLA3f4fyGuD6+ndmiEpvxvYkUIKLyfZE8rLPadj5N3gGApgP12L7yvdz4MQO9EZ0tdPOFu9mcFmxb/JUmMeQAXJxAL6B4Aef7PMh3NlgCAWYDLOM7TrrDMil7JLiAv4KpOM/oBsgiBPyxAjg20SSoKq9d6TbmzaVJ7Q4yDwaMbjz+BcBa+E/z/Ynrh5aN726fz9oPu7Y6sOE7wPiOPuefYjxl6Dqv6E58X3w3/qvn3wyQT0obz1L0S769wqTFs+zPGtsJYU53zjbb8n3olu9Itwkv6EayV6t8fyOcv2sA4SyLmdmyn9rQj/R3ojtPsetRTReczkOy0PDQ3i7dQqNcyPm2gP8Tjvq2NhvXENd9dx6PXlhfpHhddql893QTUhOaFcHGepDABd8d3YArhmVdAZgudYcGYDYxHGdxug0+T3cJUF/o1kiz9wKrPLzqDufuVX0/QXcuG+1PzrXhvpOM7/rh5+hO57xwN/b4V86zZa0QDZLx7z+6P2onA2E96gvcjXeR76uKyD10B/zXi7nbT/g2wjV8Z7otHbjbMRRr1JKEZA8b/oyLaJrznbU3nO+BbmA98nKH0gGKXmAw4bt+x4PxbQH/Z59pVcJpYbZc3K/8+/XQL8sV3/H+y5FfcKA77b2BY6VgSWzJVtli5Nt9FAL2kJIC5uWDb+Bo6I62XSPfkW4yiDF4P6VWyCIDOrrT4nyBVZ7OR8O3BXDCxzJ3XbO+aJdp5RNGhDpH4y1fPUCm6k5Gvj9JtzXZ0Y15YPWiLiyvVQ6zmU4ffKsEkAqZb/E+3wD6rO9mAzvl9o6OixioI98GFPnONfQm3SzcfALB2CVIfPwGCDjM+A4Tvid0Fw0iuWiXCh0dKQe+69ztLSrfM7oZ3+m9AYQ8+6TCNNYXDr0tYL2TXY7y7PigFHUDBjhWECBwrBSO0umtH/j+/v1rPes1xbs8v9pV+vgrvi3hoK8xdJ8xwJ4jQr+hwq/iZUd33nsvsOoEegOLM0CaSQCs+swDK6/ZNo7oRGpxNdDwHelmlTHwPaXbzTyx4wuYGFD/xYhzFZpSlVjfSgJPu3AlAEGj49sBbhqkG4CC99/CtsSU6KywW6s49+6msIVvFm6UhNPG4W8WQT3EyO30iaHWptv9Cfwu4HIZl9paAbA5VlLxEfzbAzvlgSSv9eJZiNAOgoLUEduB76wOP9xpgZ05TIdMN2/txDf7oFtbtioJ7S7GyMi3a+7P6M4KIRHXkdX4HR3f379/RcY5dENpaK7srFzmfFtygb7ugVxtXnPBd8D10K06uotqbUFS7HMHsDMAYcI3e6IB59sAFsdtt+LFJVH5HugGjgNfwv6rXm5u6IJsAPleFSLv0T0XioQIANASUAiF75TCTQMOovBtzHqnbFYuhw2scqyi5du72z1X5ptQG5hgAQSmH7+mOxZvEuxssUs+zvz+i4BDDLxhOSO2ZMmjA0CAszt/nRqsOPMNuKp/NwCcwbONPUWHPS2AsO/lqnxYNViz8dnunu4bsUuQtmmGk2oJkfkGABfWFC9Xk0F0VcrRKr5/5cqxQhvrvoOlcmq9vfSrTZTVPBkcttAtA56AnfN9R3etoBKX7H/l9x41P2cqokp9J3+5Pk9AY1vXHHfKABbmeGFQycaXTZQsQxaRbgJYXi2seJaIlGIbmjGdHZTO/b2GGKx0uwBii/M3VvgU40eSAPCbRAzluXbN6bwLiOo1AmKspAu/GwDYj204gVujk2Uqvncxqt91hgIWXo5LjOEQf97zgXehO1dOKZodk9mXRdsjXi4hikVdSYlXOgIA4N+GByW3ACGkDFX5ekBhae3lt4VZItNhvzdFBS7orrJM/zz0i4tvQ2KB5MNsvrKWIRXPebcwjZ9bfqn00NfkAB9/yzfKSI+nih5tHjEByH+VI9eDDnJ7IBfqSgqwfhstZDndY4iwR7q4nn5XvJs6OWtc7CBFwzd/WuK7/G5hXodSTENies9sZJy+RZxu8nishRmtnl0iGBdgQWrJXfg7kJOg2Tp3t3i/Szei5XsMGaYWYG2bs8MbDlOv2Xr97E+r4OfSptDxgu/arrazTKKB7sw3e7q4XmbkDoJNlDQG+VZtlCkDrMWcIdKNBm8QFKJP35xvOuz3bAZr0b7I+e3SHGEmb+Pd810yDgwh8ch1QcfZQGxHtOoTwwXeUDXYrNKA2PLtPmKfPLrDNesB/QAnrqV7sIIY8OZVyjWOj6RFBSCPbbb/Tp84bXAg2TVamKO3qb8Vs6U4gGxMYHQjngIu+WLaoYsK28AmpdRjqSZDLs8Hpf7bpn5Bd95GZ2kCdl9qqwQSkTSrI3ZRL8fKN5R1dXtl3+S7nZj1ZmNtaMtdDDtONNvF0+cSAECa7ega0rEo0fFRQR5sChvaPavwguRxAYFyDnjsnG7mwofz2yszgh+VIO0SWFlLm7YhtiNpBFZxZmOD5jXdkGEse2qN8oYeGmTS7WrfLz7YMgBYrIeHKseL7ZNfGbUB6IZ+zrcCsgk/ey2Fzgwq8l0drg96M2J+kiYCCoCebuB8xD+SWHEABv+Rr7Mw5BCsV9szn46f3xHD+TG6eWLuV3Q7BdQafcc2sREx8n1Jt7dPNme0URKqCkS33271iDYI5Woj2pLlKNMdFYR3Dq+d5A4Y8B1AjhYBl1wzO8+2IFl3a8rfSMv3Uf1lUi0fAYDdau8/wzB1/2OwB5lHqc4ckR9yGiAzWR8c+6iaGXI3pMkwG+UBwFcrMlZdzVDBGSx8j5e9R3db1LTWqvsa5Yn3yxK6hQkJ/piDgn+Fd1ur/Uq+PDxuwoGwb4AARIq7+TWv2iwMuWBNkM58+/Vf8cN9Tnd28JrPvyyMVVnW/KCNnKCLOX7W3OxYsIuScPSby3xTafmUEgDNzEKL4QDVRop8v7/SbWyyP3LoKwNvIbXgile7cNeLSbyYKg3fhFpHJwCf9GRBVhNw2S8FaP4KPwJ9McHp/1AOQQZLtiw7nvDwcqIC6iJVXJSsnu8nLcto8Rz5jhWwWC/99GwnGmxNgzRy4Y2ZC7TkKcNFvrNEuvv5rF2Mj3Sf3WB3H8Wv9ItCt99SjJBcvK/5fQ25gAAEWFMUsnd0X1iMlDrSySSDANnx/ba3T01zaF7lo2/4buUumZpoTmKqW3+uu66BlMcYZ/imTKy9Dm1L2jYLBKdFHXUsrK58dzjW8qfgTyW6UPywLNujdnSxvbqh5Ztgxo6EFAH2B+WmHyavw2zSUZNvphZrU1DGzUxzg3f4vlQQcL6BIH0YdAu+HLEPq8v2k7IcGmbp+CDG95zu/Ly81xvodm2rvKR7r+dEeT4tuphYxK/ZxdIFxBDyS9HMJYvfksO9oXuuFdD8Rwckf7uGb6/s0oUXZZq1RjLfJlsE3ckl33ciG5oS34H9tRXlh4nv1liiYHQI1QbKDPVsyiCOpJrXKeuvhe/0lapUBv8VKQXAYpeBEPYF0xYMRb+eHURfTmODvBMrNjcgnxUi36++KQNdeOXkXpSM/GcTTmt1FyT17+evRobz0bVt8XKZDTZCO6i8YIp0T66S8Yn5ya30v7+eu5/5lT1gg2J0F75NM2VoF4BjzbmQom069wR6STdTQ+l3+b6iO8ubx+37tcNaek7XsFHkwHf+hDVuea3RaWyWH7Q+MjZArOxmk9AEwbffvGgGx6bP9fN3+nnyuMj3lW+UIJcaLsjKd1nFp8PhrpputqVpQP30cFBvEP+5smBKIsMkViiAzHf+tpgvKLkECTRKcka376qt5ztW2JzuyHeSF4tT2bJQH9/KWytzEc+0AAiFNnpfKmar+NQHgGNl1goun12xNQn56StWuqECqOFbcEPUlu8bumO0uH9MFdQ2bJaR7/R5/bjRrvVyyzcAmmsLvtWxyPpNwKyNH9y8r07sPxrRrzwfo3hIFietnFdP+L6hm95cMJHT4tbd2Wz3o5YMkwFA5tLxdAEvyxIASU7UwGmh6n7nfJfKeADAeaFyavh+Iby/ve/04xQhAAARFUlEQVTD6UjUgbSgEiMuUJpLmyGho4aV+1jLcx0BB2R7xZzuWFqR30FwvtvW9crWsryauz9zEPVK3FTd1/JdPq0fqvL7rJee93xf0F1XGo58vKLMK5d0d59P1tH6RtMAALApVY4ss3btliPfd11WPN9LRnBsr4IZGDb2LxNnVDl2/vJkPle+wTcQFKJdiu8G7WGzfD6AUCrjceJSoQx8ppd2ys73NM/EPNJ5Xi0P9Ams8jd4oYi7iR8re+bBFineeaUv30QBJSSVq3yP4oE95+/NJzoX90xyj9DbsbdyW/EqHesMLUbqdkIU+ppvoku6gay7rDvLekDT9yLKsdW5OHxdH5/M95HzxtepijdRzqftRsR6ef3YDNuU7rThym52HhTz2OrqSHE3tEzpfsG36g5IZc1d5TFVhZ2AwxbiRPR4haE+Xywzi3Ku5TuNLm3RhxU+QcX26PbFikLim31Y1sY1rVmke40a8h62rJxx06OF/CRGN7QLXWV3+rQAJDO1u0opm947vm3G//Uy3g0dM1cL07C35b6n2wGPK77p6mgvydIlmGat0ct82Sw/HzpEtKMq+GGRL8Poy4VmrJHLh9e6vAjY1/lXy3BCbG1N3/D9SRMKoHiiopBDykvO9/SeDiqHSXkZa+3GgBHNDXqfSxV30Jy5cf9eitcfdAoZ+nGNROU7/Vvnbu2Go9Jy7Qs1Cg8nec938hCiXIQXVaM43z3ENisYBEgMw8iLnlrf6PoE7a43aeDUziyTa14bHUa+0+sc6+WavB5Otsvmx2h890KqcWjmW5X/Qdk6rd725mQM8AbdF7KVcS2nCdVC9uPoJd+fpDuA050XJqLnu/TB2ghxNqND4p1Qis826HbXTdn3H91qU3kQIMSdLoPphC74Zg9gfEfhAZyu+H6xszFbGyw2ZWrmDynPdPnUDUA0cZgLsxq45Nt6gFYBQDk98D0UYvoAANd8v+pNj1O7/SnZ3aIZ5uzJ9eTCApHv8jKX2QhZxb+xbB6El0O1n6RAKpnT6gLnuC60jzvZ0T2cDb4RQCErKfNj4mtJvll8sT5nX7uWvJod6IZu+QZ7nTIrOSjA6RjOvuw67zTjz8p3zawOAHjw2X1D55NNgBP5LGL+gMeloZKQAb2/BOe7D84W+e5WzSUH7wXlBn0oaN2+AQOP021ulucsKJDyeWLZWr6tT0WtEw5Xy79Pd+G7WzG/nisi34xd7V7RDZFRqtOpuuC7Wd4mt4Elm6e91uiUcpTFl6sn4Q3djYtrc2bTEDzM3R3fd3ZEpSiRb6F0sfZpHWbeUpO9kmu6B75J5YcrL4iPn64J5/DCLOC5p5SkXjV8P4a1e5clKD5vf2a6x33mNd+QoV9ckLjaa6LM3wQgZGyWdETaL7mTmDGNWSckupbPZhbickgUuWyR7/Skhm9Gd6l4Wyb6W7qna0vX0901Z1PtWVnzwCORmz3y5tFwOL6J76YVpzYy3ea1bCEtADfmuejvUmugsFWXZx3dLd/sY2J7/MnKnD3xduYuLysi34xuyNBWBu9mqnmPt9fmme69FLb6IRK0i4/Q7R8S39qVlnYsGNN9mkGw+bvhe6S74zuPJvszxwK9f0wvQzcgAAe9Cr8c+C7scQKQYXzBXeAl3Q2T8Z93jgRE4buI2TL1yU2oo7v20c/TbeHpkHemCYxvTlpDN4QuZyisttrJuczffdS0rvuKZvhdqh7aBiyiG30OwPpnf8fuhoVvAcR6qJat8ebn6RU7lGVVNV9qFb7fozs1K6d77FjdNHKlEGqFL4ByWeqCmUEsCNoJVcOZs4cnvsvvroRSfGNPNF+fc7orc8XjywFNyAZAfmr1chUn6Tr7PAEd3YXv4drn67kbqGRk+i6DL3KZ8Y1WpdTSzWJS6DBpj3Cv9VVe0a3hUWmyetViW7oBoV3k+5Luwnc5dJRiuvKTfL3E6N5gQ5+H0Mmw88hPkyjBYHznOshLfJUf9MDJXo/N3JPyxeekf/UNAU1JBHV0jy3yDt99MGnWobNPULP6aVb/2gma0D12TAfgcf1iLD1QV7rsEjCle2N8C2BrjX9+YHfSdZ8DPPlBJ9EytdAdy6cdpvW8vbdgIqAZAVU9nrmW6Xt6V5+oe7qrSO0AeFtTtCLxPae7LE1zTLpZedK/pfvL2cFu4vt2KSfit/MS3+nId7dE1y4Iovjhwh+1lSNcJvIJVgch114/MTZaq7qBF5Xv6R5TXB49OqYnicIWWDM3eYGO7pdahJd8E1Dn7xTnZm9X/PxnQn3h7uFqjBd6rTnPBN05L1XZmh9rx996077P892F9ibc8L0ZLSrduR2u+L6RvpTaT9zN7k6sZ++pIp4Jxyu6M99FqqXS9eMANv2PfI90zw+rhXYX9sltAdkS/w2+uySPMxNOzdZIKQnmgE5TpVw9V7r7hQbp8oW4zgpAu32aWy3oz55wyUBuMKoa7HQ5ZGT45bof5D718Ks/rN1PT6XUdfdqKiJHTHITuru6fqusfLGa9OV0HLNMjkLw1Uh5N6G1Vu9mVMmRCDtRo5rh3QxMvQyr6KERpAbvrO9sB/TC8oD2f7yke9bzX9JtgUVmWeBSGK9u+NSybMC7JI+TB2iBeLsU6e1lIVrlu3iv4HeigY7uT0X1ZjKZRkx3jlA7GI2LrX9C+57lavbugockURfJTLqOXox+JnQ38uab1Pm7nIaRGKJt9ML3uQQZ3jOfP81FueIxfpIfJTtKF6x0MsRK7TikXr1w4kTrW97xPfR7BsfnV1P2fDB7GLlYs6WQHm2DaBcg3ovTrWvinM2gzt8zofSFRsSrLcUbZXA93a8db2Yy6WW6K67T3OgnB1C7NP4b5f5VfbZkpSu8h+AhSeZ8X56qvUF33S+E/o81dE2ev4P1OeH4VS30C/NUkEu+j7YKzv3y3ozvt1v9Yt5t+J5s5YYCeLvdk3J3sHlH9yu+J8/UvrF2k4sV8+c8YiDtu9unO/K0WHOD0CJWY/62L+iO5bg1h53EAP3JIYPdpk1xUl+g5kgs7WB+Yv7WYNH2BR4n8HjjZCxL4jtwc6ebrvUzdHMY6x/fNFfuO9WbfJ/f+++xsl4sNt+UxnKL8T2z8ZggZ5QOF+8uJ7Vya8jw/m5uxqboVJIyzgWzLbt8i++G7pd8ix+i+w2+tdu6nHET+aGE2cUrsoz2pXncuJb/cbof7P/1kxMYlzuNMLVU5fsNj/gpB9wFgcUnbp9PcJPgO2/L2KXe4nugOycGgaCqMq9v9Qmn7joWBnggHOkucwsuUc7QUs0v8MWKpgXmwGzM8+ePxIF5T+ZnQZdV8VKlKbrmSnxfGlL+YCiG1/O3oPXA1XgnfzjwU/V5rocuxWR2rJ3/jr13J80kBg8cT4UX3fvS4bGW/yxv6dt7ERxPhfWmUF4FvfnNxEnh+4rudi/Ie9dNBQji2zj2JRmYr09DN5vg1ZbCWuWRVSl2csTe78A5XdGIH9k3fk7KMP2P2GIy0Q7IcT1LqP/8sB8PtPJTfL9N92Q0qyVOfAdBogsmV8S/qM3PGO5XvN+bh/Kj/cMp4LZ722ubMG4pEkpstSaYJuDVZ2dvArBYhIvM1JMvpKbOqoVEdwnTVluU8d1GULsd4KZ0R743wD043cw2XjuwYMyR79YxqfJ9RffmnQEIQr0MtMOFXpi7cynhQ9xn+f5EXryiBFoPAP7eufflc9n/54NEw7djlkKM7taUvW9/M9jXNvZGyuUHtbNZU4g8i5LAsG++nDSnapvPIiTIAyse+T482kojl8UIaByKd5is9uURKZ3PGW94fzvvjojiExfr7Tth8gDQkdNVNF4ZuXG4+1Hluy9B3WoMoF/Qnedv7Ow4tGQKonzsLTnfKh2WAW2GugOjKUN+pgOEkYtivetVvNcJ3cMmPs8ehe74dnfBKdoJ0/sGgFvWWUuuB/2MzulNafiuWSNljX1zzzf1F4RudNUTvqm/Iv0xBqJp+H5FdzfSPgLeXsvm23TnH+M1BtdTBs8pkDOn5lvUvzivyul57XGXXRnAI/a2ABnepBsGoU4GxVfqwp0pLZKjyxAvbi60Gc5zr1eRie8qdSFd+S5LORkY3akgIXHWVwkrmnbAlhsiffue7+nc3UdbCflB7cyw2P7urDX5lOsNmvjod77fK3+h9VD+0t3yH1JxN3joEguloRvymu/0ZfZ6uTOWmh35boD0t3wzjWx724uTzoespZlnZ2tE1J6Y7qKBfng25roXhfZl6NHaj6a/uvNRsolVD+wzzRy5w/Hd5SMnxLJb94hrUZ7G1QCne0mvceakrA3dbUWacdGowG1TusSKDd+92W7Ht2oSnKWBxho1jsu53l1Z5EcplXnH98XKvOH7iu7IN7+0xJ+GV4xvb+AY37c5bda2rldYL/7rNIaNCBoiHXE/kgu+S4cor1emmopjZwDbis85ovcZ3wPduTNcnXQ+anG5K1Fr9Fm6Cb9Ls6NoS3g9fXboSdHRHcvm6MFyBWa+60Q18l3oxmLlhfdnLxbKpwAF9W1mdONxLil7V2s+wZ5j5ntCZib5vOZ7NNttOpZgdMcTAAB2No2VNoldqHQkVpl2GVwaupg6XIJEe0pbBoBxV9fyXemGQ+XbGzgALsdHf5PuXNfK/7hmrZXx5LCv0Eu6q77TDyYYuSKjqYoYSJABlysQ8ChTKRFb4rtckJqODzW4OemM10nXuBKhtYEtWRQnWl4A/UmJqsv3fiFgGsNth4Hu+JMWTSZQLQGcZ/PNdL/0b6U7RsyeLNUICE0LWvAWzGEKZnQDD7kAOOEhmhgt5Woz34w0RtD8i9E/5D0laEM3IADpnZ11c1aGaHefrmkq0xjXdEgCde3CJQCAKxLKZxNZUFuG+LbBeTgfxeQVWJJ47TQKZ2eaKpp3+fldeF/53e/9ad38t/4mzTBpRrrjN3N7mPGEv6IUx3zlOEP7dzMU5nZnnf64aN49W75v6V4wO3XNfN+kSQUc3Eh3/LnL85s9V5kza/o3vi2n+4LvKd38wdZaaw27z8Jr5CEXCQ3VJx0QvBiDdC4OPd93hxwsQkpLd3zmVMvXjDCM7y66CzzXbca5+7ogjLwQwvDZII6IiBLdOcWN84ln0zsKhNi/+B19XCMMhucCYAudn+Ob0Ff+UAPFXXoqc74buu1zuoplfE88G9jPW/xdU5Ut7k3uBp7ufv8TAMTWlkT5ms3w83SfyBFYZVc/j7MeNl3Qjeh014oHIKNlajr1CiGEEBTOEBS6kIDKDy6Aie4hNkP3aHaSt7TTsSTpoYLsW8yc53mewIIxtMXgwKTZjCYIpCd2Rlk8iJI+fh0riAg4cwgSalQnWRQCALUO0/xDS3Bdh8DD34RHKnUW+GdTowQvkFsmxHfIh5RBxP45DiMkEBTXIye6IcaUOJ5qTf2cLk2QaA4+OaZx1HyAnxqPEwalK/lNWrqXiz2qIECl+rk9uHqcqh+bNTCzyLysjOv7U07T9c+eRtSwevYHWsjpRo1n3rQPzXQ7/7ZV6+flymb0R+V1Dojc9J8OLIzPtKqfoDR/1+5w0AHkchDyy9sH4FipWNQnuj+d5KXTJ7z8OokhhGuUt/yf05cEov/c5Jt9uOj/P3I3fEwCGL0l71ndvB3Fv5frFEcXkpfONHf1/MekpewnH/RW+ub5k/9h+UR6vobvlNd3PDAc5VipNGak+/PV14RIMID91+vrJyFcp/usMJsUPvI0KiagvKb7v/4MHy/MWmIJ/rEjRQA/QXWV3Jk98Jlh/h948gtpw3v9d8p/Kd+fEMZ3WcuPwQxGGabMHzCp7UMkvEomRmKyqLjQovRRlQHs7YFY+/B5UMrm6a8u+BkpRft/eDyauXJ9cZIAAAAASUVORK5CYII=;" parent="1" vertex="1">
          <mxGeometry x="20" y="160" width="645.65" height="120" as="geometry" />
        </mxCell>
      </root>
    </mxGraphModel>
  </diagram>
  <diagram id="KWA2KXa8Nv-jQhaE2r4Y" name="Page-3">
    <mxGraphModel dx="938" dy="606" grid="1" gridSize="10" guides="1" tooltips="1" connect="1" arrows="1" fold="1" page="1" pageScale="1" pageWidth="827" pageHeight="1169" math="0" shadow="0">
      <root>
        <mxCell id="0" />
        <mxCell id="1" parent="0" />
        <mxCell id="SmiabninvvJREHU0MKJ6-2" value="" style="shape=image;verticalLabelPosition=bottom;labelBackgroundColor=default;verticalAlign=top;aspect=fixed;imageAspect=0;image=data:image/png,iVBORw0KGgoAAAANSUhEUgAAAGAAAAB4CAAAAAAodqgSAAAAB3RJTUUH5wsVBDEhWr+oFgAAAZ5JREFUaIHtmdGSwyAIRXFn//+Xsw8727F4ycWAbezCS5tUPUEQb2w7ZK19LR6/AAUoQAEKUAAREfk27jcREc9u134/zKaGB63v7BjfbooBtJtuaDeFAN4N/Gw0RQDHzPiNZVEYtv862AmAw8UAYelKAHFpfA5IkN4AcDn1YcfULEKEndLUC4hUH9A32YORMACC5XPorgGpewECpONIDOKEz9vR5sqbo3XQA064ey3iOWCJ326IQ12LPKbGkWOzHjT3yH8ddJiCiT9EPTnIY1bdPYuUgWXxeg+yTyE3i8E/ASRHGXiQSxiqabZuebUuytZ1s1l0sPg4tCkZfppAt0w9ZH/pmVDqQTRpFUAPRyd9FjBnHnqsFo2E1Zv+aO940+9s/RsOM+4iWWiD8Hv60QO88ZbZcID03b2UHQrYzd8yLwD8BFyH6GHIhPkeZadjTdz4I7VpZzPl2niwtx9InZlrMrNVxd02/QumXdjPg2UAK6ViL4EH+KYM6pJueVEa++MZC58HIV6YLGX1dPa3ApBm+6RpAQpQgAIUoABn9gO0ZEDtpoUHLAAAAABJRU5ErkJggg==;imageBorder=default;" vertex="1" parent="1">
          <mxGeometry x="566" y="330" width="96" height="120" as="geometry" />
        </mxCell>
        <mxCell id="SmiabninvvJREHU0MKJ6-3" value="" style="shape=image;verticalLabelPosition=bottom;labelBackgroundColor=default;verticalAlign=top;aspect=fixed;imageAspect=0;image=data:image/png,iVBORw0KGgoAAAANSUhEUgAAAFkAAACECAAAAADewNiCAAAAB3RJTUUH5wsVBDEiw7b5rAAAAbRJREFUaIHtmUt2wyAMRVFP979lMqtt/RHCxo00SZPiy8tDkh2A3hbFzypwkYtc5CIXuchp8TsyGFprzXvjBHkgHH/2ywc+tqgZxDfO4DX7SLp2ljwkUeJzuRH57gyFTjkM5lVTzTmKGc0hMKc6pwY5OUnVDZT9xo60Q6+7diU7rKzzFz8eabjBlhdfc3g+3Q2h23SPK9EVtLt/ODdMtEpWr7bQb6yUKzmrN1MyCn2irjv9lM+GO1fVaPBjuWEtqWI1IaN1iWfLpBvKxOueN95f3TTiW2N3aU54MBXImTFJHqnBNPSNbqTdVrZdwQnyuhr8h5XyZeSs3Ljtuc4xl/z/bVdw6HkjK6z7YBaZxrKONPElMDkvo7fNujB5JlcQecZmJOONPg/tmeNQvXvqF70qitlXlMmZYfgMYkoTwYO7ahMZbucGPuuA1lp3TOjPujNLOYX5i+AKUslkrv2rm9qTdIdlLrzNjaBoz6lHCM1elOGG83TJ2Dn0B6N5FC2Mnzl51IWoHcAzgXi92VsOej+/sy2zuxbqouAE+7Oun189i+zptLHYv4sWuchFLnKRi1zkc3wAK4lL+sMpZm4AAAAASUVORK5CYII=;imageBorder=default;" vertex="1" parent="1">
          <mxGeometry x="477" y="330" width="80.91" height="120" as="geometry" />
        </mxCell>
        <mxCell id="SmiabninvvJREHU0MKJ6-4" value="" style="shape=image;verticalLabelPosition=bottom;labelBackgroundColor=default;verticalAlign=top;aspect=fixed;imageAspect=0;image=data:image/png,iVBORw0KGgoAAAANSUhEUgAAAFgAAACECAAAAAAxArO8AAAAB3RJTUUH5wsVBDEiw7b5rAAAAadJREFUaIHtmlGTgyAMhKHT//+XvYd2OkpC2F2xh3fJix0rn9s1kAy2buWaeFzETXCCE5zgBCd4NfBTGVR3n3vFWFFcx5eUUvny33J9Aq/Y6PV/AA2GfBDAKJfLCphaOMUMlwFTXALMcXEwyb3hIjQD7LqEglmLUTDNXdvj+4Hdlf4yxVBpGuWEx/jF8m/kblBWDxXzU8MDW4rVC/YLA8WqXgMeguD+hswKvG9aZEpvh0Nz9gw4RB0jniDHZ0k1pppiIAtDsJ7FoRVYg90L3Aqy9W/Au9G1+w10x67ikKumm31oW3CBX4S8RWjIRaK1ws2wlitWEDp7TzWFdNiH5xRPJb62Hlt54l771zxWVp7LmkIp3bBNDwEMkp0W6mAQQOm1hGbas+DolvtYpGFJ8H8ET3wdaWu3OkkakLVCVN0OczyWyGaQ1wm9L6rmTHM2DGH/2GUbjJJukJa7TxA5rDtzwI7rErjleE9TesEypJYJVsx8czNnT0iNBC8KRpa301s3vdQTrRiT1/L4b4KVKv0a+D5OXd0i4OfG+be0BCc4wQlOcILPxQ+GtkAOAhC8mwAAAABJRU5ErkJggg==;imageBorder=default;" vertex="1" parent="1">
          <mxGeometry x="104" y="330" width="80" height="120" as="geometry" />
        </mxCell>
        <mxCell id="SmiabninvvJREHU0MKJ6-5" value="" style="shape=image;verticalLabelPosition=bottom;labelBackgroundColor=default;verticalAlign=top;aspect=fixed;imageAspect=0;image=data:image/png,iVBORw0KGgoAAAANSUhEUgAAAFMAAAB6CAAAAADmejAiAAAAB3RJTUUH5wsVBDEiw7b5rAAAAXhJREFUaIHtmt0OwyAIhWuz939ld7GtP4hwQBt1gaumtV+PgiimKW/dbe+PDGYwgxnMYDrtpTxPxxW+ICShaaI38v1+TvzHOOavacGsGEVQJsqRoMRHLiR9a5ceOu3G7INcJuaXZHbajz3fd6dQeR75oCSuaa7Lctyf3xTaFeN5vJWz12VS/rzqKfIZL2TbNsDvmUWKpq0dFZw46r74lB3pYlIk6Yred5VYjM4ceUmVaWfqSON4Mv5mQs2kE0OamCCy0e/8lG1iVrLAHPF5Wi1ZNTCr+W+2vq/OxOc7vjn166wve5hOdKZ/DNJpQ0I6S6S83AM6rchp4lPb6MyicxFmtTpvYKo2Ni99Ddgxj+m7vahfxUdWJlLUqEypuKqYEkvEQVjpJet0IWWm82xIYnqPmyx+RwvZ0fGJjkVrLdPMBE1i4ocLhrML5yHLaL+jZlmP5o15n5Msue6ReRTMv2FqZ6rX+Ok1jzJ7qeiI/y6CGcxgBjOYEzDfIv898dIaRMIAAAAASUVORK5CYII=;imageBorder=default;" vertex="1" parent="1">
          <mxGeometry x="193" y="330" width="81.64" height="120" as="geometry" />
        </mxCell>
        <mxCell id="SmiabninvvJREHU0MKJ6-7" value="" style="shape=image;verticalLabelPosition=bottom;labelBackgroundColor=default;verticalAlign=top;aspect=fixed;imageAspect=0;image=data:image/png,iVBORw0KGgoAAAANSUhEUgAAAFoAAAB+CAAAAACB/ln+AAAAB3RJTUUH5wsVBDEiw7b5rAAAAbNJREFUaIHtmc2WwjAIhcHj+79yXLjQhH9oa1TYjM6Qr3eA0JbggLPsdhq50Y1udKMb3ei72xMBACBwv0PdF5nfeel+1eRy1iUU1Zzi2XR4KY36xWW0LdowKdZlcLWuUVPApzGgWU5leTfKKlh0KNCiM4cOplByP7E90TSqbUNSyCXTpXown2w9q2rqs9IE4fSiC9omi3ziOG90sqLypvOD98bai99nVGuah6Mb7JhGu0HkVZs5VtDV2+OOsf5WtJVHBW2WgOFQCkj2cTLam4i/iK6Pu46rEP9Gj+/FdcWedf1v6PIrx68FZCf02hpqaLXR1DqfWkVd141Oo4N59N92o0a3wa6xzo61quTSM59hBdVWBWnFp681azOtet/3xlpfXdBHnvQaA6L8DCcXa2ecEmhvBsicb13omgPm5nz5KiHo4ZzrzYs4T2aKs05ocISPZADAl0acfjDGig6dy6CgXPh3WPQQBfo2y9Mub0+HtBJBtZtNatVEZ3STDVE5Xsu+FTjMOKvU/syWGr4+6nbp4QnxeP8Sya6NBn8IZosEJFiQHtVJ2/X5utGNbnSjG91o1R4GjEv2uve9+QAAAABJRU5ErkJggg==;imageBorder=default;" vertex="1" parent="1">
          <mxGeometry x="10" y="330" width="85.71" height="120" as="geometry" />
        </mxCell>
        <mxCell id="SmiabninvvJREHU0MKJ6-6" value="" style="shape=image;verticalLabelPosition=bottom;labelBackgroundColor=default;verticalAlign=top;aspect=fixed;imageAspect=0;image=data:image/png,iVBORw0KGgoAAAANSUhEUgAAAFsAAAB+CAAAAABuPDLAAAAAB3RJTUUH5wsVBDEiw7b5rAAAAgRJREFUaIHtmstywyAMRSHT//9lukjbKehy9cJ2OyNtkthwELIQSE4f7TJ5XYcudrGLXexiF/tW9oelUf/+4ttcu9K8y0vmASgbgD3jzPbu5Jd/dPIsDWjeaM82oVvr+3ZbthHNZOODHnLfPVHsJ16lMRzaxG0P3AGxA6aGXa6MJ9LeQQcBJmfrcuo6/EmAIQ6O5RMrABxOt7foY56AygYkDJfT0WwCOQPC+ljskvBB1cNm9tmEUNGbDqZpItjTxJTeyu3cmufwHJvHh5Oxap3Fc+eq7Xb1dfe3ROKJVaTt9fi901ywRMOw3oYtRLJN6x6feJaL+t7QzQOuAmyCOJ3+3IjpbP9DG2xHFVfQsyQGoAqvN616a2ikzz/I06AZIdvvcbefB0+xe7s3fp8527/78PNJHI0EsE+hAfsYWqz5BFl0fSn3E+jnazOtGU7EYTbMHjQ6ZevH2Gj9JC1JtqOmdFaybKb4U3pns7b79A6EEzI5orfNJESdv+yDsbpmfgNiemfhSy4lcfyJLu2d9ZPMLrfotanTw6RHm6Rh39lprtrP44Peqr4rJ3kbcAtdbebNd4bj2frYvmzqzngSKOma2SclWIcwyZl3Gc1QWycNA0Le1bmUd+bzaeXZ2uErXJdI3f4Y2zYw9rbgKWR+aYIh3li1cmhNtf4XVuxiF7vYxS62Kp+sAloT/K4WrgAAAABJRU5ErkJggg==;imageBorder=default;" vertex="1" parent="1">
          <mxGeometry x="283" y="330" width="86.67" height="120" as="geometry" />
        </mxCell>
        <mxCell id="SmiabninvvJREHU0MKJ6-8" value="" style="shape=image;verticalLabelPosition=bottom;labelBackgroundColor=default;verticalAlign=top;aspect=fixed;imageAspect=0;image=data:image/png,iVBORw0KGgoAAAANSUhEUgAAAFkAAABzCAAAAADWV/EjAAAAB3RJTUUH5wsVBDEiw7b5rAAAAaVJREFUaIHtmd2SwyAIhXVn3/+V7U2mbiI/BzAp3YGbmla/HEExpH20m+znLnCRi1zkIhc5ZL9ox358widFB3v22QRHgN7oTDtMBmEOsuc+ENkj+SvXM0JenAF55796IxtZzxtkuIDc8UFv0CsMWHef0+xKGRDZb/nIupfyaQ6T+Umr7vBr1tABbyjoiJ9ltIW8JLguXFnISua8zkAma1GSfhfJ/nSkkEPgx/ZgTKVEttpg2goZmIB7bYQMJ5MbRRANk5kdyKN58nnMaK21QeD70jgMqwc9rwuNEaRUG8mdc+CaSpmeZzKiCFXNaCbCZ0Ujfva97qXJjsy0DMmwu6dh3kF2ynui43S1gTxvMQwBIL3BjmeKFvLrZyPoOg2XsBJk5zGrn4O7zu+F7AJTgzZFkEBvXBsXR+fKG5St7siveTUpI41jkufQ9OM3tR7gyxpjXaLvQfTU0/qxu1t/ZlE6RHa3jL6S5wNgNDNdyBsLlX0VkK2GjVhSsrg4kmoWRT+l+Y8GQ0WCkCca5A6ySZHNz/e8FPRfPLtlXXVFLnKRi1zku+wFxhE3+uFuwpYAAAAASUVORK5CYII=;imageBorder=default;" vertex="1" parent="1">
          <mxGeometry x="377" y="330" width="92.87" height="120" as="geometry" />
        </mxCell>
        <mxCell id="_TGo44fl7n45EmKfT9XX-7" value="" style="shape=image;verticalLabelPosition=bottom;labelBackgroundColor=default;verticalAlign=top;aspect=fixed;imageAspect=0;image=data:image/png,iVBORw0KGgoAAAANSUhEUgAAAIAAAACACAAAAADmVT4XAAAAB3RJTUUH5wsVBjEqzuml8AAABHpJREFUeJztm79uUzEUxm8QGbLAhkQZYGC4PABTaUQlGJhYEEuKmPISSHRAyks0kejCA7RjBwYCeQVYKiEkhMTIwMJghoZcH/vz+WPfUgnsCRz7np/P+Xzsa98OXHOx5dIF268AFaACVIAKUAEqwD8McHx14Jc771MN3TmUl8hQu4Rt+weYpIY6OvkLAHMuKtAHvWpgPJhyP396h2p7G/yH6yIgckFfHlhtbX8TG52exnU9AYxT5tulJ8pfX0GLPryfEP7w0Dnn3NGVTc0s7tsDAJz1TbO7adARnAeANz6/TP02EwagVAN7j39A8wf+f+8zDygDWAzegNp2eUArrv3x0ue48eUS++MlqBzOn4dV35GXygGOn6Hn7r61PSU/BDD6w0Oj/ew8gBMvXnLZaZjpgQXMfLOP91BjTgKZIdhHq97w8IXQbXgDVOb4fwc9PbHj8SOAtiQZADj802T7LlXvgl/tITh+BMN/ACrDchtVWscPN13rdU/oAFtZAeDSh7eb69IJBqrECGDZcJ8Vz2NQJjYAuPNg7XsOwHEyAUD7SNpdmUsNLQAZ9v2UAfKwDQDaT09/5xxxQPGrWY59P2dhB+gBcuz7kyYlVS1Aln1/w5pwgBYAzn9Bf4Q6OVd1ADD/ivb9XikH6ADy7PsKTCcrDQB89+Dzn3MkAMxipQCA679s33cb4y0FANr/sOtfhM21lgHQBODW/3Xx521SgRoAJECFfb8bGy4JAAqAG1HcjceVAJAApAToaAD45gIAEoCYAAwBkABQBpAnIOkm6YUHAAGQJyDtJsWLBUABkAVIBCD6iwNAAVAI0BeAPGE5ALAHUAiQYMv+YgBAClIIgCQOBS8DECtQkQFJL41g0wBAgQoB+L00vGkAkIONGUjDywDEDlA4lAhQwcsAAAfIiib2NQJgAGIHyAMi0CoBpAFiBygGRKaNImNyAHEOkB9I8pZKgAxAlAPkAExszXmAaBWQA0BEo1iyeYBoFRADQOwrJ4ABwPQW1mgnQBoglKA4ItpBOwHSAKEDJEnPTa3tAJKkSuxDgHAOCC6l9vUTMA0QpGHhkWX2FYfVw+gOipQFuTpoX4nPC4voAfVBZGNKQGoP8A6gVyftHF7Z8CVmohpkHUB9lTF+KEJ9VpuU2xcBOAfs9GBf0gCjgNUWubjNin/TIA3oTpeCbGWe/0oPPEj9sKAXt9Yb466Ay+sv3T/bcaLbHr22z7cv3Jzu4Liutqj9ab59HmC4DavDm0PVnWGyxLLoZjeeWcFibdr/xIX9gAFFYPWEDn909DB78E0jhOBWXLUf3Nu3J2X22U84RnfDmnD4JfJfF84DN0dBRTj8ZlZsH4lws8QF2S16XSuU31nhAMj+Mj4yy1x9ZABvpJvtKDixM+5+DQDxZRs4r7O8fVkB6EHXa/ixWk/DTwAkv4vtffgOL8dP8Rd6XVx+FiYfUhAV64L+vO+cS7wbJj5SPAfz6hOSdTG9eJcAwLuqfhKPEiBE6CXrwjKof29YASpABagAFaAC/PcAvwFD4SeRVab0PwAAAABJRU5ErkJggg==;imageBorder=default;" vertex="1" parent="1">
          <mxGeometry x="360" y="563" width="128" height="128" as="geometry" />
        </mxCell>
        <mxCell id="_TGo44fl7n45EmKfT9XX-8" value="" style="shape=image;verticalLabelPosition=bottom;labelBackgroundColor=default;verticalAlign=top;aspect=fixed;imageAspect=0;image=data:image/png,iVBORw0KGgoAAAANSUhEUgAAAIAAAACACAAAAADmVT4XAAAAB3RJTUUH5wsVBjEfmFph0wAAAzRJREFUeJztmz1OHEEQhVkEwSbk3ADfwViyZJ8CJKK9hCUjS2guQOIAAiccgNQpP0ciXScrm6169V+zK1ld6XbP+6am+3VP1+xifbDfONyz/gAYAANgAAyAATAA/l+A+wWMD887ArheeVvOA3B94256NIf+5YO/7RwZiOjPkYFPT6Hm6+44l7U+g+bdAC+novzxL9ShGeDxJHT77QCK/iR0aQW4E+XPnqQ+nQCy/kru1AjwXZJf/lZ69QGI+sLo6wa4EOTx5OsHkOxHHn29AJK+NPmaAST7U0dfI4Ckr4++PgDB/qzR1wYg6JujrwtAsD/F+3oBsP04098AgPW96a8DYPuzJ38XANT3TP4mAGh/rsnfAwD1Q+kvAUD7C6a/AgDtJ5r+AgDUD6c/D4DsL5H+NADSz6Q/C4DsL5X+JADQT6Y/BwDsL5v+FACwH/fS2wHA9QNLbx0A2J+29G7cQn1CIQCgr6X/r1tpBBEAbn9q+v81bwLg+urse9e8B4Dbn/ps3+O2AHD7Uc1vK10dAExfN7/tdDUAMPvTN753/rY+AKavm9+2vp4rFwCzP33ti+i7AKi+ccnt4VI/IWH2Z6x9MX0bgNmPsfaR4WJuVCwApm9cMapvAVD7s7Y+RN+xU9ABqL712kuGq2enpAJQ+7NuKKGvAlB944HS6eI7JVAAyPO0JlROXwE4j12PThfvTl0ECD7PrL4EQPNpDT86XfxbZQxA9S0/YbuFiVxHTiAEUEo/8D7Zaj1RqhiAV1+MFVtAQwBy6ScfMgCvHfsr7y3BAF7vd6q/q084voi/zPL9AInl41f5R1cGkK14p8q0Xr8p+rx8TzxItlSlTr4J18GFBuB+97NpAwDOQGaROitJArTpJwFgoSR3VJgCgIWK5FlZBgAWCrJndXEAPP3SZ5VhAGxAkTpZDQCv1Xn9KACuExbOqoMAuE5Y0Y8B4M8UaofFAQBp9UnXKoIA0vpb0/cDSFvVUrEgACB9JVTVTx9UbqJSrIkApL8SagGQd38N+uDFxB/L24+F3psoAKi77R0AHP/s0C8A/Ljq0M8DTN9a9A8W4+9+A2AADIABMAAGwADYN8AfVix7ZYB+f6kAAAAASUVORK5CYII=;imageBorder=default;" vertex="1" parent="1">
          <mxGeometry x="232" y="563" width="128" height="128" as="geometry" />
        </mxCell>
        <mxCell id="_TGo44fl7n45EmKfT9XX-9" value="" style="shape=image;verticalLabelPosition=bottom;labelBackgroundColor=default;verticalAlign=top;aspect=fixed;imageAspect=0;image=data:image/png,iVBORw0KGgoAAAANSUhEUgAAAIAAAACACAAAAADmVT4XAAAAB3RJTUUH5wsVBjMe3WszxwAAAkFJREFUeJzt288uQ0EUBvBbUUkjsZImJUHUwgNYNSrY8wJYeggLdngFCQsSL2AnLEikYuERRJAgESuJdFHJWGln5sz9eu7VusR3diczd+Y3M9U/kyNnomyjJ+P5CSCAAAIIIIAAAgggQAL2cl8xL3tvxDcuN5u25HMzX219B6LNeLGkgxdO3MdqJd1zq/58aY9gtODmr+8pBxI7cDSgemwz3c75G2eMABhjjFlHg4hdbEU10dwAEG8QK9cZYmZHgOBQkxft5jdmNxkbAKRAM39IAA4NAvzXY35fM788PehGf4aLC25eLoPOVkx58JVp0Bm+D8y6aRUNZIUHzw+jzhBQdJcypps/isadDG8cBAz22xleiR0jTlaCGwcBlQk76x3SAoq6d9P2AG8pKWMCtnbl+4B7dDgSAPwPwM4EBozD1h8A/EAQQAABBBBAAAEE/CXAfT1jQH1b2/P4WT9qr75rdJZL0Fkbf+k1QAAB0Zzuikh9bZsUUFhTdqzsdOx+wAn9r+Mu/TzvThBAAAEEEEAAAQQQQMAvB9xmDXAi8xuStHHzDcCDnXw8aadMUlIDAZcOvvGoHfTlzc6uTlMDvJXcaQHOxrXZOQi4dlYSHcKlWHHuZI0a7JyghgQWo4AaElh7AgCBewaVQFbRxFcRIUCwNgsNFcuO0OVKGBAqRmoGqMqBBWXh7RMAODdQKMsARU2VAKB6NDCSsghPnmHmn4bgCAJnXY1vbDXJs7aOVTTm+J9WBBBAAAEEEEAAAQT8e8AnSvFqbNuXxEcAAAAASUVORK5CYII=;imageBorder=default;" vertex="1" parent="1">
          <mxGeometry x="104" y="563" width="128" height="128" as="geometry" />
        </mxCell>
        <mxCell id="_TGo44fl7n45EmKfT9XX-10" value="" style="shape=image;verticalLabelPosition=bottom;labelBackgroundColor=default;verticalAlign=top;aspect=fixed;imageAspect=0;image=data:image/png,iVBORw0KGgoAAAANSUhEUgAAAIAAAACACAAAAADmVT4XAAAAB3RJTUUH5wsVBjEqzuml8AAACOlJREFUeJztW3tsFMcZn917Ond+nmMwhw02NjY6uNixUwgQYiAkChAIJiVOGhkligKqUinKQ5ESkbZqpVRV5SipqsQtJG0iWipjR20hroBgICSUV2JMAibIcH5BsPHrer6HbW77h3f2Znzz7e3sLY1aef+ab+d33/fbeXzzfTNzgoS+30f8nu0bSaCjCw3w/8pslPldu3yenhXL7r/zDs4fSkY8J58zIYSQILo3tXD+1AACod+WER+08UCI69dJd8GxnR9R8qf2zMr/XhcE3yqNU5jxNpeK5Ag0ZjA+aetlHhXJTMNDNZuHGa/PtHJp0f31gdchla8HONSYfsb52fgZePd3o4pgXrtxdspIFLv1/GIORTq/v/VuUolnb2jk7NslspT+GocinQSaqwnzd++bfPlWrjD5Yt2F203geAlh31Tnn3x7cZt18k3Rn24vgbH6vJh5sWJQef8efvnTsGZleqbh8Ds9MSH/+VRctBQvlkttl7Rr4/7+YL2D+Hl+I1HVs3XypTCvRbM6/rXgyAex6YeK3ltNVPUcEySEEJJGBM3quLvg0munCOmxCrLOXiZ7gju+1ayPtwUuP0c4WusD26nFoBhPjl6/pLUNOFtgpIH4fmFN/Ryq1veZrM461KdVIyeBXXXhmDDj6Zl0rdkdlQuhGVo1cnVBaOdLhGSp3jylfv5cyzhCCKGAOMxaqFkPVwuc+YAQhEd3TK1vPztpH9ktWu1zEbj6ZhshzdkycyogrV8uTIxpVspBIPzr5luEuLYqDtEdlAuCrT+uMmkCY7sbSPHBF7LjIBEcEDgc8ZVJE2jfSeY9WbWMoCPSKReC2RHjCbxIekDzA6sZkG6XXMix27Sq1ToNA3/4LEqI+bWMNh6buIFLmZoXA60t0LabHNimmnUM5pEvLHIpy6k569dKoP5rUlpWy8L0j8luADmtmltAWxcEdjWSoyp9QwkLZVPWQDHORYCPtha4XDdKisUPM1GXcAOIZenGEhj/mPIr5uo5TFgUo2x2zW5AG4Fvm0OEZCqrdjBhrSNyYcIbZgJ0E9hxjpQcW9xM1HcXcRfMm23XTEDDIIw0HBwnRHHJVicTZ7+KYUHNa6GmFuj7S4AUTRvvZOO+wcG6UA4gdBI4cpYSPSvYczzcjv2gLa/ASALdTTdIMe3JhWycvQOPVLEoxIboI/DJfkosrQFwfZ14COTmpRhIwLefHIHIsSYPAPYpztrOs0uViIB04gQluzZAyKvYC6C7OOwnboEGehtoVSEEvDEkFxw52h1xYgIHv5ogxfRKyMlGv/TLpchStqPURWD8jz5KLngCQp4/h2fnklKeZCMBgc9PUmLaE1mgol45BjFnL+Kwn4BA6IiPktM9ILQBL4WS1w+CuAkMNpOBIBIqFkDI61dwTjDLm2YcgX9cocS05bMAoNR7GBfTl/PYVycw0niTksdWQdH2RAsOmYQqvhMLVQJf0Bsd4mMzoFhz8DxeMVMLUwEMP4F/n+6iZFc11API0Yrj8MjCWxCIm0B/Iy17YB9/yC8TEFbOMxlG4Ci1DiP7D3Ih5OhpnBWaq0BfzU3Af5oegraHwG/r+ifWU7iCz74aga7jdH7lAfd9QkcvyP7CVMp3YKRKwHeT8kL2BTkQMtKM8yaTl28IqhGItl2n5bVgrHuxG7eVu9xqGIHOw7TscVvYQIT6fHJByLqHd+sVxEd9tBcyly4GkAg1YTcoVvPEIuoExK/pUMi5DtRx9CTeO5hbyecG1QiMddKxdTaYbEycUk4Hiqp47cME/HQshjLBlbhDidtdm3iHoAqBC99RC49pNTQHpPPK9qV7Fbd9mEB4gHJDqQuh3pUOKhHQvaCv1kHgxBAl5i+BgKdPYN+TW8VOm3UR6LlAuUHRDUW6oU/PyyUhw8tvHyRgDVBjUFqUDwAvK9cHnI+D4YIOAr20G8qqAGKh8FE8B4W54DjVQyBAG0x1Qbi/4bEqLoVjdh0EBjooceY8ANfSjku5VdxeUIVA+Etqm0n0An5w6GCvXDKVLNN1HwUgEIoGSdGcC+SbrX/HpcwnoV7SRcDWRa29ppIJJqxvDw4bzd7lvDeYVAn0SdS+SEEJu3mvfIJLzufn67IPEUjtpURXERv2seIul1SwEXoJXKdXogXsU7C2fTgScayCHJVOAk5qn8vqYu+LvKl4q4LHddqHCOQMkhUpBUEGZrzpEB6armf0NgBEoCOVXIwzslkjfPCvyjGaR3cDQATc1KGP6UEW5nMlcTFvAndu9BJIsRNpmFDYyYD07LmG670Pad+e10igN0JkOKLImuO7ldzZ/DIwS5MgUOQi9kKiOUPxiFMNOGKxrFkKpiy6CUzMIlyfJT0zDhD4Mw6EUNY29hFSUgSCIpEVRFPiHfFXTYqvvu/eJOxDBNJyZ8cE8+y4lLf9DSUfnf9jjvMRzQRQRXms7BSn7kyEGv6lKPjhfcnYBwmUl8eMBgujU2rP7FYOUis3JHcvFiJwsztWkzs6BdX9m0u4A+w1uiLBxATEvFhAMDClAYZ+uU8pP1zLszfPQSDLG5tbGVZ6EB4+gBkJFb/QF4glJoBKYlu+QogahAPv+3AxezuYMydPIDa4r42T8Uj7I0ochtY/kvTtfFCBqVjZcMvwE/HRcL1ykCzc9YrmG1v8BFChckAZ9sd8vdT0rhKcLKpLugPUCMxVToBHhpTrA8M/3x67SvEU76YkHwHkwfPA3KGEPvsblNmZ8uorXEcj0APf9gxswZiy/ujkqx2xWDVtR4T7OirrUbvU+g5ughmb9/gkSep6g4i81n9jiH1VAueU21Jm16Pv728kfd62qDH21S82v0rse9osZIZec9Eg++oEWlayx411fZdR9tVvVley9/28dXuhM3wdjyq9YyvjMxKhyrDml6REl9tHj8clvcKzZ4y0n/B2/a9mUSvh4t/fMtR8YgLX6u9RQq6Un7QabF0DASmw90dOGxIRuv9D461LkiQkvnnY23Mg+6S7lnmDL/lHAwEUFceTyL0MIHBbn/+nf1xOE5gmME1gmsA0gf9RAv8B/VBNcGaGthcAAAAASUVORK5CYII=;imageBorder=default;" vertex="1" parent="1">
          <mxGeometry x="359.99999999999994" y="705" width="128" height="128" as="geometry" />
        </mxCell>
        <mxCell id="_TGo44fl7n45EmKfT9XX-11" value="" style="shape=image;verticalLabelPosition=bottom;labelBackgroundColor=default;verticalAlign=top;aspect=fixed;imageAspect=0;image=data:image/png,iVBORw0KGgoAAAANSUhEUgAAAIAAAACACAAAAADmVT4XAAAAB3RJTUUH5wsVBjEgLjxM7gAABjRJREFUeJztmmtQU0cUgDc3gZhAgjYBAUUFqSKiyMOkbQB1SqFCO47YqBMfraPTOjjF1tZOH9o/9ken0xmtP3TsVEVBsYYoaGl9MaBiFTRqoFCopBQrRRABQ3iTbH9I1eTu3meinfGeX7n3nD3nu7vn7u7ZGxEEz1aIZxxfABAABAABQAAQAAQAAUAAEACeJwCr+ZkCNO1cp5WuLEZo4NMQ+7bU0XBvHux3VYm8XxmNNB0z1fc8vp6n1wc9vvI2wEi35XJhY6/b3Ti9PvLpALRU7rO0OlExpur18QAA7+bA3aOZchGeLjD7Vwi9B+C0f6+ne8dmV0EJ596lFmfTuWPm+zRGikQV8AqAk/itqLixm9ZOkaj2CkBH9QFL7QgDQ8UcpRcAHpgPnnzgoDWT+MSKJ6uBpwEcfadPm3pon14mT3kxY0JkP+HpeaC5PL+2lc5I6ZMcmxWqHr3yZA80/nzC0kEXHS6euUIcKH50w3MA3TvKLtEMvcJ3WcQHPWNd7nloCOwNpwus/ZQmkvFLpyWHKUm3PRDd0Xex+ETXIJWJPCL2dc1EOYqLf/zWK/nX71AlfkDEjDTdJF+0kjdAy4XCi/co9H4T4jJfihzxwel55kD/3tIivJYgZiamTZrjS7km8VjvBuy7YwKwjkUgNvNMHa0TzkPg7DP/VNKKX3AmB22InsvAD1eAjpsFVxqHMeMnemFWVrxuGDvuLraccqC15lDpXdysExKVro16Yq6jFi49AE2Hj+N06mma1+JCWDhjDQBtJT/8fhepEomio1aljEXqPATgJJrLc+vR4cF0tUGbwC46W4COWyazudeJUkmj1samDEpZx2eThF0NB47fR065yqnJ8+NDMHMtjTDvgfIjuQ5UeNl47RvacM7zCcOG3ZfyqppQitDpS2ZoZEzfOa4AzVVHrv+FuK8SrdEu4ruc0U7W3e27U/1QjxiQtR/28FhKHgpdEvY25+V1krc6hDx4yQItw1e+bSgMr6TuQHitKLdzgHRbNj51VmqYgll4W/Ve0zi9XouNgZeOM9nR5AXFh9B9Ud3NtIdHLm5SSQAAYOzW+0gDCoDmrRFkXlH426Z6B9PwtorNjx4hsIwtwPVocm2fsOkm0+AQdlxYHyN55GPcl0gjfA4M1reRElQ6I2cytoGbDJh/PPRkjRg0D22H5W953w9lP31LNaPHL9sS7NowGT1weABLIm4vGZJTQRPddmHDNLdGyo/RpniA2waK/vV7pwQfvrN0zST3mcs/6SRbAAjhcQPVti6rAN2pxrVB7gsjIf3w8jAHAAhh6XqVUqMCxBgkQ+qeLlfzEeuxdBXJTJJR0YV2z+iUrKYJXv28pPKTcHXWFDKD5tu2x6b1BzXkzFXocv/Ee2dTmNxpg/XbZrv7J9aNTou9ddtTpKTElWq+rhukcMq+MvrnuyS3GKEbKyDsuvxZ3BjyexO6oW6A0h2n0sy+P8Mtjv+a1cGILZk8+RSdL861oWk57TbIN2ELfW3Ipzg9u4iKgYh8t4LBosnrrPjqFHx8xYpTdiarJo8d3VCndf7RPowyxbAcX7k/KdwBms7vb7iHLFIA8M9ZoA4ANiXol9G54XpC0nC2qJziUE4W84dTLytOi9k1T59O7YnL2N/r+4hNEag/SuGLPcBga54hgLZnXUX8FdYd2xwYsJ45YbHhOp/A5EQQfgPPCmDIt/yXkmY7Ti2a+OrSa8YahCYQsx0DgFUO3MrXUVQYQLXc2O6AsGWHjqTKwDtlDlC78+UxFJ/AQMIum3PUtGffQtcO+IYfgNMBbTUbEymCAzBhc61ro0LD5sJlRFiySBwpWniDH8DfOWmGYPSW6KGIA9KPoJta2uG5K8NWCudMACq11AufWLejrpeBH6QweQvu1FF9iCBC38ucxX1GZ9CyrWqYSr04O4nb6RBjgJZK/McAxdx1SVSvJgNhMEwlKzHHb/L47fRbHhphOA+UZQeSwhOBq6xDfOOzmIjMn051iS955fBt3uFZ/oWj0Wi8MfrTd8rqt8L5JN9/wnZD0m40ngcAhGesjvb3QHhOO6IBo1Fh0LE8FPckgGflOforlwAgAAgAAoAAIAAIAAKAACAACAACgAAgAPxfAf4FrxK7e0slsFwAAAAASUVORK5CYII=;imageBorder=default;" vertex="1" parent="1">
          <mxGeometry x="232" y="705" width="128" height="128" as="geometry" />
        </mxCell>
        <mxCell id="_TGo44fl7n45EmKfT9XX-12" value="" style="shape=image;verticalLabelPosition=bottom;labelBackgroundColor=default;verticalAlign=top;aspect=fixed;imageAspect=0;image=data:image/png,iVBORw0KGgoAAAANSUhEUgAAAIAAAACACAAAAADmVT4XAAAAB3RJTUUH5wsVBjMe3WszxwAACM9JREFUeJztm3tQlFUUwM8uz1WUZXmoSCrgMuPoohig8jBDMG1MUxwwzNLUzDJtbNIZzdTRKK0xMwfLcnyMmW/TQDO11MwFQeQRAeKDJMBEEZQNcIHbH7vAud9+j/vtbm5/cP7ae++59/y+c9+PVRBwrCgdbL8LoAugC6ALoAugC6AL4H8PcKvEwQDbI2OP/McEREzOjQIAbZqojo0i4YE7AFD2pufqOgd5gKQFmrScPv+vPCABQMj+EAAAiLvlKADjJrOrkjMdA0DIqZFmhDHHHANA9vdobzCDtjkEgGzz7GizmrUNDgC4Pgz3m4U37AnANBf0HIBDW4KT9PCnrL4uIkwAbhoXKnwwKmpB4GY7EbC4yTCPL6dqec2TqoIb9/liG1N95xbZ8u0mYaE8568Qyj792hPxQDPnGMMZ/M2/Tpda/entRTFITjMOKbx0w3TBZI9/bRq4B3nZCMBSBdnPUjm81uf9YySENJGHa2Yeu2tjFbAArO2N7QcvLbLRJiUMVVBRfgdXwLhFfWz1OhYGgEuXUUAZPrGvPe0zjIS1+kIUckmOEFYl95dsapNLIFlJ6SORtnKoXkT1xns+4LK0SlYbkARoXoEHob6pYsXXjFACALx6VQaAZBXoM9Eg5DpgrFgLdBrZBgCwK2zCWftVQaoHUu69ukJcO2u6STEil9UDUgDZk5F9pe5im1SBl02DRuQ+RgCpKtBnooAmQXhWahftbAAAuDyddcEgzlecgnVDTjQzfFOd1qzOtGCQ8IA+CwXUo4NdGT7JPcnJ9INtwSCKV0EthYL2PWJwACEFgSjTxLO2eOASdkCP8MEegppY+iWiQPrYyO/ElEUB6vQFKKSJZ5wFPEP9cDA7pf+m4o0VQtpi7skYhRRV41n7dtM2i6bi3B1SsmVXgZFqgpp4f0FNWtwUFsukFgPsjYjP4FEWA9BnoqnNtX9ML0aA1hs1vPFnJ+p2yAKgmqAXawsAKL4uNCf/PvfDR5wokQVJbhZSVvomsNYAVF5WUKvobtqe3b33BT+oAfBx6sHVFm5LX+CloM87NxmbIKleoaIs9F6Ub6hrMmTX7QpzmXaJqy0MUDIDl6LNaGIFuBqDd5KKqLRbHUnnCyy0hauA6gJOQ4PcGJwPAPAgq9iIgl6JL6k7AqMt1QUBKvXXUahV5SekyJXqdAMK9UoarxZUBRDpBZQDAAprGe03FGQ1oWC/BYPE9YUA6vX5VDhPO+03JgDaAQFTB0mtIARa0okoS9WYw9ItsPkktY2akCeVQcADLZwaAACAi4khWyU+B6rSG1DIO2KoVAYBD1wYJ6Dec1Wd2Pe0/dYfu3zMBUmXCQCs74mKUQTgvQm8USpc3F/LPZFmt3ck7QsA5E7B9jVfP775NkaYIvhh2aG4X49ItxZgCx73vRdfJ4QY1vmguKiDvPn+3oAnYsUchtGTF6D0Zfy92vRGU/TXg1Fs8BaejHmj8VIkdK+0fX6AnVpUjHp2SUfC8TiU4LHyPiffg6+8MXkKyzEeH0DlfFxM4N6HKK1972WS1/+gMha94I4SB37FYJ8X4BA+GvZI5Mxg5YsxwuRfOlMa9lMTxhSmM2UegPp3cTH9vuQ6mjSmYkMjO3aB12Z2Q/F9P2GxzwdwMhoVo0q4wpdtuw5XkulCqflHahQez3ZKYAnQ+gHuyv4bqvkzpscjrW7LawgpX4iXW5qVTPZ5AH59DhXjMkL4SCabWjLNKdzcG08sz5y3FmADHkx7vX9bJPPtJXjg98U8qsVs9i0Brk5FxSgGnWsRzd68nqr3Ton8gRHAYjqmNgOahAAnfgNmcV1avZN3xh0SzxfLJxygspk4UXu8keEjTlrO3bpvGR1g4QHKAZ7RWneQlvGncpM5UewO4HigPAmnBe55yI9tIRVx1PJ64FZWB3A9cDIXBTzCQi02UgLimUCtPWU4gAaoPYM3A+wbcvi7CDdW/1EDmQEoz93eiQ/G3UMivYFNjLfO4M2Ajt0BoKzq/N2an/YXSmI+kgGoojYDXuHDZQDETjwL1QAAxooDX9aibbVzwDMCg4wUgC6B3T4AAISl+H3UsOPAJF+qPlwWlbO25MqVePh2X8TcBQjp/GI/oK9nQZVhZC0kJwyjRxyXA6DUmLPdBSNlXzGmD9OVHgDUnC9vQUE5TRBAeX8b//aV6AJ543mE3o8OiVMJavIBwLw/jo3hSfALEt/Xd0p9duFjDCDLAaAEgEm/ZL4S/yrH4bWtjYxF0F0geDTraZ5ZzG2h/lHLJ1S392RbUxJiOESthSfLvM2mJqPdeAB5sZKthLJZ3VEu/4/l2eeuiE5N6ChK/Q1TAY9PU8PVuBzbAAjJm2UuShHDtLH4czGeMdXLZdrn2xdULzPvMDVrDdIF6IPxhBr7sx0ACGnb+BQAALglS96CVq3Co7DbQrn2BU9KhysAABRvSdwTkpyncfcN/95uAIfb916vFItlr9moQfZhtvxnVsJnxRmmEU21ROyNRH4cPsEdvFu2fZEbk+dP58wAgCa1yJBcf6UAPy+RNw2ZROzC4uk9FUt8kqNdhDXoaSgo1pq3FRIeMpaJHDQZDlOj8CSR8ztBkZrzncXWt6UH8LFon1EhVjiAddHBJ40XjuBFjMx52Cwyn3bXfranM5B+GNtXh4dbA8D0lqxDqtb4gs+HZWklxnstxalayn0xEpfEAiIPoCbBGQBADc8lhkfS16Mus62yz/KQCYmrbwsAQB2cskgKiLaIYhOZwD9NECjHn3kXQYvc/xcknMifxRevHGLl83P5f3AI3XFnmavGhxPbFsi8k+aIdY47WnKQrnNFkpXvja0EIISQC/g8DSKsfORnAwAhpQs6AbyOOgCAkLrVHSuyIOte39sIQAjZ2j4FvVboGABCjsSaEeYz7mXsDUDIRdM81Jf/KusJADR8avZB9CHHABBSNNeMsEDmO197ARByb0V3AFBoZbYD+/3XzHtdw+Yg8IwySKtiUdj3z+8Hymb1kjfD2xlAvjj8737/Av31Wiqg4d+bAAAAAElFTkSuQmCC;imageBorder=default;" vertex="1" parent="1">
          <mxGeometry x="104" y="705" width="128" height="128" as="geometry" />
        </mxCell>
        <mxCell id="_TGo44fl7n45EmKfT9XX-16" value="" style="endArrow=none;dashed=1;html=1;rounded=0;" edge="1" parent="1">
          <mxGeometry width="50" height="50" relative="1" as="geometry">
            <mxPoint x="105.71" y="697" as="sourcePoint" />
            <mxPoint x="485.71" y="697" as="targetPoint" />
          </mxGeometry>
        </mxCell>
      </root>
    </mxGraphModel>
  </diagram>
</mxfile>
